<svg width="150" height="150" viewBox="0 0 150 150" fill="none" xmlns="http://www.w3.org/2000/svg">
<g filter="url(#filter0_d_323_724)">
<path d="M125 63C125 90.6142 102.614 113 75 113C47.3858 113 25 90.6142 25 63C25 35.3858 47.3858 13 75 13C102.614 13 125 35.3858 125 63Z" fill="url(#paint0_linear_323_724)"/>
</g>
<path fill-rule="evenodd" clip-rule="evenodd" d="M66.3655 43H83.6241C86.5969 43 89.0117 45.3806 89.0219 48.3113V70.7369C89.0219 74.948 85.5519 78.3689 81.2804 78.3689C78.6931 78.3689 76.4102 77.1185 74.9999 75.1981C73.5896 77.1185 71.2966 78.3689 68.7194 78.3689C64.4479 78.3689 60.9779 74.948 60.9779 70.7369V48.3113C60.9779 45.3806 63.3927 43 66.3655 43ZM67.6845 57.8437C67.9585 58.1138 68.3339 58.2638 68.7194 58.2638C69.105 58.2638 69.4905 58.1038 69.7543 57.8437C70.0283 57.5736 70.1805 57.2036 70.1805 56.8235C70.1805 56.4434 70.0283 56.0733 69.7543 55.8032C69.4804 55.5331 69.105 55.3831 68.7194 55.3831C68.3339 55.3831 67.9585 55.5331 67.6845 55.8032C67.4106 56.0733 67.2584 56.4434 67.2584 56.8235C67.2584 57.2036 67.4106 57.5736 67.6845 57.8437ZM77.7191 70.4369L79.2917 67.7562C79.9411 66.6459 80.0019 65.4856 79.4541 64.5554C78.9163 63.6352 77.8611 63.105 76.5624 63.105H73.4273C72.1285 63.105 71.0733 63.6352 70.5356 64.5554C69.9979 65.4856 70.0587 66.6459 70.7081 67.7562L72.2807 70.4369C72.9301 71.5471 73.9244 72.1873 74.9999 72.1873C76.0754 72.1873 77.0697 71.5471 77.7191 70.4369ZM81.2804 58.2638C81.6659 58.2638 82.0413 58.1138 82.3153 57.8437C82.5791 57.5736 82.7414 57.1936 82.7414 56.8235C82.7414 56.4434 82.5892 56.0733 82.3153 55.8032C82.0413 55.5331 81.6659 55.3831 81.2804 55.3831C80.8948 55.3831 80.5194 55.5331 80.2455 55.8032C79.9715 56.0733 79.8193 56.4434 79.8193 56.8235C79.8193 57.2036 79.9715 57.5736 80.2455 57.8437C80.5194 58.1138 80.8948 58.2638 81.2804 58.2638ZM91.944 49.8717L99.655 58.984C99.8782 59.244 100 59.5741 100 59.9142C100 63.6952 96.875 66.7759 93.0397 66.7759C92.6643 66.7759 92.2991 66.7459 91.944 66.6859V49.8717ZM56.9602 66.7759C53.125 66.7759 50 63.6952 50 59.9142C50 59.5741 50.1218 59.2441 50.345 58.984L58.056 49.8717V66.6859C57.7009 66.7459 57.3357 66.7759 56.9602 66.7759ZM75 79.239C74.5739 79.549 74.1275 79.819 73.6607 80.059C72.5142 80.649 71.2561 81.029 69.9777 81.179C71.3474 82.329 73.1128 82.999 75 82.999C76.8973 82.999 78.6628 82.319 80.0224 81.179C78.7338 81.029 77.4858 80.649 76.3393 80.059C75.8726 79.819 75.4262 79.549 75 79.239Z" fill="url(#paint1_linear_323_724)"/>
<defs>
<filter id="filter0_d_323_724" x="0" y="0" width="150" height="150" filterUnits="userSpaceOnUse" color-interpolation-filters="sRGB">
<feFlood flood-opacity="0" result="BackgroundImageFix"/>
<feColorMatrix in="SourceAlpha" type="matrix" values="0 0 0 0 0 0 0 0 0 0 0 0 0 0 0 0 0 0 127 0" result="hardAlpha"/>
<feOffset dy="12"/>
<feGaussianBlur stdDeviation="12.5"/>
<feComposite in2="hardAlpha" operator="out"/>
<feColorMatrix type="matrix" values="0 0 0 0 0.979167 0 0 0 0 0.658552 0 0 0 0 0.175434 0 0 0 0.3 0"/>
<feBlend mode="normal" in2="BackgroundImageFix" result="effect1_dropShadow_323_724"/>
<feBlend mode="normal" in="SourceGraphic" in2="effect1_dropShadow_323_724" result="shape"/>
</filter>
<linearGradient id="paint0_linear_323_724" x1="75" y1="13" x2="75" y2="113" gradientUnits="userSpaceOnUse">
<stop stop-color="#FFE4AA"/>
<stop offset="1" stop-color="#FF9C07"/>
</linearGradient>
<linearGradient id="paint1_linear_323_724" x1="75" y1="43" x2="75" y2="64" gradientUnits="userSpaceOnUse">
<stop stop-color="white" stop-opacity="0.6"/>
<stop offset="1" stop-color="white"/>
</linearGradient>
</defs>
</svg>
