<svg width="150" height="150" viewBox="0 0 150 150" fill="none" xmlns="http://www.w3.org/2000/svg">
<g filter="url(#filter0_d_323_711)">
<circle cx="75" cy="63" r="50" fill="url(#paint0_linear_323_711)"/>
</g>
<path fill-rule="evenodd" clip-rule="evenodd" d="M90.2401 47.78C91.5901 48.03 92.8101 48.72 93.7001 49.8C96.4901 53.2 94.6601 58.38 90.3901 59.26C89.9046 59.3586 89.3746 59.3643 88.8042 59.3703C87.1774 59.3877 85.2216 59.4085 83.0301 61.6L82.4801 62.15L75.8501 55.52L76.4301 54.94C78.2001 53.17 78.6301 50.63 78.6201 48.88C78.6201 43.47 85.1001 41.16 88.6301 44.69C89.4801 45.54 90.0301 46.62 90.2401 47.78ZM69.21 62.1501L74.19 57.1801L80.82 63.8101L75.85 68.7801L69.21 62.1501ZM67.5597 63.8101L66.9997 64.3601C65.4297 65.9301 63.3597 66.8001 61.4697 66.6001C56.1797 66.0501 53.0597 72.1701 56.3297 76.1501C57.2197 77.2301 58.4397 77.9201 59.7897 78.1701C59.9997 79.3301 60.5497 80.4101 61.3997 81.2601C65.0897 84.9501 71.4097 82.3301 71.4097 77.0701C71.3997 75.3201 71.8297 72.7801 73.5897 71.0101L74.1697 70.4301L67.5597 63.8101ZM80.8202 67.13L85.6502 71.96C85.9602 72.26 86.0702 72.71 85.9402 73.12C85.8202 73.53 85.4702 73.85 85.0502 73.93L81.6702 74.61L80.9902 77.99C80.9002 78.41 80.5902 78.76 80.1802 78.88C79.7702 79.01 79.3202 78.9 79.0102 78.59L74.4102 73.99C74.6202 73.52 74.8802 73.07 75.2602 72.69L80.8202 67.13Z" fill="url(#paint1_linear_323_711)"/>
<defs>
<filter id="filter0_d_323_711" x="0" y="0" width="150" height="150" filterUnits="userSpaceOnUse" color-interpolation-filters="sRGB">
<feFlood flood-opacity="0" result="BackgroundImageFix"/>
<feColorMatrix in="SourceAlpha" type="matrix" values="0 0 0 0 0 0 0 0 0 0 0 0 0 0 0 0 0 0 127 0" result="hardAlpha"/>
<feOffset dy="12"/>
<feGaussianBlur stdDeviation="12.5"/>
<feComposite in2="hardAlpha" operator="out"/>
<feColorMatrix type="matrix" values="0 0 0 0 0.282353 0 0 0 0 0.670588 0 0 0 0 1 0 0 0 0.25 0"/>
<feBlend mode="normal" in2="BackgroundImageFix" result="effect1_dropShadow_323_711"/>
<feBlend mode="normal" in="SourceGraphic" in2="effect1_dropShadow_323_711" result="shape"/>
</filter>
<linearGradient id="paint0_linear_323_711" x1="75" y1="13" x2="75" y2="113" gradientUnits="userSpaceOnUse">
<stop stop-color="#B8DEFF"/>
<stop offset="1" stop-color="#1D97FF"/>
</linearGradient>
<linearGradient id="paint1_linear_323_711" x1="75.0122" y1="43.0046" x2="75.0122" y2="69.5" gradientUnits="userSpaceOnUse">
<stop stop-color="white" stop-opacity="0.6"/>
<stop offset="1" stop-color="white"/>
</linearGradient>
</defs>
</svg>
