<?xml version="1.0" encoding="UTF-8"?>
<svg version="1.1" xmlns="http://www.w3.org/2000/svg" width="512" height="512">
<path d="M0 0 C0.74765625 -0.03738281 1.4953125 -0.07476562 2.265625 -0.11328125 C7.98975253 0.86774061 10.92123817 4.28255001 14.1796875 8.7890625 C15.33968191 10.4974179 16.48789058 12.21382735 17.625 13.9375 C18.51445312 15.24460937 18.51445312 15.24460937 19.421875 16.578125 C23.75 23.02044931 23.75 23.02044931 23.75 25.3125 C24.6471875 24.92578125 25.544375 24.5390625 26.46875 24.140625 C38.71218492 18.98348652 51.36486774 14.84237615 64.75 14.3125 C65.50925781 14.27253906 66.26851562 14.23257813 67.05078125 14.19140625 C80.67154785 13.81243238 93.00851138 16.95651524 105.75 21.3125 C107.40842794 21.86716145 109.06728653 22.42053687 110.7265625 22.97265625 C111.49307129 23.22797119 112.25958008 23.48328613 113.04931641 23.74633789 C113.89115479 24.02658813 113.89115479 24.02658813 114.75 24.3125 C115.14268066 23.72758789 115.53536133 23.14267578 115.93994141 22.54003906 C117.74009807 19.87286601 119.55729397 17.2177406 121.375 14.5625 C121.99246094 13.64210938 122.60992187 12.72171875 123.24609375 11.7734375 C130.3845733 1.40385667 130.3845733 1.40385667 136.875 -0.21875 C141.92210125 -0.13463165 144.9317949 0.7488419 148.75 4.3125 C159.1560556 19.42308972 161.443013 41.38219322 162.36010742 59.13476562 C163.06819641 74.16131437 163.06819641 74.16131437 168.21875 88.0859375 C171.22890451 94.42876308 172.34095855 101.46621626 173.75 108.3125 C174.84441406 108.26867187 175.93882812 108.22484375 177.06640625 108.1796875 C180.75 108.3125 180.75 108.3125 183.6875 110.4375 C185.75 113.3125 185.75 113.3125 186.375 116.3125 C185.53253791 120.35631805 184.01600019 121.84485541 180.75 124.3125 C179.1 124.3125 177.45 124.3125 175.75 124.3125 C175.75 127.6125 175.75 130.9125 175.75 134.3125 C177.02875 134.745625 178.3075 135.17875 179.625 135.625 C183.06580104 136.79043261 183.61567858 137.11101787 185.75 140.3125 C186.17379221 144.19726191 186.36457992 146.41426781 184.125 149.6875 C180.46805809 152.18961815 177.09112865 152.3125 172.75 152.3125 C172.25693359 153.60220703 172.25693359 153.60220703 171.75390625 154.91796875 C168.53934578 162.90645642 164.79449859 169.62595601 159.703125 176.5703125 C157.5685239 179.4177353 157.5685239 179.4177353 155.75 183.3125 C163.01 183.3125 170.27 183.3125 177.75 183.3125 C178.100625 180.610625 178.45125 177.90875 178.8125 175.125 C180.46241101 163.79587807 183.38791147 151.45696809 188.83203125 141.29223633 C189.8320798 139.13548269 190.01555839 137.68360057 190.05859375 135.3203125 C190.08139404 134.54437744 190.10419434 133.76844238 190.12768555 132.96899414 C190.14742432 132.13360107 190.16716309 131.29820801 190.1875 130.4375 C192.22865406 78.4760932 192.22865406 78.4760932 206.9375 64.1875 C211.83717866 62.66315553 216.90400935 61.94156548 221.671875 64.23828125 C227.37860409 68.67539401 230.94518014 75.28754815 234.75 81.3125 C236.0727375 83.31980715 237.4103528 85.31639596 238.75 87.3125 C239.94753906 86.84199219 241.14507812 86.37148437 242.37890625 85.88671875 C271.42012764 74.67777363 296.87571405 74.77660107 325.75 86.3125 C326.74 86.6425 327.73 86.9725 328.75 87.3125 C329.47445313 86.23871094 330.19890625 85.16492188 330.9453125 84.05859375 C331.92165382 82.62224546 332.89822885 81.18605602 333.875 79.75 C334.5865625 78.69329102 334.5865625 78.69329102 335.3125 77.61523438 C343.67914117 65.34792941 343.67914117 65.34792941 347.75 63.3125 C349.51539781 63.13908733 351.28919159 63.0455925 353.0625 63 C354.47982422 62.94392578 354.47982422 62.94392578 355.92578125 62.88671875 C359.62859514 63.44495763 361.12585926 64.66638153 363.75 67.3125 C373.17460428 83.05793263 376.48892711 104.89718101 376.875 122.9609375 C377.12498232 133.57177494 378.91205669 141.648937 382.99658203 151.40820312 C387.17251194 161.96304866 388.63100315 173.10780781 389.75 184.3125 C390.6575 184.291875 391.565 184.27125 392.5 184.25 C395.75 185.3125 395.75 185.3125 396.80725098 187.04154968 C397.10611206 187.77638077 397.40497314 188.51121185 397.71289062 189.26831055 C398.05070557 190.08536469 398.38852051 190.90241882 398.73657227 191.74423218 C399.07100342 192.59176056 399.40543457 193.43928894 399.75 194.3125 C400.06187256 195.08647125 400.37374512 195.8604425 400.69506836 196.65786743 C401.67833399 199.1262605 402.63846367 201.60268064 403.59375 204.08203125 C404.13697655 205.48406044 404.13697655 205.48406044 404.69117737 206.91441345 C405.8796768 209.98375323 407.06489136 213.05434958 408.25 216.125 C409.08245741 218.27707374 409.91506092 220.42909098 410.74780273 222.58105469 C418.0001973 241.33266008 425.21792159 260.09769167 432.42578125 278.86645508 C432.83513412 279.93215225 433.244487 280.99784943 433.66624451 282.09584045 C434.43094119 284.08687654 435.19533494 286.07802901 435.95936584 288.06932068 C436.29898849 288.95362259 436.63861115 289.8379245 436.98852539 290.74902344 C437.28207413 291.51390076 437.57562286 292.27877808 437.87806702 293.0668335 C438.5131324 294.70244664 439.17063469 296.32940093 439.84129333 297.95074463 C440.79529329 300.4302186 441.04886578 302.29246214 441.0625 304.9375 C441.07925781 305.69289063 441.09601562 306.44828125 441.11328125 307.2265625 C440.65528778 309.85633148 439.84112294 310.69864512 437.75 312.3125 C434.2838354 313.36741966 432.53101174 313.67644105 429.21287537 312.13023376 C426.38387838 310.04228266 425.55519152 308.57498439 424.21899414 305.35375977 C423.80577911 304.37182648 423.39256409 303.38989319 422.96682739 302.37820435 C422.56527435 301.36652191 422.16372131 300.35483948 421.75 299.3125 C421.37463104 298.37405243 420.99926208 297.43560486 420.61251831 296.46871948 C419.46504798 293.53896439 418.35131383 290.59828434 417.24609375 287.65234375 C416.84093033 286.58182266 416.43576691 285.51130157 416.01832581 284.40834045 C414.7379448 281.02351436 413.46249799 277.63685698 412.1875 274.25 C410.9079811 270.85993944 409.62741341 267.4702786 408.34596252 264.08094788 C407.55323925 261.98333649 406.76176428 259.88525274 405.9717865 257.78660583 C405.60783279 256.82182816 405.24387909 255.85705048 404.86889648 254.86303711 C404.39854225 253.61374672 404.39854225 253.61374672 403.91868591 252.33921814 C402.23585583 247.98094507 400.49175144 243.64750317 398.75 239.3125 C398.74780016 240.82851445 398.74780016 240.82851445 398.74555588 242.37515545 C398.70898027 266.95361038 398.64955617 291.53192883 398.56609726 316.1102705 C398.52626771 327.99612343 398.49389511 339.88190977 398.47900391 351.76782227 C398.4660077 362.12614617 398.43909501 372.48432381 398.39538693 382.84256536 C398.37272646 388.32850446 398.35709207 393.81426285 398.35811615 399.30025291 C398.35886005 404.46229558 398.34101798 409.62393806 398.30883217 414.78587723 C398.30030331 416.68173842 398.2986034 418.57764434 398.30419731 420.47351646 C398.3108139 423.0602632 398.29297365 425.64572797 398.26898193 428.23234558 C398.27674235 428.98429819 398.28450277 429.7362508 398.29249835 430.51098984 C398.2370127 433.88534479 397.88641352 436.08210776 396.15632939 439.00409055 C392.93339635 442.09587388 391.16505257 441.93797002 386.74092102 441.93891239 C386.03176383 441.94588 385.32260664 441.95284761 384.59195983 441.96002635 C382.20309677 441.97734413 379.81583971 441.95886831 377.42700195 441.94068909 C375.70222643 441.9457316 373.97745614 441.95295814 372.25269794 441.96218723 C367.50342495 441.98117853 362.75466436 441.96883718 358.005404 441.9514643 C352.88739413 441.93812989 347.7694612 441.95351324 342.65145874 441.96528625 C332.62147924 441.98369661 322.59169412 441.97512789 312.56172061 441.95719803 C304.41252183 441.94319085 296.26337593 441.93927517 288.11416626 441.9426403 C286.37656004 441.94335647 286.37656004 441.94335647 284.60385066 441.9440871 C282.25081371 441.9451134 279.89777677 441.94616875 277.54473984 441.94725286 C256.72282144 441.9558268 235.90099708 441.93912242 215.07910156 441.90942383 C194.85966033 441.88058478 174.64035459 441.873502 154.42089844 441.88891602 C132.42039402 441.90566474 110.41995398 441.90972595 88.4194479 441.89220566 C86.07490985 441.8903612 83.7303718 441.88852648 81.38583374 441.88670158 C80.23217845 441.88578949 79.07852316 441.8848774 77.88990861 441.88393768 C69.74744637 441.87832401 61.60501548 441.88164718 53.46255493 441.88824654 C43.54397644 441.89596601 33.6255315 441.88927722 23.70697999 441.8640715 C18.64322362 441.85154422 13.5796755 441.84546891 8.5159111 441.85661316 C3.88471394 441.86661321 -0.74606687 441.85828687 -5.37721312 441.83503198 C-7.05682357 441.82984894 -8.73647097 441.83147694 -10.41606557 441.84042663 C-12.69152221 441.85154712 -14.96555256 441.83827291 -17.24092102 441.81865788 C-18.50701863 441.81746639 -19.77311625 441.81627491 -21.07758045 441.81504732 C-24.81561873 441.22289956 -25.99876948 440.2981274 -28.25 437.3125 C-28.75120544 434.99816895 -28.75120544 434.99816895 -28.75170898 432.42382812 C-28.76108994 431.45602417 -28.77047089 430.48822021 -28.78013611 429.49108887 C-28.76890213 428.45246704 -28.75766815 427.41384521 -28.74609375 426.34375 C-28.74754898 425.27129028 -28.74900421 424.19883057 -28.75050354 423.09387207 C-28.74884444 420.82769045 -28.73728208 418.56149757 -28.71655273 416.29541016 C-28.68760727 412.8253598 -28.69594252 409.35683779 -28.70898438 405.88671875 C-28.7027467 403.6848884 -28.69435553 401.48306288 -28.68359375 399.28125 C-28.68652939 398.24262817 -28.68946503 397.20400635 -28.69248962 396.13391113 C-28.67980545 395.16610718 -28.66712128 394.19830322 -28.65405273 393.20117188 C-28.64864975 392.3516394 -28.64324677 391.50210693 -28.63768005 390.62683105 C-28.14926052 387.71111622 -27.35623584 386.3830412 -25.25 384.3125 C-23.6 383.9825 -21.95 383.6525 -20.25 383.3125 C-20.25 377.3725 -20.25 371.4325 -20.25 365.3125 C-21.9 364.9825 -23.55 364.6525 -25.25 364.3125 C-27.39360747 362.21955125 -28.15655006 360.8910094 -28.63476086 357.93060684 C-28.63936982 357.04199841 -28.64397879 356.15338997 -28.64872742 355.237854 C-28.66126556 354.21424271 -28.67380371 353.19063141 -28.6867218 352.13600159 C-28.68528671 351.01894333 -28.68385162 349.90188507 -28.68237305 348.75097656 C-28.6925647 347.57021042 -28.70275635 346.38944427 -28.71325684 345.17289734 C-28.73826547 341.9397023 -28.75011134 338.70678017 -28.75611091 335.47350407 C-28.76549441 332.09284054 -28.79169773 328.71230841 -28.81611633 325.33172607 C-28.85978582 318.93222005 -28.88832994 312.53273952 -28.91143972 306.13312984 C-28.93848905 298.84652217 -28.98240067 291.56004666 -29.02772844 284.27353334 C-29.12058107 269.28659346 -29.19225891 254.29961937 -29.25 239.3125 C-29.54227384 240.06967725 -29.83454767 240.8268545 -30.13567829 241.60697651 C-31.00548696 243.8603405 -31.87529581 246.11370442 -32.74510479 248.36706829 C-33.73136911 250.92212708 -34.71763157 253.47718658 -35.70389271 256.03224659 C-37.99262634 261.96155636 -40.28137702 267.89085955 -42.57021904 273.82012749 C-43.69661726 276.73813283 -44.82291104 279.65617848 -45.94921875 282.57421875 C-46.39865845 283.7384436 -46.84809814 284.90266846 -47.31115723 286.10217285 C-47.75721313 287.25785767 -48.20326904 288.41354248 -48.6628418 289.60424805 C-49.30532364 291.26017471 -49.30532364 291.26017471 -49.96078491 292.94955444 C-50.8532254 295.27750483 -51.72722122 297.61257882 -52.58633423 299.95303345 C-53.01779755 301.11813446 -53.44926086 302.28323547 -53.89379883 303.48364258 C-54.27522537 304.53143387 -54.65665192 305.57922516 -55.04963684 306.6587677 C-56.20361061 309.20994351 -57.05880111 310.6103821 -59.25 312.3125 C-62.93996009 313.43553133 -64.55988722 313.64988847 -68.0625 311.9375 C-70.25 310.3125 -70.25 310.3125 -71.25 309.3125 C-72.00172027 302.81153881 -70.68259659 297.59853951 -68.234375 291.63671875 C-67.91122818 290.81373795 -67.58808136 289.99075714 -67.25514221 289.14283752 C-66.18383229 286.4228969 -65.09177154 283.71178433 -64 281 C-63.23942137 279.07782347 -62.48058821 277.15495547 -61.72338867 275.23144531 C-60.10076982 271.11161171 -58.47169241 266.99440983 -56.83935547 262.87841797 C-52.77532032 252.60309517 -48.8267718 242.28306661 -44.86901855 231.96646118 C-43.59092678 228.6365622 -42.31007623 225.30773812 -41.02832031 221.97924805 C-40.42281845 220.40538582 -40.42281845 220.40538582 -39.80508423 218.79972839 C-39.02146278 216.76368311 -38.23680438 214.72803656 -37.45101929 212.69282532 C-35.74899177 208.27295445 -34.07004871 203.84947406 -32.47802734 199.38867188 C-32.21072311 198.6469574 -31.94341888 197.90524292 -31.66801453 197.14105225 C-30.97790457 195.21421977 -30.3011748 193.2826089 -29.62573242 191.35058594 C-28.21195021 188.2284731 -26.89274314 186.46684243 -24.25 184.3125 C-21.46857957 183.80494153 -19.1042771 184.12221486 -16.25 184.3125 C-18.37280293 179.72724568 -20.62250781 175.69267789 -23.625 171.625 C-27.51481576 166.22294485 -33.25 158.17221375 -33.25 151.3125 C-34.8278125 151.6528125 -34.8278125 151.6528125 -36.4375 152 C-40.66081772 152.34617358 -41.95909137 151.82907719 -45.25 149.3125 C-46.25 148.3125 -46.25 148.3125 -46.5625 144.5 C-46.5133211 141.45090821 -46.37016651 140.49274976 -44.625 137.875 C-41.8127594 136.02484171 -39.57739873 135.61499079 -36.25 135.3125 C-36.25 131.6825 -36.25 128.0525 -36.25 124.3125 C-37.343125 124.209375 -38.43625 124.10625 -39.5625 124 C-43.25 123.3125 -43.25 123.3125 -45.1875 122.25 C-46.94513922 119.04489318 -46.86366654 115.8181583 -46.25 112.3125 C-44.75 109.8125 -44.75 109.8125 -42.25 108.3125 C-39.49158426 107.99665087 -37.04398546 108.1262343 -34.25 108.3125 C-34.17523438 107.71566406 -34.10046875 107.11882812 -34.0234375 106.50390625 C-32.57614874 96.95463826 -29.58421543 86.98093086 -25.25 78.3125 C-25.00277222 76.07984583 -24.80763853 73.84135103 -24.63671875 71.6015625 C-24.52505681 70.20697308 -24.41264064 68.81244389 -24.29956055 67.41796875 C-24.2117482 66.3204126 -24.2117482 66.3204126 -24.12216187 65.20068359 C-19.92352979 13.74298163 -19.92352979 13.74298163 -6.25 1.3125 C-3.97885524 0.17692762 -2.52706381 0.08165682 0 0 Z " fill="#E09873" transform="translate(71.25,70.6875)"/>
<path d="M0 0 C0.74765625 -0.03738281 1.4953125 -0.07476562 2.265625 -0.11328125 C7.98975253 0.86774061 10.92123817 4.28255001 14.1796875 8.7890625 C15.33968191 10.4974179 16.48789058 12.21382735 17.625 13.9375 C18.51445312 15.24460937 18.51445312 15.24460937 19.421875 16.578125 C23.75 23.02044931 23.75 23.02044931 23.75 25.3125 C24.6471875 24.92578125 25.544375 24.5390625 26.46875 24.140625 C38.71218492 18.98348652 51.36486774 14.84237615 64.75 14.3125 C65.50925781 14.27253906 66.26851562 14.23257813 67.05078125 14.19140625 C80.67154785 13.81243238 93.00851138 16.95651524 105.75 21.3125 C107.40842794 21.86716145 109.06728653 22.42053687 110.7265625 22.97265625 C111.49307129 23.22797119 112.25958008 23.48328613 113.04931641 23.74633789 C113.89115479 24.02658813 113.89115479 24.02658813 114.75 24.3125 C115.14268066 23.72758789 115.53536133 23.14267578 115.93994141 22.54003906 C117.74009807 19.87286601 119.55729397 17.2177406 121.375 14.5625 C121.99246094 13.64210938 122.60992187 12.72171875 123.24609375 11.7734375 C130.3845733 1.40385667 130.3845733 1.40385667 136.875 -0.21875 C141.92210125 -0.13463165 144.9317949 0.7488419 148.75 4.3125 C159.1560556 19.42308972 161.443013 41.38219322 162.36010742 59.13476562 C163.06819641 74.16131437 163.06819641 74.16131437 168.21875 88.0859375 C171.22890451 94.42876308 172.34095855 101.46621626 173.75 108.3125 C174.84441406 108.26867187 175.93882812 108.22484375 177.06640625 108.1796875 C180.75 108.3125 180.75 108.3125 183.6875 110.4375 C185.75 113.3125 185.75 113.3125 186.375 116.3125 C185.53253791 120.35631805 184.01600019 121.84485541 180.75 124.3125 C179.1 124.3125 177.45 124.3125 175.75 124.3125 C175.75 127.6125 175.75 130.9125 175.75 134.3125 C177.02875 134.745625 178.3075 135.17875 179.625 135.625 C183.06580104 136.79043261 183.61567858 137.11101787 185.75 140.3125 C186.17379221 144.19726191 186.36457992 146.41426781 184.125 149.6875 C180.46805809 152.18961815 177.09112865 152.3125 172.75 152.3125 C172.25693359 153.60220703 172.25693359 153.60220703 171.75390625 154.91796875 C168.53934578 162.90645642 164.79449859 169.62595601 159.703125 176.5703125 C157.5685239 179.4177353 157.5685239 179.4177353 155.75 183.3125 C163.01 183.3125 170.27 183.3125 177.75 183.3125 C178.100625 180.610625 178.45125 177.90875 178.8125 175.125 C180.46241101 163.79587807 183.38791147 151.45696809 188.83203125 141.29223633 C189.8320798 139.13548269 190.01555839 137.68360057 190.05859375 135.3203125 C190.08139404 134.54437744 190.10419434 133.76844238 190.12768555 132.96899414 C190.14742432 132.13360107 190.16716309 131.29820801 190.1875 130.4375 C192.22865406 78.4760932 192.22865406 78.4760932 206.9375 64.1875 C211.83717866 62.66315553 216.90400935 61.94156548 221.671875 64.23828125 C227.37860409 68.67539401 230.94518014 75.28754815 234.75 81.3125 C236.0727375 83.31980715 237.4103528 85.31639596 238.75 87.3125 C239.94753906 86.84199219 241.14507812 86.37148437 242.37890625 85.88671875 C271.42012764 74.67777363 296.87571405 74.77660107 325.75 86.3125 C326.74 86.6425 327.73 86.9725 328.75 87.3125 C329.47445313 86.23871094 330.19890625 85.16492188 330.9453125 84.05859375 C331.92165382 82.62224546 332.89822885 81.18605602 333.875 79.75 C334.5865625 78.69329102 334.5865625 78.69329102 335.3125 77.61523438 C343.67914117 65.34792941 343.67914117 65.34792941 347.75 63.3125 C349.51539781 63.13908733 351.28919159 63.0455925 353.0625 63 C354.47982422 62.94392578 354.47982422 62.94392578 355.92578125 62.88671875 C359.62859514 63.44495763 361.12585926 64.66638153 363.75 67.3125 C373.17460428 83.05793263 376.48892711 104.89718101 376.875 122.9609375 C377.12498232 133.57177494 378.91205669 141.648937 382.99658203 151.40820312 C387.17251194 161.96304866 388.63100315 173.10780781 389.75 184.3125 C390.6575 184.291875 391.565 184.27125 392.5 184.25 C395.75 185.3125 395.75 185.3125 396.80725098 187.04154968 C397.10611206 187.77638077 397.40497314 188.51121185 397.71289062 189.26831055 C398.05070557 190.08536469 398.38852051 190.90241882 398.73657227 191.74423218 C399.07100342 192.59176056 399.40543457 193.43928894 399.75 194.3125 C400.06187256 195.08647125 400.37374512 195.8604425 400.69506836 196.65786743 C401.67833399 199.1262605 402.63846367 201.60268064 403.59375 204.08203125 C404.13697655 205.48406044 404.13697655 205.48406044 404.69117737 206.91441345 C405.8796768 209.98375323 407.06489136 213.05434958 408.25 216.125 C409.08245741 218.27707374 409.91506092 220.42909098 410.74780273 222.58105469 C418.0001973 241.33266008 425.21792159 260.09769167 432.42578125 278.86645508 C432.83513412 279.93215225 433.244487 280.99784943 433.66624451 282.09584045 C434.43094119 284.08687654 435.19533494 286.07802901 435.95936584 288.06932068 C436.29898849 288.95362259 436.63861115 289.8379245 436.98852539 290.74902344 C437.28207413 291.51390076 437.57562286 292.27877808 437.87806702 293.0668335 C438.5131324 294.70244664 439.17063469 296.32940093 439.84129333 297.95074463 C440.79529329 300.4302186 441.04886578 302.29246214 441.0625 304.9375 C441.07925781 305.69289063 441.09601562 306.44828125 441.11328125 307.2265625 C440.65528778 309.85633148 439.84112294 310.69864512 437.75 312.3125 C434.2838354 313.36741966 432.53101174 313.67644105 429.21287537 312.13023376 C426.38387838 310.04228266 425.55519152 308.57498439 424.21899414 305.35375977 C423.80577911 304.37182648 423.39256409 303.38989319 422.96682739 302.37820435 C422.56527435 301.36652191 422.16372131 300.35483948 421.75 299.3125 C421.37463104 298.37405243 420.99926208 297.43560486 420.61251831 296.46871948 C419.46504798 293.53896439 418.35131383 290.59828434 417.24609375 287.65234375 C416.84093033 286.58182266 416.43576691 285.51130157 416.01832581 284.40834045 C414.7379448 281.02351436 413.46249799 277.63685698 412.1875 274.25 C410.9079811 270.85993944 409.62741341 267.4702786 408.34596252 264.08094788 C407.55323925 261.98333649 406.76176428 259.88525274 405.9717865 257.78660583 C405.60783279 256.82182816 405.24387909 255.85705048 404.86889648 254.86303711 C404.39854225 253.61374672 404.39854225 253.61374672 403.91868591 252.33921814 C402.23585583 247.98094507 400.49175144 243.64750317 398.75 239.3125 C398.74780016 240.82851445 398.74780016 240.82851445 398.74555588 242.37515545 C398.70898027 266.95361038 398.64955617 291.53192883 398.56609726 316.1102705 C398.52626771 327.99612343 398.49389511 339.88190977 398.47900391 351.76782227 C398.4660077 362.12614617 398.43909501 372.48432381 398.39538693 382.84256536 C398.37272646 388.32850446 398.35709207 393.81426285 398.35811615 399.30025291 C398.35886005 404.46229558 398.34101798 409.62393806 398.30883217 414.78587723 C398.30030331 416.68173842 398.2986034 418.57764434 398.30419731 420.47351646 C398.3108139 423.0602632 398.29297365 425.64572797 398.26898193 428.23234558 C398.27674235 428.98429819 398.28450277 429.7362508 398.29249835 430.51098984 C398.2370127 433.88534479 397.88641352 436.08210776 396.15632939 439.00409055 C392.93339635 442.09587388 391.16505257 441.93797002 386.74092102 441.93891239 C386.03176383 441.94588 385.32260664 441.95284761 384.59195983 441.96002635 C382.20309677 441.97734413 379.81583971 441.95886831 377.42700195 441.94068909 C375.70222643 441.9457316 373.97745614 441.95295814 372.25269794 441.96218723 C367.50342495 441.98117853 362.75466436 441.96883718 358.005404 441.9514643 C352.88739413 441.93812989 347.7694612 441.95351324 342.65145874 441.96528625 C332.62147924 441.98369661 322.59169412 441.97512789 312.56172061 441.95719803 C304.41252183 441.94319085 296.26337593 441.93927517 288.11416626 441.9426403 C286.37656004 441.94335647 286.37656004 441.94335647 284.60385066 441.9440871 C282.25081371 441.9451134 279.89777677 441.94616875 277.54473984 441.94725286 C256.72282144 441.9558268 235.90099708 441.93912242 215.07910156 441.90942383 C194.85966033 441.88058478 174.64035459 441.873502 154.42089844 441.88891602 C132.42039402 441.90566474 110.41995398 441.90972595 88.4194479 441.89220566 C86.07490985 441.8903612 83.7303718 441.88852648 81.38583374 441.88670158 C80.23217845 441.88578949 79.07852316 441.8848774 77.88990861 441.88393768 C69.74744637 441.87832401 61.60501548 441.88164718 53.46255493 441.88824654 C43.54397644 441.89596601 33.6255315 441.88927722 23.70697999 441.8640715 C18.64322362 441.85154422 13.5796755 441.84546891 8.5159111 441.85661316 C3.88471394 441.86661321 -0.74606687 441.85828687 -5.37721312 441.83503198 C-7.05682357 441.82984894 -8.73647097 441.83147694 -10.41606557 441.84042663 C-12.69152221 441.85154712 -14.96555256 441.83827291 -17.24092102 441.81865788 C-18.50701863 441.81746639 -19.77311625 441.81627491 -21.07758045 441.81504732 C-24.81561873 441.22289956 -25.99876948 440.2981274 -28.25 437.3125 C-28.75120544 434.99816895 -28.75120544 434.99816895 -28.75170898 432.42382812 C-28.76108994 431.45602417 -28.77047089 430.48822021 -28.78013611 429.49108887 C-28.76890213 428.45246704 -28.75766815 427.41384521 -28.74609375 426.34375 C-28.74754898 425.27129028 -28.74900421 424.19883057 -28.75050354 423.09387207 C-28.74884444 420.82769045 -28.73728208 418.56149757 -28.71655273 416.29541016 C-28.68760727 412.8253598 -28.69594252 409.35683779 -28.70898438 405.88671875 C-28.7027467 403.6848884 -28.69435553 401.48306288 -28.68359375 399.28125 C-28.68652939 398.24262817 -28.68946503 397.20400635 -28.69248962 396.13391113 C-28.67980545 395.16610718 -28.66712128 394.19830322 -28.65405273 393.20117188 C-28.64864975 392.3516394 -28.64324677 391.50210693 -28.63768005 390.62683105 C-28.16220786 387.78840782 -27.18889996 386.41157878 -25.25 384.3125 C-21.79415748 382.91148276 -20.49506679 383.21353072 -17 384.625 C-14.25 386.3125 -14.25 386.3125 -13.25 388.3125 C-13.25 400.8525 -13.25 413.3925 -13.25 426.3125 C117.1 426.3125 247.45 426.3125 381.75 426.3125 C381.75 351.4025 381.75 276.4925 381.75 199.3125 C251.73 199.3125 121.71 199.3125 -12.25 199.3125 C-12.25 252.1125 -12.25 304.9125 -12.25 359.3125 C-16.25 364.3125 -16.25 364.3125 -19.6875 365.4375 C-23.25 365.3125 -23.25 365.3125 -25.93144226 363.53437805 C-29.39165804 358.72604696 -28.95427028 354.42657025 -28.90942383 348.63745117 C-28.92514938 346.86608292 -28.92514938 346.86608292 -28.94119263 345.05892944 C-28.96502214 341.82970938 -28.96687497 338.60137983 -28.95889878 335.37211013 C-28.95577053 331.99409327 -28.98081724 328.61628709 -29.00285339 325.23835754 C-29.0402853 318.84590398 -29.05244085 312.45366314 -29.0554778 306.06111079 C-29.06016959 298.78170812 -29.09309665 291.50251842 -29.12837565 284.22320974 C-29.20029689 269.25299777 -29.23682476 254.28288759 -29.25 239.3125 C-29.54227384 240.06967725 -29.83454767 240.8268545 -30.13567829 241.60697651 C-31.00548696 243.8603405 -31.87529581 246.11370442 -32.74510479 248.36706829 C-33.73136911 250.92212708 -34.71763157 253.47718658 -35.70389271 256.03224659 C-37.99262634 261.96155636 -40.28137702 267.89085955 -42.57021904 273.82012749 C-43.69661726 276.73813283 -44.82291104 279.65617848 -45.94921875 282.57421875 C-46.39865845 283.7384436 -46.84809814 284.90266846 -47.31115723 286.10217285 C-47.75721313 287.25785767 -48.20326904 288.41354248 -48.6628418 289.60424805 C-49.30532364 291.26017471 -49.30532364 291.26017471 -49.96078491 292.94955444 C-50.8532254 295.27750483 -51.72722122 297.61257882 -52.58633423 299.95303345 C-53.01779755 301.11813446 -53.44926086 302.28323547 -53.89379883 303.48364258 C-54.27522537 304.53143387 -54.65665192 305.57922516 -55.04963684 306.6587677 C-56.20361061 309.20994351 -57.05880111 310.6103821 -59.25 312.3125 C-62.93996009 313.43553133 -64.55988722 313.64988847 -68.0625 311.9375 C-70.25 310.3125 -70.25 310.3125 -71.25 309.3125 C-72.00172027 302.81153881 -70.68259659 297.59853951 -68.234375 291.63671875 C-67.91122818 290.81373795 -67.58808136 289.99075714 -67.25514221 289.14283752 C-66.18383229 286.4228969 -65.09177154 283.71178433 -64 281 C-63.23942137 279.07782347 -62.48058821 277.15495547 -61.72338867 275.23144531 C-60.10076982 271.11161171 -58.47169241 266.99440983 -56.83935547 262.87841797 C-52.77532032 252.60309517 -48.8267718 242.28306661 -44.86901855 231.96646118 C-43.59092678 228.6365622 -42.31007623 225.30773812 -41.02832031 221.97924805 C-40.42281845 220.40538582 -40.42281845 220.40538582 -39.80508423 218.79972839 C-39.02146278 216.76368311 -38.23680438 214.72803656 -37.45101929 212.69282532 C-35.74899177 208.27295445 -34.07004871 203.84947406 -32.47802734 199.38867188 C-32.21072311 198.6469574 -31.94341888 197.90524292 -31.66801453 197.14105225 C-30.97790457 195.21421977 -30.3011748 193.2826089 -29.62573242 191.35058594 C-28.21195021 188.2284731 -26.89274314 186.46684243 -24.25 184.3125 C-21.46857957 183.80494153 -19.1042771 184.12221486 -16.25 184.3125 C-18.37280293 179.72724568 -20.62250781 175.69267789 -23.625 171.625 C-27.51481576 166.22294485 -33.25 158.17221375 -33.25 151.3125 C-34.8278125 151.6528125 -34.8278125 151.6528125 -36.4375 152 C-40.66081772 152.34617358 -41.95909137 151.82907719 -45.25 149.3125 C-46.25 148.3125 -46.25 148.3125 -46.5625 144.5 C-46.5133211 141.45090821 -46.37016651 140.49274976 -44.625 137.875 C-41.8127594 136.02484171 -39.57739873 135.61499079 -36.25 135.3125 C-36.25 131.6825 -36.25 128.0525 -36.25 124.3125 C-37.343125 124.209375 -38.43625 124.10625 -39.5625 124 C-43.25 123.3125 -43.25 123.3125 -45.1875 122.25 C-46.94513922 119.04489318 -46.86366654 115.8181583 -46.25 112.3125 C-44.75 109.8125 -44.75 109.8125 -42.25 108.3125 C-39.49158426 107.99665087 -37.04398546 108.1262343 -34.25 108.3125 C-34.17523438 107.71566406 -34.10046875 107.11882812 -34.0234375 106.50390625 C-32.57614874 96.95463826 -29.58421543 86.98093086 -25.25 78.3125 C-25.00277222 76.07984583 -24.80763853 73.84135103 -24.63671875 71.6015625 C-24.52505681 70.20697308 -24.41264064 68.81244389 -24.29956055 67.41796875 C-24.2117482 66.3204126 -24.2117482 66.3204126 -24.12216187 65.20068359 C-19.92352979 13.74298163 -19.92352979 13.74298163 -6.25 1.3125 C-3.97885524 0.17692762 -2.52706381 0.08165682 0 0 Z " fill="#020100" transform="translate(71.25,70.6875)"/>
<path d="M0 0 C1.22944336 -0.0071553 2.45888672 -0.01431061 3.72558594 -0.02168274 C5.09043859 -0.02452298 6.45529151 -0.02723471 7.82014465 -0.02983093 C9.25586613 -0.0360967 10.69158599 -0.0427436 12.12730408 -0.04974365 C16.84497449 -0.07077594 21.5626452 -0.08114638 26.28034973 -0.09111023 C27.90565317 -0.09515833 29.53095644 -0.09927526 31.15625954 -0.10346031 C38.79368279 -0.12251145 46.4310964 -0.13674172 54.06853884 -0.14507228 C62.87755118 -0.15483987 71.68631192 -0.18114708 80.49523562 -0.22157317 C87.30810576 -0.25176315 94.1209039 -0.26654395 100.93383962 -0.26985329 C105.00081853 -0.27220083 109.06752864 -0.28112211 113.13443565 -0.30631447 C116.96355025 -0.32965037 120.79222012 -0.33380654 124.62138748 -0.32355309 C126.02258219 -0.32305892 127.4237992 -0.32934414 128.82492638 -0.34310913 C139.08524356 -0.43822415 146.48444544 0.7253959 154.11238098 8.14717102 C160.29478987 16.62390162 160.31940639 23.36891032 160.36238098 33.70967102 C160.39331848 35.57655579 160.39331848 35.57655579 160.42488098 37.4811554 C160.43261536 39.26682922 160.43261536 39.26682922 160.44050598 41.08857727 C160.44985168 42.17856018 160.45919739 43.26854309 160.46882629 44.39155579 C160.11238098 47.14717102 160.11238098 47.14717102 158.84187317 49.02583313 C157.11238098 50.14717102 157.11238098 50.14717102 153.11238098 50.14717102 C153.11238098 57.07717102 153.11238098 64.00717102 153.11238098 71.14717102 C154.43238098 71.47717102 155.75238098 71.80717102 157.11238098 72.14717102 C158.83308411 73.27583313 158.83308411 73.27583313 160.11238098 75.14717102 C160.70878239 79.57753195 160.62724272 84.03047731 160.61335754 88.49604797 C160.61239466 90.67866469 160.65380097 92.85764898 160.69831848 95.03974915 C160.77968332 104.40401088 159.75957192 112.16649055 153.12214661 119.28022766 C145.25458751 126.81249829 138.14155572 127.58246632 127.61628723 127.44013977 C126.42760544 127.43589493 125.23892365 127.43165009 124.01422119 127.42727661 C120.23420642 127.41054353 116.45473343 127.37289992 112.67488098 127.33467102 C110.10522725 127.3196173 107.53556512 127.3059301 104.96589661 127.2936554 C98.68120793 127.2606575 92.39683318 127.21051106 86.11238098 127.14717102 C85.67430115 128.52824036 85.67430115 128.52824036 85.22737122 129.93721008 C83.95362583 133.60421345 82.2158839 136.59811974 80.17488098 139.89717102 C79.65377747 140.76148743 79.65377747 140.76148743 79.12214661 141.64326477 C77.30705909 144.57611805 76.02970426 146.20228883 73.11238098 148.14717102 C70.58894348 148.48310852 70.58894348 148.48310852 67.73738098 148.52217102 C66.80152161 148.5505304 65.86566223 148.57888977 64.90144348 148.60810852 C61.18968373 147.99468044 59.75213903 146.82531004 57.11238098 144.14717102 C55.47313805 141.70023604 54.12605063 139.14934581 52.79988098 136.52217102 C52.44087708 135.84154602 52.08187317 135.16092102 51.71199036 134.45967102 C49.11238098 129.44861447 49.11238098 129.44861447 49.11238098 127.14717102 C48.45807098 127.15827408 47.80376099 127.16937714 47.12962341 127.18081665 C40.28335807 127.29193925 33.43735135 127.36705718 26.59040833 127.42182922 C24.03952111 127.44688229 21.48870503 127.4809343 18.93806458 127.52436829 C15.25901171 127.58542246 11.58091277 127.6134745 7.90144348 127.63545227 C6.20708664 127.67416191 6.20708664 127.67416191 4.47850037 127.71365356 C-4.45504349 127.7167764 -10.92024512 125.51081411 -17.76261902 119.70967102 C-26.68545932 108.94977537 -26.19071387 98.02593309 -26.15324402 84.74092102 C-26.15459377 83.04898523 -26.15653689 81.35704983 -26.15904236 79.66511536 C-26.16197901 76.13158957 -26.15774316 72.5981654 -26.14836121 69.06465149 C-26.13696756 64.55592 -26.14353487 60.04742669 -26.15550613 55.53870392 C-26.16276427 52.04866267 -26.16041872 48.55867704 -26.15525055 45.06863403 C-26.15392497 43.40700247 -26.15552311 41.74536571 -26.16020966 40.08374023 C-26.21212642 16.50785129 -26.21212642 16.50785129 -17.88761902 7.14717102 C-12.14321076 2.47126191 -7.46801259 0.02980225 0 0 Z " fill="#F1EEF1" transform="translate(317.8876190185547,-0.1471710205078125)"/>
<path d="M0 0 C8.33572883 6.59546703 15.06460771 14.16005404 21 23 C21.61488281 23.91007812 22.22976562 24.82015625 22.86328125 25.7578125 C26.64751436 31.78237874 29.37366782 38.05271962 31.875 44.6875 C32.32286865 45.86324585 32.32286865 45.86324585 32.77978516 47.06274414 C34.70408783 52.40310483 35.55982275 57.33977199 36 63 C34.96069336 63.10022461 33.92138672 63.20044922 32.85058594 63.30371094 C28.98716089 63.68101401 25.12644676 64.08163084 21.26611328 64.48925781 C19.59651197 64.66227685 17.92624612 64.82900556 16.25537109 64.98925781 C13.85050389 65.22101777 11.44895211 65.47546586 9.046875 65.734375 C8.30193787 65.80122498 7.55700073 65.86807495 6.78948975 65.93695068 C3.41008977 66.32187673 1.25135326 66.81425121 -1.50683594 68.85253906 C-3.35247187 71.06025439 -3.35247187 71.06025439 -2.9375 74.625 C-2.3249155 78.25516924 -2.3249155 78.25516924 1 80 C7.81349805 80.96124039 14.94855392 79.58137632 21.72094727 78.71630859 C27.18911779 78.03699474 32.4844716 77.82490386 38 78 C38 80.64 38 83.28 38 86 C35.14559413 85.85803484 32.29153804 85.71154174 29.4375 85.5625 C28.63763672 85.52318359 27.83777344 85.48386719 27.01367188 85.44335938 C22.28684865 85.19254835 17.68819934 84.67602405 13 84 C10.75241374 83.86658164 8.50131939 83.78170872 6.25 83.75 C5.14140625 83.72421875 4.0328125 83.6984375 2.890625 83.671875 C0.01513451 83.76107782 0.01513451 83.76107782 -1.86328125 85.33203125 C-3.66591846 87.97713808 -3.44425609 89.89020738 -3 93 C-0.78599873 95.94502669 0.51558964 96.89251205 4.14453125 97.69775391 C5.35496094 97.78976074 6.56539062 97.88176758 7.8125 97.9765625 C8.46323486 98.0327475 9.11396973 98.0889325 9.78442383 98.14682007 C11.85530597 98.32329454 13.92700181 98.47562077 16 98.625 C18.07248559 98.78494078 20.1442614 98.95014114 22.21557617 99.12460327 C24.094637 99.28131769 25.97504635 99.42160554 27.85546875 99.56103516 C30.72773704 99.96199311 32.54707744 100.51105166 35 102 C31.94140319 108.5076528 28.85355019 114.49172463 24.3828125 120.1328125 C20.77992404 124.99772969 18.90538282 130.28385155 17 136 C-28.54 136 -74.08 136 -121 136 C-122.98 131.38 -124.96 126.76 -127 122 C-130.01896485 117.69381615 -130.01896485 117.69381615 -133.1640625 113.48046875 C-135.7850657 109.93932613 -139 105.53166242 -139 101 C-136.17830182 99.58915091 -133.56153998 99.61389169 -130.41796875 99.3515625 C-129.08003293 99.23227668 -127.74214361 99.11246834 -126.40429688 98.9921875 C-124.29816934 98.80689338 -122.19195443 98.62536409 -120.0847168 98.453125 C-118.04879449 98.28479977 -116.0147934 98.10059146 -113.98046875 97.9140625 C-112.76254639 97.8104541 -111.54462402 97.7068457 -110.28979492 97.60009766 C-106.84153539 96.97109417 -104.77380687 96.12183963 -102 94 C-100.83551119 91.09648876 -100.83551119 91.09648876 -101 88 C-102.10409141 85.74819489 -102.10409141 85.74819489 -104 84 C-111.63514994 82.4358547 -120.53454959 84.37374843 -128.23632812 85.28759766 C-132.86492599 85.83004158 -137.3392518 86.09956204 -142 86 C-142 83.36 -142 80.72 -142 78 C-134.02413224 77.71849878 -126.30872553 78.28816278 -118.40869141 79.28857422 C-110.51221758 80.63521905 -110.51221758 80.63521905 -103.0625 78.9375 C-101.3859371 75.88023824 -101.63471023 73.4093712 -102 70 C-102.95686207 68.19432808 -102.95686207 68.19432808 -105 67 C-107.76735095 66.46269169 -110.37374534 66.09268254 -113.16796875 65.83203125 C-114.36018791 65.70522224 -114.36018791 65.70522224 -115.57649231 65.57585144 C-118.11238721 65.30899794 -120.64970279 65.06054092 -123.1875 64.8125 C-124.90832853 64.63467296 -126.62903401 64.45565073 -128.34960938 64.27539062 C-132.56510431 63.83638513 -136.78196594 63.41386752 -141 63 C-134.96011384 35.24812995 -121.74391423 10.88894019 -97.3515625 -4.96484375 C-92.07945641 -8.16620421 -86.73512652 -10.74029147 -81 -13 C-80.01644531 -13.41378906 -79.03289062 -13.82757813 -78.01953125 -14.25390625 C-52.31886564 -23.41675225 -21.2442143 -16.20588624 0 0 Z " fill="#FBBF64" transform="translate(193,119)"/>
<path d="M0 0 C2.19949677 1.66674669 4.29466167 3.40735233 6.3828125 5.2109375 C7.10597656 5.79101562 7.82914063 6.37109375 8.57421875 6.96875 C26.13237399 21.56492079 39.14234989 45.66982477 42.3828125 68.2109375 C42.3828125 70.8509375 42.3828125 73.4909375 42.3828125 76.2109375 C22.9128125 76.2109375 3.4428125 76.2109375 -16.6171875 76.2109375 C-17.6071875 71.7559375 -17.6071875 71.7559375 -18.6171875 67.2109375 C-22.49498116 59.74259416 -28.37498976 56.31837919 -36.15795898 53.82836914 C-40.13320765 52.83031455 -43.97217442 52.72105495 -48.0546875 52.7734375 C-48.88581055 52.78101074 -49.71693359 52.78858398 -50.57324219 52.79638672 C-59.61012356 53.0388569 -66.54903788 55.38651586 -73.21484375 61.64453125 C-77.32306123 66.23337585 -77.74100231 70.07764117 -78.6171875 76.2109375 C-98.0871875 76.2109375 -117.5571875 76.2109375 -137.6171875 76.2109375 C-135.61586292 50.19371797 -124.1316614 24.43088258 -104.13183594 6.90966797 C-73.29539581 -18.92036306 -33.52769177 -22.9189296 0 0 Z " fill="#FCE6C5" transform="translate(402.6171875,178.7890625)"/>
<path d="M0 0 C11.26225632 9.79898507 17.3015607 21.54073763 18.67578125 36.328125 C19.37105436 47.39332259 17.91194292 55.63819722 10.67578125 64.328125 C7.29819419 67.36682372 4.06237796 69.24706998 -0.13671875 70.953125 C-1.11253906 71.35789062 -2.08835937 71.76265625 -3.09375 72.1796875 C-10.64174829 74.86301458 -17.22113787 75.63637998 -25.18359375 75.62890625 C-26.72203949 75.63533394 -26.72203949 75.63533394 -28.29156494 75.64189148 C-30.45315822 75.64761058 -32.61477073 75.64815298 -34.77636719 75.64379883 C-38.05047176 75.64064785 -41.32366368 75.66409814 -44.59765625 75.68945312 C-74.89134307 75.78211736 -74.89134307 75.78211736 -86.39453125 65.47265625 C-94.31776249 56.90296891 -95.82469759 47.73899438 -95.6015625 36.31640625 C-94.66392639 22.83293493 -88.03124926 10.59129527 -78.32421875 1.328125 C-56.01932285 -17.29161419 -23.03196269 -17.59159809 0 0 Z " fill="#040302" transform="translate(294.32421875,376.671875)"/>
<path d="M0 0 C1.22944336 -0.0071553 2.45888672 -0.01431061 3.72558594 -0.02168274 C5.09043859 -0.02452298 6.45529151 -0.02723471 7.82014465 -0.02983093 C9.25586613 -0.0360967 10.69158599 -0.0427436 12.12730408 -0.04974365 C16.84497449 -0.07077594 21.5626452 -0.08114638 26.28034973 -0.09111023 C27.90565317 -0.09515833 29.53095644 -0.09927526 31.15625954 -0.10346031 C38.79368279 -0.12251145 46.4310964 -0.13674172 54.06853884 -0.14507228 C62.87755118 -0.15483987 71.68631192 -0.18114708 80.49523562 -0.22157317 C87.30810576 -0.25176315 94.1209039 -0.26654395 100.93383962 -0.26985329 C105.00081853 -0.27220083 109.06752864 -0.28112211 113.13443565 -0.30631447 C116.96355025 -0.32965037 120.79222012 -0.33380654 124.62138748 -0.32355309 C126.02258219 -0.32305892 127.4237992 -0.32934414 128.82492638 -0.34310913 C139.08524356 -0.43822415 146.48444544 0.7253959 154.11238098 8.14717102 C160.29478987 16.62390162 160.31940639 23.36891032 160.36238098 33.70967102 C160.39331848 35.57655579 160.39331848 35.57655579 160.42488098 37.4811554 C160.43261536 39.26682922 160.43261536 39.26682922 160.44050598 41.08857727 C160.44985168 42.17856018 160.45919739 43.26854309 160.46882629 44.39155579 C160.11238098 47.14717102 160.11238098 47.14717102 158.83796692 48.99458313 C156.41405896 50.61360824 154.00137433 50.60895167 151.14753723 50.74092102 C147.72956231 49.74373832 146.84932513 48.23464663 145.11238098 45.14717102 C144.47717734 40.53637892 144.65374272 35.89516933 144.71199036 31.25068665 C144.68170224 24.93599525 144.68170224 24.93599525 141.76472473 19.51826477 C138.01676381 16.16773122 135.39718146 16.02103881 130.54624939 16.00672913 C129.38819794 16.00101898 128.23014648 15.99530884 127.03700256 15.98942566 C125.7652417 15.9883078 124.49348083 15.98718994 123.18318176 15.98603821 C121.83126185 15.98140925 120.47934324 15.97638449 119.12742615 15.97099304 C115.45383201 15.95787536 111.78025614 15.95142544 108.10664225 15.94698238 C105.81153397 15.94405093 103.51643068 15.939946 101.22132492 15.93547821 C94.04042017 15.92180557 86.85952683 15.91213751 79.67860997 15.90827632 C71.389184 15.90379456 63.09992284 15.88624031 54.81054699 15.85727572 C48.40281464 15.83566297 41.99512868 15.82557228 35.58736026 15.8242352 C31.7603 15.82318697 27.93339472 15.81727535 24.10637283 15.79941559 C20.50631226 15.78294159 16.90652327 15.78077597 13.30643845 15.7895546 C11.35721107 15.79069252 9.40799274 15.77697035 7.45881653 15.76280212 C6.29512543 15.76837128 5.13143433 15.77394043 3.93247986 15.77967834 C2.92332582 15.77821178 1.91417179 15.77674522 0.87443733 15.77523422 C-2.36411733 16.21133599 -4.24478351 17.2595694 -6.88761902 19.14717102 C-9.5406968 22.63951034 -9.17663385 26.65953457 -9.16227722 30.86567688 C-9.16738815 31.63851517 -9.17249908 32.41135345 -9.17776489 33.20761108 C-9.19165073 35.75915803 -9.19070492 38.31043456 -9.18840027 40.86201477 C-9.19228772 42.63794047 -9.19662249 44.41386525 -9.2013855 46.18978882 C-9.20884551 49.91120926 -9.20855799 53.63253482 -9.20329285 57.35395813 C-9.19749807 62.12000588 -9.21443038 66.88566502 -9.23763752 71.65164852 C-9.25237789 75.31911485 -9.25324616 78.98648765 -9.25012779 82.65397835 C-9.25064084 84.41102938 -9.25587546 86.16808567 -9.26593971 87.92510796 C-9.27829299 90.3834182 -9.27151949 92.84097226 -9.25993347 95.29927063 C-9.26757721 96.02306915 -9.27522095 96.74686768 -9.28309631 97.49259949 C-9.23732895 101.89181876 -8.68527155 104.7119174 -5.88761902 108.14717102 C-2.34358556 110.8545602 0.2159757 111.5205499 4.63362122 111.5160675 C5.71501877 111.5229509 6.79641632 111.52983429 7.9105835 111.53692627 C9.0690126 111.53076797 10.22744171 111.52460968 11.42097473 111.51826477 C13.88386676 111.53564498 16.34675736 111.55322938 18.80964661 111.57099915 C22.68508017 111.58107798 26.56042117 111.58466639 30.43586731 111.58296204 C34.18118344 111.5865315 37.9257856 111.61387182 41.67097473 111.64326477 C42.82737961 111.63508224 43.98378448 111.62689972 45.17523193 111.61846924 C51.44380772 111.67647361 55.38856954 111.85481417 60.11238098 116.14717102 C61.97566223 118.65498352 61.97566223 118.65498352 63.42488098 121.27217102 C63.91601379 122.14099915 64.40714661 123.00982727 64.91316223 123.90498352 C65.6643593 125.30950181 66.40006523 126.72253952 67.11238098 128.14717102 C67.41531067 127.6392804 67.71824036 127.13138977 68.03034973 126.60810852 C71.40307526 121.06646104 74.62958401 115.802369 80.11238098 112.14717102 C82.55874634 111.89561462 82.55874634 111.89561462 85.49836731 111.89179993 C86.59993668 111.884841 87.70150604 111.87788208 88.8364563 111.87071228 C90.62239449 111.87220779 90.62239449 111.87220779 92.44441223 111.87373352 C94.95939062 111.85344235 97.47436455 111.83259152 99.98933411 111.81123352 C103.95918031 111.78863431 107.92885037 111.77216517 111.89875793 111.76631165 C115.72680113 111.75679093 119.55404744 111.72301258 123.38191223 111.68623352 C124.566465 111.69127899 125.75101776 111.69632446 126.97146606 111.70152283 C135.35270222 111.60316174 135.35270222 111.60316174 142.11238098 107.14717102 C144.45642834 103.92215359 144.37648355 100.90614495 144.42097473 96.99092102 C144.44611145 95.80369446 144.47124817 94.6164679 144.49714661 93.39326477 C144.53230213 90.89592086 144.56355235 88.39851892 144.59089661 85.90107727 C144.61732239 84.71385071 144.64374817 83.52662415 144.67097473 82.30342102 C144.68442932 81.21867493 144.69788391 80.13392883 144.71174622 79.01631165 C145.15702882 75.82742613 145.90603186 74.45168542 148.11238098 72.14717102 C150.01472473 71.39717102 150.01472473 71.39717102 152.04988098 71.14717102 C152.71890442 71.04404602 153.38792786 70.94092102 154.07722473 70.83467102 C157.18667263 71.31212943 158.18777336 72.70595301 160.11238098 75.14717102 C160.64582825 78.38008118 160.64582825 78.38008118 160.67878723 82.18623352 C160.68498581 82.86713043 160.69118439 83.54802734 160.6975708 84.2495575 C160.70466187 85.69018632 160.70150714 87.13089722 160.688797 88.57148743 C160.67504998 90.7454459 160.70885313 92.91499036 160.74714661 95.08857727 C160.79993679 104.42018086 159.73107349 112.19586012 153.12239075 119.2804718 C145.25367286 126.81185701 138.14220744 127.58247514 127.61628723 127.44013977 C126.42760544 127.43589493 125.23892365 127.43165009 124.01422119 127.42727661 C120.23420642 127.41054353 116.45473343 127.37289992 112.67488098 127.33467102 C110.10522725 127.3196173 107.53556512 127.3059301 104.96589661 127.2936554 C98.68120793 127.2606575 92.39683318 127.21051106 86.11238098 127.14717102 C85.67430115 128.52824036 85.67430115 128.52824036 85.22737122 129.93721008 C83.95362583 133.60421345 82.2158839 136.59811974 80.17488098 139.89717102 C79.65377747 140.76148743 79.65377747 140.76148743 79.12214661 141.64326477 C77.30705909 144.57611805 76.02970426 146.20228883 73.11238098 148.14717102 C70.58894348 148.48310852 70.58894348 148.48310852 67.73738098 148.52217102 C66.80152161 148.5505304 65.86566223 148.57888977 64.90144348 148.60810852 C61.18968373 147.99468044 59.75213903 146.82531004 57.11238098 144.14717102 C55.47313805 141.70023604 54.12605063 139.14934581 52.79988098 136.52217102 C52.44087708 135.84154602 52.08187317 135.16092102 51.71199036 134.45967102 C49.11238098 129.44861447 49.11238098 129.44861447 49.11238098 127.14717102 C48.45807098 127.15827408 47.80376099 127.16937714 47.12962341 127.18081665 C40.28335807 127.29193925 33.43735135 127.36705718 26.59040833 127.42182922 C24.03952111 127.44688229 21.48870503 127.4809343 18.93806458 127.52436829 C15.25901171 127.58542246 11.58091277 127.6134745 7.90144348 127.63545227 C6.20708664 127.67416191 6.20708664 127.67416191 4.47850037 127.71365356 C-4.45504349 127.7167764 -10.92024512 125.51081411 -17.76261902 119.70967102 C-26.68545932 108.94977537 -26.19071387 98.02593309 -26.15324402 84.74092102 C-26.15459377 83.04898523 -26.15653689 81.35704983 -26.15904236 79.66511536 C-26.16197901 76.13158957 -26.15774316 72.5981654 -26.14836121 69.06465149 C-26.13696756 64.55592 -26.14353487 60.04742669 -26.15550613 55.53870392 C-26.16276427 52.04866267 -26.16041872 48.55867704 -26.15525055 45.06863403 C-26.15392497 43.40700247 -26.15552311 41.74536571 -26.16020966 40.08374023 C-26.21212642 16.50785129 -26.21212642 16.50785129 -17.88761902 7.14717102 C-12.14321076 2.47126191 -7.46801259 0.02980225 0 0 Z " fill="#000000" transform="translate(317.8876190185547,-0.1471710205078125)"/>
<path d="M0 0 C4.99805376 1.3387644 9.54224493 0.70559918 14.515625 -0.5859375 C22.35259732 -2.46804503 29.36360271 -0.43061274 36.5 2.9375 C42.91504413 7.05281133 47.10554145 13.75412434 49.5 20.9375 C50.86825222 35.82597135 48.86664291 46.34283895 39.6875 58.33984375 C31.73990855 67.77760859 19.46539926 77.49663226 7 79.5 C-5.17605906 79.1331131 -17.3830259 67.48825277 -25.3125 59.125 C-32.94866298 49.94691949 -37.04966848 38.86934101 -36.8125 26.99609375 C-36.00129426 19.05641755 -32.16685415 11.54432392 -26.5 5.9375 C-18.17523246 -0.10849415 -10.15019156 -3.08130815 0 0 Z " fill="#040303" transform="translate(378.5,25.0625)"/>
<path d="M0 0 C7.26 0 14.52 0 22 0 C22 74.91 22 149.82 22 227 C14.74 227 7.48 227 0 227 C0 152.09 0 77.18 0 0 Z " fill="#DC8758" transform="translate(431,270)"/>
<path d="M0 0 C8.53622944 7.09854869 14.58400151 15.2886957 16.0703125 26.56640625 C16.29426964 33.00890665 16.04551632 39.15854183 11.625 44.1875 C3.97984188 49.81988419 -5.48808495 50.49743907 -14.6484375 50.48828125 C-16.09411606 50.49470894 -16.09411606 50.49470894 -17.56900024 50.50126648 C-19.59775002 50.50698176 -21.62652029 50.50753084 -23.65527344 50.50317383 C-26.734085 50.50001632 -29.81193206 50.52350022 -32.890625 50.54882812 C-34.87239464 50.55110188 -36.85416682 50.55180426 -38.8359375 50.55078125 C-39.74354828 50.559991 -40.65115906 50.56920074 -41.58627319 50.57868958 C-50.08386432 50.51815399 -58.81861718 48.94432394 -65.375 43.1875 C-69.30617479 37.02865949 -69.21631004 30.31004714 -68.375 23.1875 C-65.57484316 12.25741918 -58.89053843 3.79935007 -49.4375 -2.25 C-33.48799225 -10.85883216 -15.04159761 -10.49748208 0 0 Z " fill="#FDE8D6" transform="translate(282.375,386.8125)"/>
<path d="M0 0 C4.26706406 4.07424977 8.51887211 8.44748589 9.3359375 14.48046875 C9.45964782 23.05359424 7.47558774 30.07256084 1.6171875 36.5859375 C-3.21121483 40.80787384 -8.63039153 44.03318443 -15 45 C-14.8453125 46.918125 -14.8453125 46.918125 -14.6875 48.875 C-14.62949219 49.59429687 -14.57148438 50.31359375 -14.51171875 51.0546875 C-14.12606964 53.39519216 -14.12606964 53.39519216 -11 55 C-8.85209071 55.31600189 -8.85209071 55.31600189 -6.5625 55.25 C-5.80066406 55.25515625 -5.03882813 55.2603125 -4.25390625 55.265625 C-1.76779808 54.97263478 -0.2032434 54.14835716 2 53 C5.93006023 52.57892212 8.10803184 52.40535456 11.4375 54.625 C13.49791771 57.75683492 13.6767545 59.31544773 13 63 C9.8235219 67.13904722 6.10672099 69.87390255 1 71 C-11.54693298 72.07882934 -11.54693298 72.07882934 -17 69.4375 C-20.633824 67.69629267 -22.17011579 67.94067032 -26 69 C-26.86625 69.350625 -27.7325 69.70125 -28.625 70.0625 C-36.68401248 72.30111458 -44.5351538 71.66694199 -52 68 C-55 66.25 -55 66.25 -57 64 C-57.64269755 60.00099302 -57.63913895 57.95870843 -55.375 54.5625 C-52.31889507 52.55190465 -50.59974487 52.55003189 -47 53 C-46.38125 53.33 -45.7625 53.66 -45.125 54 C-40.53722887 56.15895112 -34.79324887 55.19831222 -30 54 C-29.61840676 50.69775084 -29.70748884 48.08879636 -31 45 C-33.85045956 43.1101185 -36.77114681 41.87459257 -39.91015625 40.5234375 C-45.67586529 37.68067325 -48.67316069 33.18286467 -51.9375 27.8125 C-53.73231204 21.37229208 -54.41684056 14.73934783 -52.00390625 8.37109375 C-47.73676584 1.22695783 -41.21856991 -2.21522042 -33.75 -5.375 C-22.22201697 -7.29633051 -9.91108408 -6.76565021 0 0 Z " fill="#030201" transform="translate(163,174)"/>
<path d="M0 0 C2.72977064 -0.08126109 5.4571017 -0.14061663 8.1875 -0.1875 C8.95642578 -0.21263672 9.72535156 -0.23777344 10.51757812 -0.26367188 C16.6350682 -0.34243784 19.63176311 0.92423834 24.27734375 4.99609375 C26.88345733 9.54054123 26.5591443 13.91149934 26.5625 19.0625 C26.57144944 21.03265611 26.59309078 23.00280538 26.62890625 24.97265625 C26.62963135 25.84156494 26.63035645 26.71047363 26.63110352 27.60571289 C27.08503706 30.55192488 27.9129034 31.88693641 30 34 C31.98 34.495 31.98 34.495 34 35 C34 42.26 34 49.52 34 57 C32.02 57.66 30.04 58.32 28 59 C26.64836326 61.70327348 26.85549912 63.86700554 26.82421875 66.890625 C26.80037109 68.07527344 26.77652344 69.25992188 26.75195312 70.48046875 C26.70925444 72.97769508 26.67785827 75.47514225 26.65820312 77.97265625 C26.38976179 89.49690529 26.38976179 89.49690529 22 94 C18.38723502 96.54873491 15.97393934 97.37212844 11.56713867 97.34057617 C10.50641647 97.34034958 9.44569427 97.34012299 8.35282898 97.33988953 C7.2193251 97.32440567 6.08582123 97.30892181 4.91796875 97.29296875 C3.74865311 97.28872391 2.57933746 97.28447906 1.37458801 97.28010559 C-2.354677 97.26333285 -6.08339872 97.22568192 -9.8125 97.1875 C-12.34309115 97.17245141 -14.87369077 97.15876331 -17.40429688 97.14648438 C-23.60304949 97.11343383 -29.80148592 97.0632477 -36 97 C-36 96.67 -36 96.34 -36 96 C-24.12 95.67 -12.24 95.34 0 95 C2.45469109 88.45415708 3.37641401 85.69110819 3.38818359 79.18212891 C3.39344055 78.44599869 3.39869751 77.70986847 3.40411377 76.95143127 C3.41720564 74.54291911 3.40861284 72.13508019 3.3984375 69.7265625 C3.40046178 68.03559239 3.40337617 66.34462314 3.40713501 64.65365601 C3.4115441 61.11830289 3.40517476 57.58317802 3.39111328 54.04785156 C3.37404849 49.54020757 3.38385429 45.03310064 3.40183067 40.52547646 C3.41272941 37.03537025 3.40919396 33.54538898 3.4014473 30.05527878 C3.39946071 28.39447337 3.40184974 26.73365623 3.40888596 25.07286453 C3.43774456 16.34584286 3.36073181 8.22017914 0 0 Z " fill="#DFDCDF" transform="translate(437,15)"/>
<path d="M0 0 C3.77989178 1.80777433 5.85859589 1.39735741 9.875 0.375 C10.679375 -0.140625 11.48375 -0.65625 12.3125 -1.1875 C15.82088858 -3.15562043 18.98989551 -3.31195364 22.875 -2.625 C28.16612204 0.12231337 31.96875244 3.65625733 33.875 9.375 C34.54160483 16.9742951 32.7884935 23.28135724 28.33203125 29.54296875 C22.66365121 36.2490385 15.15752546 44.0341494 6.875 47.375 C-1.13519332 46.5029225 -9.86330608 39.13350623 -15.125 33.375 C-20.72128805 25.44070716 -24.34081892 18.22467222 -23.125 8.375 C-21.82541611 4.26613597 -19.4875342 1.30223268 -15.9375 -1.125 C-10.54139474 -3.82305263 -5.16940541 -2.68809081 0 0 Z " fill="#FB626D" transform="translate(380.125,41.625)"/>
<path d="M0 0 C17.07944275 0.89891804 33.15091972 9.05801884 46 20 C46.72574219 20.58136719 47.45148438 21.16273438 48.19921875 21.76171875 C65.74935959 36.37152186 78.75868749 60.45297527 82 83 C82 85.64 82 88.28 82 91 C74.74 91 67.48 91 60 91 C59.72027344 89.46472656 59.44054687 87.92945313 59.15234375 86.34765625 C53.28814141 55.48632405 39.62816977 26.87136748 12.93383789 8.62890625 C8.74202259 5.86477905 4.5610328 3.12696542 0 1 C0 0.67 0 0.34 0 0 Z " fill="#FBD9A4" transform="translate(363,164)"/>
<path d="M0 0 C5.68693781 2.96346851 8.83340167 7.26609295 11.9375 12.75 C14.23217098 20.27142153 13.65133121 26.92142618 10.4609375 34.10546875 C7.50289006 39.03830204 3.35667721 42.238271 -1.6875 44.875 C-10.53206545 46.40579017 -18.08450022 46.21081688 -25.7734375 41.25390625 C-31.7131039 36.8304838 -34.16567673 31.12669045 -35.3515625 23.921875 C-35.75305293 17.20219314 -33.72412788 11.94187136 -29.9375 6.4375 C-22.12744173 -2.17313372 -10.90146137 -4.31246265 0 0 Z " fill="#030202" transform="translate(266.9375,308.5625)"/>
<path d="M0 0 C5.69686747 3.36281109 11.0323356 8.90860234 13.44921875 15.125 C14.46503712 23.42736172 14.42711502 31.02767432 9.390625 38.02734375 C3.69760414 44.17855542 -1.65838834 46.48544392 -10.05078125 46.875 C-17.159605 46.55905228 -22.26695925 44.96086791 -27.55078125 40.125 C-33.76343159 32.47089947 -34.48471158 24.79708302 -33.55078125 15.125 C-31.21073955 8.44066563 -25.60332326 3.73983309 -19.7890625 -0.01171875 C-14.07159313 -2.21688582 -5.7883517 -1.98559078 0 0 Z " fill="#040302" transform="translate(215.55078125,326.875)"/>
<path d="M0 0 C5.71665598 3.31544017 11.04938415 8.90994182 13.46484375 15.11328125 C14.31006646 23.09375611 14.37548945 30.49598491 9.46484375 37.11328125 C4.99438005 42.57718133 0.16743362 45.59694869 -6.8125 46.5703125 C-15.1388144 46.95905465 -21.23750691 45.76685281 -27.53515625 40.11328125 C-33.39486282 33.03280248 -34.22000736 26.10350855 -33.53515625 17.11328125 C-32.327106 11.46303047 -30.04146025 7.81846454 -25.53515625 4.11328125 C-25.01566406 3.64664062 -24.49617188 3.18 -23.9609375 2.69921875 C-17.29187445 -2.47979334 -7.8256741 -2.73717723 0 0 Z " fill="#030202" transform="translate(316.53515625,326.88671875)"/>
<path d="M0 0 C22.48270272 2.46969083 41.94823058 13.80150915 56.5 30.9453125 C58.78268943 33.89892754 60.91935688 36.90116983 63 40 C63.61488281 40.91007812 64.22976562 41.82015625 64.86328125 42.7578125 C68.64751436 48.78237874 71.37366782 55.05271962 73.875 61.6875 C74.1735791 62.47133057 74.4721582 63.25516113 74.77978516 64.06274414 C75.05612793 64.82965576 75.3324707 65.59656738 75.6171875 66.38671875 C75.86065918 67.05920654 76.10413086 67.73169434 76.35498047 68.42456055 C77.30180404 72.20504573 77.56962094 76.12658846 78 80 C67.11 80.99 67.11 80.99 56 82 C55.773125 80.494375 55.54625 78.98875 55.3125 77.4375 C51.79760551 58.58707269 43.19779986 41.70100052 31 27 C30.26910156 26.11699219 29.53820312 25.23398438 28.78515625 24.32421875 C21.09380572 15.41631015 12.6024702 9.03912114 2.2734375 3.4453125 C1.52320313 2.96835938 0.77296875 2.49140625 0 2 C0 1.34 0 0.68 0 0 Z " fill="#FAB240" transform="translate(151,102)"/>
<path d="M0 0 C5.29112204 2.74731337 9.09375244 6.28125733 11 12 C11.66660483 19.5992951 9.9134935 25.90635724 5.45703125 32.16796875 C-0.21134879 38.8740385 -7.71747454 46.6591494 -16 50 C-18.97591686 49.56138539 -21.35900633 48.41481804 -24 47 C-22.69543934 44.14239092 -21.26745037 42.03676049 -19.125 39.75 C-12.57143415 32.26934434 -9.61432487 23.49668198 -9.796875 13.578125 C-10.10930931 9.61261256 -10.96299031 5.83323224 -12 2 C-8.0393372 -0.20036822 -4.47224783 -0.69932833 0 0 Z " fill="#F84553" transform="translate(403,39)"/>
<path d="M0 0 C7.55137932 -0.30071865 14.58856436 0.57374434 22 2 C19.70845206 7.70191047 16.99843417 12.68898448 13.515625 17.74609375 C9.34039093 23.95514029 6.64759489 29.93974697 4 37 C-3.26 37 -10.52 37 -18 37 C-16.52281994 29.61409968 -12.96227358 24.24191757 -8.5 18.25 C-4.44832265 12.62907343 -2.2185002 6.52259506 0 0 Z " fill="#FAB240" transform="translate(206,218)"/>
<path d="M0 0 C2.77018891 3.11646253 3.14541369 5.10570992 3 9.25 C1 12.25 1 12.25 -2 14.25 C-5.57209272 14.18621263 -8.17137135 13.6111971 -11.4375 12.1875 C-14.96783567 10.89591378 -18.30940029 10.74871776 -22 11.25 C-24.02323613 12.20211112 -26.02699884 13.19773272 -28 14.25 C-30.5625 14.75 -30.5625 14.75 -33 14.25 C-35.875 12.1875 -35.875 12.1875 -38 9.25 C-38.375 5.8125 -38.375 5.8125 -37 2.25 C-26.50004247 -7.32853268 -11.85953807 -6.91806388 0 0 Z " fill="#070605" transform="translate(339,208.75)"/>
<path d="M0 0 C2.75 2.3125 2.75 2.3125 4 5 C4 8.80284671 3.7968187 11.01930006 1.375 14 C-2.06605643 15.44886587 -4.40404418 14.82013028 -8 14 C-9.2065625 13.4740625 -9.2065625 13.4740625 -10.4375 12.9375 C-13.96783567 11.64591378 -17.30940029 11.49871776 -21 12 C-23.02323613 12.95211112 -25.02699884 13.94773272 -27 15 C-30.31878206 15.55313034 -31.48184676 15.3360994 -34.3125 13.5 C-36.23748545 10.6481697 -36.75797878 8.4141824 -36.578125 4.96484375 C-35.64713534 1.800737 -33.74183825 0.60182328 -30.98046875 -1.03515625 C-20.81429713 -5.98790653 -9.92241704 -5.085862 0 0 Z " fill="#060505" transform="translate(405,208)"/>
<path d="M0 0 C3.76616114 3.10419084 3.76616114 3.10419084 4.53125 6.03515625 C4.44780178 11.44885934 4.44780178 11.44885934 2.375 14 C-0.71995246 15.30313788 -2.65356315 15.39369845 -6 15 C-7.093125 14.484375 -8.18625 13.96875 -9.3125 13.4375 C-13.84990367 11.66868162 -17.31700296 11.79294844 -22 13 C-22.99 13.66 -23.98 14.32 -25 15 C-28.4375 15.4375 -28.4375 15.4375 -32 15 C-34.5 12.9375 -34.5 12.9375 -36 10 C-36.25 6.5 -36.25 6.5 -35 3 C-24.95738835 -6.0454729 -11.55951202 -5.98287843 0 0 Z " fill="#060402" transform="translate(190,145)"/>
<path d="M0 0 C3.13936539 2.23818286 3.99348208 3.696051 4.66015625 7.49609375 C4.03515625 10.93359375 4.03515625 10.93359375 2.41015625 13.37109375 C-0.71619499 15.42790377 -2.26717989 15.44111624 -5.96484375 14.93359375 C-7.05796875 14.41796875 -8.15109375 13.90234375 -9.27734375 13.37109375 C-13.81474742 11.60227537 -17.28184671 11.72654219 -21.96484375 12.93359375 C-22.95484375 13.59359375 -23.94484375 14.25359375 -24.96484375 14.93359375 C-28.40234375 15.37109375 -28.40234375 15.37109375 -31.96484375 14.93359375 C-34.46484375 12.87109375 -34.46484375 12.87109375 -35.96484375 9.93359375 C-36.21484375 6.43359375 -36.21484375 6.43359375 -34.96484375 2.93359375 C-25.07635954 -5.97305515 -11.3557039 -6.16323492 0 0 Z " fill="#050402" transform="translate(122.96484375,145.06640625)"/>
<path d="M0 0 C3.3125 2.125 3.3125 2.125 5.3125 4.125 C5.88661188 7.21085135 5.84258333 9.23461093 4.21484375 11.96875 C-0.00123928 17.27539317 -4.37973838 19.7115298 -11.1875 20.5625 C-16.80738594 19.86001426 -20.30930678 17.20996062 -24.625 13.8125 C-26.6875 11.125 -26.6875 11.125 -27.375 7.625 C-26.67068244 4.03938331 -26.46045413 3.48641782 -23.875 1.25 C-17.07246742 -3.28502172 -7.37501149 -3.64683473 0 0 Z " fill="#776A76" transform="translate(151.6875,184.875)"/>
<path d="M0 0 C2.27140193 2.7638202 3.51081819 5.02156313 4.38671875 8.484375 C4.60263672 9.33773437 4.81855469 10.19109375 5.04101562 11.0703125 C5.25435547 11.95460937 5.46769531 12.83890625 5.6875 13.75 C5.91244141 14.61882812 6.13738281 15.48765625 6.36914062 16.3828125 C7.69111304 21.73499263 8.23704877 26.49021789 8 32 C3.23987602 27.94883066 -1.44420436 23.82752618 -6.08203125 19.63671875 C-7.90761942 17.94601705 -7.90761942 17.94601705 -10 17 C-8.51364884 12.78345644 -6.38750841 9.37521395 -3.875 5.6875 C-3.15054687 4.61886719 -2.42609375 3.55023438 -1.6796875 2.44921875 C-0.84824219 1.23685547 -0.84824219 1.23685547 0 0 Z " fill="#F2D09E" transform="translate(423,152)"/>
<path d="M0 0 C3.24289073 3.54864899 4.11887021 7.49224079 5.125 12.0625 C5.29676758 12.8145874 5.46853516 13.5666748 5.64550781 14.34155273 C6.93505139 20.19645619 7.74099536 26.00404262 8 32 C3.64261331 28.35402338 -0.44178721 24.59867609 -4.421875 20.546875 C-6.16169623 18.84150567 -7.98531012 17.36998912 -10 16 C-8.55797524 11.84848662 -6.4989562 8.70021555 -3.875 5.1875 C-3.15054688 4.21167969 -2.42609375 3.23585938 -1.6796875 2.23046875 C-0.84824219 1.12638672 -0.84824219 1.12638672 0 0 Z " fill="#F2AC3E" transform="translate(209,90)"/>
<path d="M0 0 C2.95373112 2.81650025 5.39708934 5.72920989 7.75 9.0625 C8.36359375 9.91972656 8.9771875 10.77695313 9.609375 11.66015625 C11 14 11 14 11 17 C8.83984375 19.05078125 8.83984375 19.05078125 5.9375 21.3125 C4.93976563 22.10140625 3.94203125 22.8903125 2.9140625 23.703125 C1.95242188 24.46109375 0.99078125 25.2190625 0 26 C-2.35458527 27.9768873 -4.67661728 29.98640164 -7 32 C-6.71821291 25.34982461 -5.68231804 19.06281429 -4.0625 12.625 C-3.89266602 11.94759766 -3.72283203 11.27019531 -3.54785156 10.57226562 C-2.60032866 6.93016808 -1.48820803 3.45691371 0 0 Z " fill="#F3D29F" transform="translate(286,152)"/>
<path d="M0 0 C2.95273622 2.82179448 5.43419362 5.742885 7.8125 9.0625 C8.43769531 9.91972656 9.06289062 10.77695313 9.70703125 11.66015625 C10.13371094 12.43230469 10.56039062 13.20445313 11 14 C9.72305538 17.83083385 7.96189042 18.88438895 4.8125 21.375 C3.3275 22.56029297 3.3275 22.56029297 1.8125 23.76953125 C0.884375 24.50558594 -0.04375 25.24164063 -1 26 C-2.2331846 27.01597595 -3.46342259 28.03556968 -4.6875 29.0625 C-5.450625 29.701875 -6.21375 30.34125 -7 31 C-7.28729458 24.50563032 -6.27181428 18.95557122 -4.625 12.6875 C-4.40328125 11.79482422 -4.1815625 10.90214844 -3.953125 9.98242188 C-2.96881483 6.13492713 -2.22849137 3.34273705 0 0 Z " fill="#F2AC3E" transform="translate(72,90)"/>
<path d="M0 0 C3.62771552 0.88320639 4.97802955 2.36925437 6.94140625 5.47265625 C7.34986239 9.63745015 6.93254491 13.16435322 4.37890625 16.53515625 C0.00388576 18.21785644 -4.12107326 18.21785644 -8.49609375 16.53515625 C-11.04973241 13.16435322 -11.46704989 9.63745015 -11.05859375 5.47265625 C-8.16483002 0.89864261 -5.23176088 -0.38717016 0 0 Z " fill="#F7E2D1" transform="translate(258.05859375,321.52734375)"/>
<path d="M0 0 C2.5625 1.4375 2.5625 1.4375 4 4 C4.74831272 8.29295189 4.7145847 11.72617511 2.5625 15.5625 C-1.27382489 17.7145847 -4.70704811 17.74831272 -9 17 C-11.5625 15.5625 -11.5625 15.5625 -13 13 C-13.74831272 8.70704811 -13.7145847 5.27382489 -11.5625 1.4375 C-7.72617511 -0.7145847 -4.29295189 -0.74831272 0 0 Z " fill="#FAE5D4" transform="translate(311,341)"/>
<path d="M0 0 C3 1.4375 3 1.4375 5 4 C5.8878631 8.2821716 5.71120785 11.7321947 3.5625 15.5625 C-0.27382489 17.7145847 -3.70704811 17.74831272 -8 17 C-10.5625 15.5625 -10.5625 15.5625 -12 13 C-12.75280262 8.68129022 -12.7380068 5.26076161 -10.5 1.4375 C-6.99375069 -0.57859335 -3.88841529 -0.73148406 0 0 Z " fill="#FAE6D4" transform="translate(209,341)"/>
<path d="M0 0 C2.5625 2.3125 2.5625 2.3125 3.5625 7.3125 C-6.9975 7.3125 -17.5575 7.3125 -28.4375 7.3125 C-27.4375 2.3125 -27.4375 2.3125 -24.875 0 C-18.25158351 -3.37367368 -6.62341649 -3.37367368 0 0 Z " fill="#776A76" transform="translate(367.4375,247.6875)"/>
<path d="M0 0 C10.13270429 -0.35762486 19.96788765 0.75155935 30 2 C30 2.66 30 3.32 30 4 C31.98 4 33.96 4 36 4 C36 4.33 36 4.66 36 5 C31.99862104 5.43196052 27.99675135 5.85902396 23.99438477 6.28173828 C22.63552063 6.42593111 21.27679278 6.57141485 19.91821289 6.71826172 C17.95496187 6.93023227 15.99115489 7.13703304 14.02734375 7.34375 C12.25991821 7.53227539 12.25991821 7.53227539 10.45678711 7.72460938 C6.95558925 8.00353806 3.51070246 8.04704459 0 8 C0 5.36 0 2.72 0 0 Z " fill="#EFB55F" transform="translate(51,197)"/>
<path d="M0 0 C0 2.64 0 5.28 0 8 C-2.85440587 7.85803484 -5.70846196 7.71154174 -8.5625 7.5625 C-9.36236328 7.52318359 -10.16222656 7.48386719 -10.98632812 7.44335938 C-15.71371506 7.19251844 -20.32476901 6.74678186 -25 6 C-24.01 5.67 -23.02 5.34 -22 5 C-22 4.01 -22 3.02 -22 2 C-15.73074711 -1.13462645 -6.85123649 -0.13119389 0 0 Z " fill="#F2AC3E" transform="translate(231,197)"/>
<path d="M0 0 C0 0.99 0 1.98 0 3 C-4.62 3 -9.24 3 -14 3 C-14 2.67 -14 2.34 -14 2 C-4.58997722 -0.29612756 -4.58997722 -0.29612756 0 0 Z " fill="#F0B65E" transform="translate(209,199)"/>
</svg>
