<?xml version="1.0" encoding="UTF-8"?>
<svg version="1.1" xmlns="http://www.w3.org/2000/svg" width="512" height="512">
<path d="M0 0 C0.89332031 0.26296875 1.78664062 0.5259375 2.70703125 0.796875 C28.40428996 9.16526033 52.95936262 27.21042239 70 48 C70.33 48.66 70.66 49.32 71 50 C71.66 50 72.32 50 73 50 C74.34529989 48.44053802 75.62503002 46.82436545 76.875 45.1875 C98.56969996 18.20730785 133.38990622 -1.00812325 167.66015625 -5.3359375 C199.03354951 -8.6764139 231.5689296 -1.040361 257 18 C260.48525232 20.85944735 263.76420958 23.86350279 267 27 C267.61101562 27.53753906 268.22203125 28.07507813 268.8515625 28.62890625 C285.52456629 43.81732751 293.48286316 68.12288672 295 90 C297.19746216 137.73663379 280.07418631 182.22080833 253 221 C252.25234375 222.08539063 251.5046875 223.17078125 250.734375 224.2890625 C244.27748489 233.56679574 237.23847611 242.3239095 230 251 C229.50773926 251.59280762 229.01547852 252.18561523 228.50830078 252.79638672 C214.32988359 269.81720926 199.04610313 286.84079735 182.109375 301.171875 C179.81380693 303.16136733 177.5973084 305.2220151 175.37817383 307.29589844 C170.08082271 312.24366263 164.70458655 317.00535328 159.046875 321.54296875 C156.74471342 323.39945546 154.46817659 325.27495624 152.203125 327.17578125 C142.52207883 335.28055011 132.57477456 342.90734016 122.34228516 350.30175781 C120.08754249 351.9365285 117.84507363 353.58676174 115.60546875 355.2421875 C107.13011788 361.47847954 98.4874295 367.41747392 89.6875 373.1875 C88.70233398 373.83581787 87.71716797 374.48413574 86.70214844 375.15209961 C85.77305664 375.75546143 84.84396484 376.35882324 83.88671875 376.98046875 C83.06389404 377.51567139 82.24106934 378.05087402 81.39331055 378.60229492 C76.18388612 381.64462429 72.96781109 382.4680177 67 381 C64.36965468 379.75723853 61.98434635 378.23126782 59.5625 376.625 C58.87003174 376.17801758 58.17756348 375.73103516 57.46411133 375.27050781 C55.29832816 373.86305483 53.14745124 372.43524112 51 371 C50.34290039 370.56333008 49.68580078 370.12666016 49.00878906 369.67675781 C17.84036216 348.87163658 -11.27326544 325.16673776 -39 300 C-39.48597656 299.56059082 -39.97195312 299.12118164 -40.47265625 298.66845703 C-51.55338663 288.63274438 -62.69765914 278.37217772 -72.34765625 266.9296875 C-74.41558631 264.51465807 -76.58607434 262.20434275 -78.75 259.875 C-84.03944858 254.07263519 -88.86952371 247.96955937 -93.65185547 241.74658203 C-94.94550654 240.07059873 -96.25327307 238.40683587 -97.56640625 236.74609375 C-132.24980282 192.67603027 -156.30166407 138.51006175 -150.3125 81.5 C-146.51212365 56.00580867 -133.18365738 32.89725507 -112.53125 17.3046875 C-80.10306563 -5.92593964 -37.80355777 -11.76696107 0 0 Z " fill="#373838" transform="translate(184,68)"/>
<path d="M0 0 C11.95793596 9.28292499 21.79696269 19.60804626 31.09765625 31.515625 C33.79172566 34.78740356 35.64370511 35.58124414 39.8125 36.125 C44.96754109 35.50639507 48.41455941 32.63258665 51.578125 28.6484375 C52.45429824 27.47871133 53.32386023 26.30401026 54.1875 25.125 C72.14076632 1.62778935 97.41314503 -14.61257266 125.9375 -22.25 C126.90816406 -22.51425781 127.87882812 -22.77851562 128.87890625 -23.05078125 C156.17087329 -28.89054712 185.20857379 -22.16006019 208.9375 -8.25 C212.09291481 -6.08096685 215.02113242 -3.72781607 217.9375 -1.25 C218.93523437 -0.46882813 218.93523437 -0.46882813 219.953125 0.328125 C233.63733083 11.42633917 243.32983971 29.15561588 245.54296875 46.625 C247.39411544 66.55663705 246.74224647 86.90988082 241.375 106.25 C241.1174292 107.17868896 240.8598584 108.10737793 240.59448242 109.06420898 C233.3333268 134.23776892 221.05687997 157.45878802 205.9375 178.75 C205.3815918 179.53648926 204.82568359 180.32297852 204.25292969 181.13330078 C196.38281185 192.20523674 188.01891401 202.65329202 178.9375 212.75 C178.16019531 213.6265625 177.38289063 214.503125 176.58203125 215.40625 C174.38518686 217.87119744 172.16564415 220.31331034 169.9375 222.75 C169.18702393 223.57612793 169.18702393 223.57612793 168.42138672 224.41894531 C157.19233709 236.76523035 157.19233709 236.76523035 151.1484375 241.7890625 C147.99194949 244.58863314 145.08100848 247.61646659 142.125 250.625 C130.0250085 262.84986744 130.0250085 262.84986744 123.9375 266.75 C122.6175 266.75 121.2975 266.75 119.9375 266.75 C118.66064453 265.39233398 118.66064453 265.39233398 117.5703125 263.49609375 C117.15910156 262.80580078 116.74789063 262.11550781 116.32421875 261.40429688 C115.69966797 260.30698242 115.69966797 260.30698242 115.0625 259.1875 C112.099381 254.07915762 109.09796461 249.52140009 105.06982422 245.17993164 C103.9375 243.75 103.9375 243.75 103.9375 241.75 C105.58984375 240.55859375 105.58984375 240.55859375 107.875 239.1875 C121.14168301 230.54437057 129.09303372 218.02451926 132.9375 202.75 C133.30086594 200.42115463 133.64121515 198.0883265 133.9375 195.75 C134.48575439 195.68006836 135.03400879 195.61013672 135.59887695 195.53808594 C155.73752694 193.6187546 155.73752694 193.6187546 171.9375 182.75 C177.24624022 174.18523244 179.33079231 165.80558878 179.3125 155.8125 C179.31088867 154.89098145 179.30927734 153.96946289 179.30761719 153.02001953 C179.15649652 144.46095969 177.55146845 136.86419374 174.9375 128.75 C174.504375 127.33074219 174.504375 127.33074219 174.0625 125.8828125 C169.63364613 112.55670755 162.85009306 100.55218876 153.9375 89.75 C153.29039062 88.92757812 152.64328125 88.10515625 151.9765625 87.2578125 C141.89187224 75.03269819 128.1405972 70.38994668 112.9375 67.75 C111.25390123 67.67513281 109.56807234 67.64149963 107.8828125 67.64453125 C106.93792969 67.62970703 105.99304688 67.61488281 105.01953125 67.59960938 C103.05613728 67.57496969 101.09240217 67.56960458 99.12890625 67.58398438 C92.98865716 67.44614205 89.79567615 66.59767655 85.42675781 62.22680664 C83.42939777 60.24614584 81.30984101 59.19359254 78.75 58.0625 C77.93144531 57.68738281 77.11289062 57.31226563 76.26953125 56.92578125 C65.04369767 52.96449648 54.71658402 52.24888509 42.91186523 52.30395508 C40.14035357 52.31245292 37.37091813 52.28363786 34.59960938 52.25195312 C19.55208055 52.19193751 5.69330698 53.96803306 -7.0625 62.75 C-7.88621094 63.81734375 -7.88621094 63.81734375 -8.7265625 64.90625 C-12.50272171 67.88676362 -16.5804984 67.25435958 -21.25 67.25 C-39.77371775 67.68393552 -56.56239389 71.47684311 -70.3359375 84.734375 C-89.41883988 105.06929188 -99.72760076 132.93373141 -99.33984375 160.51953125 C-98.99782126 170.04341129 -96.08132913 179.0454468 -89.0625 185.75 C-80.7827741 191.88110282 -72.77669401 193.98234785 -62.625 194.375 C-61.38459961 194.43300781 -61.38459961 194.43300781 -60.11914062 194.4921875 C-58.10058927 194.58553092 -56.08157669 194.66880961 -54.0625 194.75 C-53.97613281 195.39324219 -53.88976562 196.03648437 -53.80078125 196.69921875 C-51.8996567 208.92571703 -47.63644591 218.98843379 -40.0625 228.75 C-39.464375 229.636875 -38.86625 230.52375 -38.25 231.4375 C-34.28729775 235.62664238 -29.22666901 239.1679155 -24.0625 241.75 C-25.80857802 245.69086882 -28.34569286 249.03898909 -30.875 252.5 C-34.47462055 257.47522222 -37.90086048 262.4806008 -41.0625 267.75 C-44.02575944 266.39891034 -46.27035165 264.86293352 -48.6875 262.6875 C-49.74517578 261.74003906 -49.74517578 261.74003906 -50.82421875 260.7734375 C-51.93216797 259.77183594 -51.93216797 259.77183594 -53.0625 258.75 C-53.77019531 258.12351562 -54.47789062 257.49703125 -55.20703125 256.8515625 C-57.8451539 254.50556587 -60.45921493 252.13448136 -63.0625 249.75 C-63.67802734 249.18635742 -64.29355469 248.62271484 -64.92773438 248.04199219 C-74.87517728 238.89552467 -84.37493258 229.45474184 -93.48632812 219.47460938 C-94.85200967 217.98031346 -96.22963046 216.49694582 -97.609375 215.015625 C-103.30828233 208.83170428 -108.50101824 202.29536166 -113.61669922 195.62841797 C-115.05819566 193.75559229 -116.51497239 191.89539674 -117.97265625 190.03515625 C-150.28786367 148.36864212 -170.56296097 99.76511774 -165.671875 46.4609375 C-163.09164727 26.25864252 -150.86734813 8.11583025 -135.0625 -4.25 C-94.25536726 -35.18657628 -39.55720401 -28.69836369 0 0 Z " fill="#EF5353" transform="translate(216.0625,103.25)"/>
<path d="M0 0 C1.11910515 -0.0049926 1.11910515 -0.0049926 2.26081848 -0.01008606 C3.83671455 -0.01513427 5.41262124 -0.01749504 6.98852539 -0.01733398 C9.36948857 -0.01950838 11.74997876 -0.03765276 14.13085938 -0.05664062 C26.99528339 -0.10513502 40.68260309 0.38016771 50.75390625 9.59375 C67.33699356 27.55876125 74.36694487 54.79784061 82.20703125 77.29296875 C82.58077881 78.36466309 82.95452637 79.43635742 83.33959961 80.54052734 C90.28951332 100.78390017 93.31573855 123.98933961 83.921875 143.890625 C78.56811639 153.77792851 70.46733912 159.9270415 60.20703125 164.16796875 C58.88638672 164.72291016 58.88638672 164.72291016 57.5390625 165.2890625 C44.9485485 170.03004226 31.50923831 170.31989751 18.20703125 170.16796875 C17.98353046 164.33326101 17.82077517 158.50107376 17.71264648 152.66308594 C17.66755202 150.68022232 17.60625474 148.69765525 17.52807617 146.71582031 C16.89222033 130.1752567 16.89222033 130.1752567 20.14282227 125.21264648 C22.55078125 123.1328125 22.55078125 123.1328125 24.95898438 121.64428711 C29.0430089 118.96226101 30.73428632 114.69841269 32.20703125 110.16796875 C32.86736228 106.967903 33.08519827 104.33564265 32.20703125 101.16796875 C28.19735996 96.66931316 23.0366384 93.69269959 16.99047852 92.86425781 C14.57632895 92.73037607 12.18712463 92.70934601 9.76953125 92.73046875 C8.96193359 92.71048828 8.15433594 92.69050781 7.32226562 92.66992188 C0.25967764 92.67561292 -4.57777316 94.91733183 -10.29296875 98.91796875 C-12.54062293 102.28945002 -12.46035564 105.31346897 -11.79296875 109.16796875 C-9.86011673 115.48774333 -6.53498079 120.59192714 -1.79296875 125.16796875 C-1.10879883 125.49853271 -0.42462891 125.82909668 0.28027344 126.16967773 C2.98861831 128.97857317 2.66158154 131.11545787 2.66021729 134.91142273 C2.63957214 135.8146376 2.618927 136.71785248 2.59765625 137.6484375 C2.59199646 138.57642654 2.58633667 139.50441559 2.58050537 140.46052551 C2.55810501 143.42603021 2.50790198 146.39032895 2.45703125 149.35546875 C2.43697098 151.36521693 2.41871938 153.37498404 2.40234375 155.38476562 C2.35822821 160.31296504 2.28917549 165.2402624 2.20703125 170.16796875 C-18.73945908 170.46986871 -18.73945908 170.46986871 -26.60546875 168.60546875 C-27.77118408 168.3420166 -27.77118408 168.3420166 -28.96044922 168.07324219 C-42.29776379 164.81087747 -54.45944118 158.20564254 -62.10546875 146.48046875 C-71.51021699 129.11181114 -70.96657016 108.19056806 -65.75927734 89.44726562 C-64.52319671 85.40811862 -63.16627633 81.41214032 -61.79296875 77.41796875 C-61.42998184 76.34713547 -61.42998184 76.34713547 -61.05966187 75.25466919 C-43.36109636 23.05278831 -43.36109636 23.05278831 -28.79296875 9.16796875 C-28.02533203 8.37132812 -28.02533203 8.37132812 -27.2421875 7.55859375 C-23.13671009 3.62658721 -18.17493037 2.43029889 -12.79296875 1.16796875 C-12.07786133 0.99450928 -11.36275391 0.8210498 -10.62597656 0.64233398 C-7.07674298 0.04804229 -3.58749905 0.00563555 0 0 Z " fill="#F4F2E4" transform="translate(245.79296875,170.83203125)"/>
<path d="M0 0 C1.85384988 0.41973959 3.70471466 0.85670957 5.53881836 1.35571289 C17.91454182 4.59542465 30.45220191 4.33991011 43.15380859 4.31567383 C46.59635477 4.31252619 50.03802902 4.33599075 53.48046875 4.36132812 C65.31969089 4.39360703 76.64009792 3.85961243 88.28271484 1.64526367 C91.32067027 1.11792122 93.93886203 0.73476993 97 1 C102.56330083 5.25022362 106.47246338 11.93255177 110.375 17.6875 C110.80385498 18.31664307 111.23270996 18.94578613 111.67456055 19.59399414 C114.10940124 23.28486875 115.79704011 26.697105 117 31 C101.27639074 43.74154544 85.17940156 55.83874137 68.48828125 67.28955078 C66.83289711 68.42746496 65.1818132 69.57166102 63.53515625 70.72216797 C61.22331552 72.33380572 58.89605655 73.92002767 56.5625 75.5 C55.87099854 75.98734619 55.17949707 76.47469238 54.46704102 76.97680664 C52.50390625 78.28125 52.50390625 78.28125 49 80 C45.21269139 78.91081165 42.15396996 76.93700613 38.89453125 74.76171875 C37.91983887 74.11291748 36.94514648 73.46411621 35.94091797 72.7956543 C34.90854004 72.09996338 33.87616211 71.40427246 32.8125 70.6875 C31.74402832 69.97053955 30.67555664 69.2535791 29.57470703 68.51489258 C15.2840535 58.87847566 1.47429816 48.74186761 -12 38 C-13.78936604 36.60121863 -15.58070942 35.20495878 -17.375 33.8125 C-18.08398438 33.26207031 -18.79296875 32.71164062 -19.5234375 32.14453125 C-20.01070312 31.76683594 -20.49796875 31.38914062 -21 31 C-17.56568397 19.31642234 -8.52318073 8.52318073 0 0 Z " fill="#F4F2E5" transform="translate(208,352)"/>
<path d="M0 0 C-1.24325458 4.06594991 -2.82445798 7.82689138 -4.66503906 11.65600586 C-17.0438801 37.68666956 -28.55398149 67.12349658 -31 96 C-48.96543613 96.85211555 -48.96543613 96.85211555 -55 92 C-56.897737 89.4860438 -57.97949088 86.96567843 -59 84 C-59.4125 82.948125 -59.825 81.89625 -60.25 80.8125 C-64.14307767 61.02268851 -55.25946143 41.54317767 -45 25 C-42.55031069 21.41934099 -39.95282289 18.17398574 -37 15 C-36.34257812 14.26394531 -35.68515625 13.52789062 -35.0078125 12.76953125 C-25.68283389 2.80958328 -13.49151525 -0.79017551 0 0 Z " fill="#F4F2E4" transform="translate(192,186)"/>
<path d="M0 0 C11.00979399 -1.16574289 22.14356454 2.48972151 31 9 C44.86406452 20.56548489 54.12932647 38.81544056 59 56 C59.391875 57.2375 59.78375 58.475 60.1875 59.75 C62.48808847 69.66022723 61.51801167 79.8663653 57 89 C53.60397945 92.92535979 50.07528408 94.95871831 45 96 C40.32112982 96.23645903 35.68012628 96.1774767 31 96 C30.92523438 95.08863281 30.85046875 94.17726563 30.7734375 93.23828125 C27.7281815 63.23355305 15.01943121 31.35438457 1.28515625 4.66796875 C0 2 0 2 0 0 Z " fill="#F4F2E4" transform="translate(320,186)"/>
<path d="M0 0 C17.85379885 6.63507426 31.15559421 21.41145272 39.375 38.1875 C50.38485896 62.27455974 48.37791999 93.4911709 41.4375 118.5 C41.1799292 119.42868896 40.9223584 120.35737793 40.65698242 121.31420898 C33.3958268 146.48776892 21.11937997 169.70878802 6 191 C5.4440918 191.78648926 4.88818359 192.57297852 4.31542969 193.38330078 C-3.55468815 204.45523674 -11.91858599 214.90329202 -21 225 C-21.77730469 225.8765625 -22.55460937 226.753125 -23.35546875 227.65625 C-29.78902936 234.87496282 -36.40659533 241.92763085 -43 249 C-43 244.94977012 -40.95231658 243.35799694 -38.375 240.5 C1.16267742 195.14642412 33.60910118 133.54362622 30 72 C28.56686026 55.3367142 25.67900795 39.97678856 18 25 C17.48566406 23.98808594 16.97132813 22.97617188 16.44140625 21.93359375 C12.54873025 14.7736837 7.78423207 9.11570379 2.16015625 3.30078125 C0 1 0 1 0 0 Z " fill="#AC4545" transform="translate(416,91)"/>
<path d="M0 0 C1.5778125 0.433125 1.5778125 0.433125 3.1875 0.875 C16.53611095 4.10318886 29.47298926 4.34177857 43.15380859 4.31567383 C46.59635477 4.31252619 50.03802902 4.33599075 53.48046875 4.36132812 C65.31969089 4.39360703 76.64009792 3.85961243 88.28271484 1.64526367 C91.32022902 1.11799781 93.9393968 0.72596388 97 1 C98.80078125 2.53125 98.80078125 2.53125 100.3125 4.5 C100.82425781 5.1496875 101.33601563 5.799375 101.86328125 6.46875 C102.23839844 6.9740625 102.61351562 7.479375 103 8 C99.28933906 10.13818447 95.31160252 11.06098665 91.1875 12.0625 C90.50107422 12.23587891 89.81464844 12.40925781 89.10742188 12.58789062 C76.79011102 15.62934581 64.52789274 15.29221886 51.90014648 15.35009766 C49.2851463 15.36653103 46.67018862 15.39364982 44.05541992 15.43212891 C29.84069701 15.63964311 16.49778182 15.4914486 2.73802185 11.58383179 C-2.13851506 10.15132822 -2.13851506 10.15132822 -7.09008789 10.85302734 C-7.72035889 11.23152832 -8.35062988 11.6100293 -9 12 C-7.55575365 8.76138697 -5.74227753 6.38030837 -3.375 3.75 C-2.74335938 3.04359375 -2.11171875 2.3371875 -1.4609375 1.609375 C-0.97882813 1.07828125 -0.49671875 0.5471875 0 0 Z " fill="#CFCFCF" transform="translate(208,352)"/>
<path d="M0 0 C3.53988318 2.18036283 6.13406963 4.68056946 8.15625 8.328125 C8.84689221 12.40291406 8.82628794 14.28286582 6.59375 17.765625 C3.17310857 19.95834387 1.14673721 19.95820193 -2.84375 19.328125 C-4.53037458 17.68165815 -6.19886706 16.01629433 -7.84375 14.328125 C-10.45766389 14.08411222 -10.45766389 14.08411222 -12.84375 15.328125 C-13.771875 16.3490625 -13.771875 16.3490625 -14.71875 17.390625 C-16.84375 19.328125 -16.84375 19.328125 -20.34375 19.828125 C-23.84375 19.328125 -23.84375 19.328125 -26.28125 17.765625 C-28.54534958 14.23362965 -28.6024907 12.46671066 -27.84375 8.328125 C-21.26182206 -2.2029597 -11.31918803 -5.50453665 0 0 Z " fill="#393B3A" transform="translate(297.84375,226.671875)"/>
<path d="M0 0 C3.53988318 2.18036283 6.13406963 4.68056946 8.15625 8.328125 C8.84689221 12.40291406 8.82628794 14.28286582 6.59375 17.765625 C3.17310857 19.95834387 1.14673721 19.95820193 -2.84375 19.328125 C-4.53037458 17.68165815 -6.19886706 16.01629433 -7.84375 14.328125 C-10.45766389 14.08411222 -10.45766389 14.08411222 -12.84375 15.328125 C-13.771875 16.3490625 -13.771875 16.3490625 -14.71875 17.390625 C-16.84375 19.328125 -16.84375 19.328125 -20.34375 19.828125 C-23.84375 19.328125 -23.84375 19.328125 -26.28125 17.765625 C-28.54534958 14.23362965 -28.6024907 12.46671066 -27.84375 8.328125 C-21.26182206 -2.2029597 -11.31918803 -5.50453665 0 0 Z " fill="#393B3A" transform="translate(233.84375,226.671875)"/>
<path d="M0 0 C3.3 0 6.6 0 10 0 C9.01 0.33 8.02 0.66 7 1 C7.37584229 1.82516113 7.37584229 1.82516113 7.75927734 2.66699219 C14.57466455 17.73193424 20.42454588 33.0091025 25.82202148 48.63476562 C26.63147445 50.94720079 27.46021199 53.2529476 28.30493164 55.55273438 C30.94952951 62.75981709 33.16727564 69.87709224 34.8125 77.375 C35.13637695 78.75365234 35.13637695 78.75365234 35.46679688 80.16015625 C36.68230294 85.57012292 37.22715744 90.45735859 37 96 C35.02 96 33.04 96 31 96 C30.92523438 95.08863281 30.85046875 94.17726563 30.7734375 93.23828125 C27.7281815 63.23355305 15.01943121 31.35438457 1.28515625 4.66796875 C0 2 0 2 0 0 Z " fill="#CFCFCF" transform="translate(320,186)"/>
<path d="M0 0 C3.3 0 6.6 0 10 0 C8.75674542 4.06594991 7.17554202 7.82689138 5.33496094 11.65600586 C-7.0438801 37.68666956 -18.55398149 67.12349658 -21 96 C-22.98 96 -24.96 96 -27 96 C-26.35790184 77.53967777 -20.56048059 61.28338852 -14.16259766 44.14257812 C-13.05560816 41.15031251 -11.98010145 38.14906614 -10.91796875 35.140625 C-6.79568977 23.50012314 -2.19960639 12.20127972 3 1 C2.01 0.67 1.02 0.34 0 0 Z " fill="#D0D0CF" transform="translate(182,186)"/>
<path d="M0 0 C3.96 0 7.92 0 12 0 C9 5 9 5 7.125 6.125 C5 6 5 6 2.25 3.625 C0 1 0 1 0 0 Z " fill="#E35252" transform="translate(250,279)"/>
<path d="M0 0 C0.66 0 1.32 0 2 0 C0.4169423 4.2742558 -2.50568404 6.26531794 -6 9 C-4.4722133 5.56247993 -2.49818944 2.81046312 0 0 Z " fill="#9D4343" transform="translate(378,331)"/>
</svg>
