<svg width="100" height="100" viewBox="0 0 100 100" fill="none" xmlns="http://www.w3.org/2000/svg">
<circle cx="50" cy="50" r="50" fill="white"/>
<path fill-rule="evenodd" clip-rule="evenodd" d="M44.5601 42.39C45.9201 42.39 47.2401 41.68 48.1601 40.45C49.0201 39.3 49.5001 37.79 49.5001 36.2C49.5001 34.61 49.0301 33.1 48.1601 31.95C47.2401 30.71 45.9201 30 44.5601 30C43.2001 30 41.8801 30.71 40.9601 31.94C40.1001 33.09 39.6201 34.6 39.6201 36.19C39.6201 37.78 40.0901 39.29 40.9601 40.44C41.8801 41.68 43.2001 42.39 44.5601 42.39ZM50 45.7C45.46 45.7 41.2 47.47 37.99 50.67C34.78 53.87 33.02 58.1399 33.02 62.68C33.02 64.11 33.43 65.49 34.21 66.68C35.57 68.7599 37.86 70 40.34 70C42.38 70 43.97 69.5299 45.5 69.07C46.94 68.6399 48.3 68.24 50 68.24C51.7 68.24 53.06 68.6399 54.5 69.07C56.04 69.5299 57.63 70 59.66 70C62.14 70 64.43 68.7599 65.79 66.68C66.57 65.49 66.98 64.0999 66.98 62.68C66.98 58.1399 65.21 53.88 62.01 50.67C58.8 47.47 54.54 45.7 50 45.7ZM53.77 58.08H51.18V60.67C51.18 61.32 50.66 61.84 50.01 61.84C49.36 61.84 48.84 61.32 48.84 60.67V58.08H46.25C45.6 58.08 45.08 57.56 45.08 56.91C45.08 56.26 45.6 55.74 46.25 55.74H48.84V53.15C48.84 52.5 49.36 51.9799 50.01 51.9799C50.66 51.9799 51.18 52.5 51.18 53.15V55.74H53.77C54.42 55.74 54.94 56.26 54.94 56.91C54.94 57.56 54.41 58.08 53.77 58.08ZM59.04 40.45C58.12 41.68 56.8 42.39 55.44 42.39C54.08 42.39 52.76 41.68 51.84 40.44C50.98 39.29 50.5 37.78 50.5 36.19C50.5 34.6 50.98 33.09 51.84 31.94C52.76 30.71 54.08 30 55.44 30C56.8 30 58.11 30.71 59.04 31.95C59.91 33.1 60.38 34.61 60.38 36.2C60.38 37.79 59.9 39.3 59.04 40.45ZM68.8499 37.1299C68.0399 36.0499 66.8899 35.4399 65.6899 35.4399C64.4899 35.4399 63.3399 36.0599 62.5299 37.1299C61.7899 38.1199 61.3799 39.4199 61.3799 40.7899C61.3799 42.1599 61.7899 43.4599 62.5299 44.4499C63.3399 45.5299 64.4899 46.1399 65.6899 46.1399C66.8899 46.1399 68.0399 45.5199 68.8499 44.4499C69.5899 43.4599 69.9999 42.1599 69.9999 40.7999C69.9999 39.4299 69.5899 38.1299 68.8499 37.1299ZM38.62 40.7999C38.62 42.1699 38.21 43.4699 37.47 44.4599C36.66 45.5299 35.51 46.1499 34.31 46.1499C33.11 46.1499 31.96 45.5399 31.15 44.4599C30.41 43.4699 30 42.1699 30 40.7999C30 39.4299 30.41 38.1299 31.15 37.1299C31.96 36.0599 33.11 35.4399 34.31 35.4399C35.51 35.4399 36.66 36.0599 37.47 37.1399C38.21 38.1299 38.62 39.4299 38.62 40.7999Z" fill="url(#paint0_linear_323_574)"/>
<defs>
<linearGradient id="paint0_linear_323_574" x1="49.9999" y1="30" x2="49.9999" y2="58" gradientUnits="userSpaceOnUse">
<stop stop-color="#FFCFC2"/>
<stop offset="1" stop-color="#FF714A"/>
</linearGradient>
</defs>
</svg>
