<?xml version="1.0" encoding="UTF-8"?>
<!-- Generator: visioncortex VTracer 0.6.3 -->
<svg version="1.1" xmlns="http://www.w3.org/2000/svg" width="1280" height="205">
<path d="M0 0 C5.09 -0.02 10.18 -0.04 15.27 -0.05 C17 -0.06 18.74 -0.07 20.47 -0.08 C22.96 -0.09 25.44 -0.09 27.93 -0.1 C28.71 -0.1 29.48 -0.11 30.28 -0.11 C35.77 -0.11 35.77 -0.11 38 1 C38.08 9.02 38.06 16.99 37.57 25 C36.29 45.68 36.29 45.68 43 65 C43.71 66.43 44.41 67.86 45.11 69.29 C46.46 72.04 47.84 74.76 49.27 77.48 C50.81 80.62 51.99 83.65 53 87 C53.66 87 54.32 87 55 87 C55.12 86.3 55.25 85.61 55.37 84.89 C56.05 81.76 57 78.82 58.03 75.78 C58.43 74.6 58.83 73.42 59.24 72.21 C60.5 68.5 60.5 68.5 61.76 64.79 C62.16 63.61 62.56 62.43 62.97 61.22 C63.52 59.61 63.52 59.61 64.08 57.97 C65.44 53.58 66.12 49.52 66.21 44.93 C66.23 43.95 66.25 42.97 66.27 41.96 C66.28 40.92 66.3 39.87 66.32 38.79 C66.35 37.17 66.35 37.17 66.38 35.52 C66.44 32.07 66.5 28.63 66.56 25.19 C66.61 22.85 66.65 20.51 66.69 18.17 C66.8 12.45 66.9 6.72 67 1 C71.26 -1.13 76.91 -0.19 81.64 -0.19 C83.73 -0.19 85.82 -0.21 87.91 -0.22 C89.24 -0.23 90.58 -0.23 91.92 -0.23 C93.13 -0.23 94.35 -0.24 95.6 -0.24 C99.05 0 101.78 0.76 105 2 C104.99 2.57 104.98 3.13 104.97 3.71 C104.85 9.69 104.78 15.66 104.73 21.63 C104.7 23.85 104.67 26.07 104.62 28.29 C104.36 41.91 104.9 53.27 110 66 C110.67 67.89 111.33 69.79 111.98 71.68 C112.57 73.27 113.16 74.85 113.75 76.44 C114.05 77.26 114.36 78.09 114.67 78.94 C115.84 82.76 115.84 82.76 118 86 C119.57 82.77 121.13 79.54 122.69 76.31 C123.12 75.42 123.56 74.53 124.01 73.61 C124.91 71.73 125.79 69.84 126.65 67.94 C127.52 66.04 128.45 64.16 129.44 62.31 C134.93 50.83 133.5 38.18 133.25 25.75 C133.2 22.21 133.16 18.67 133.12 15.13 C133.09 12.94 133.06 10.75 133.01 8.56 C132.99 7.09 132.99 7.09 132.97 5.59 C132.95 4.72 132.93 3.86 132.91 2.97 C133 1 133 1 134 0 C136.74 -0.09 139.45 -0.12 142.19 -0.1 C143.01 -0.1 143.83 -0.09 144.68 -0.09 C147.3 -0.09 149.93 -0.08 152.56 -0.06 C154.34 -0.06 156.12 -0.05 157.9 -0.05 C162.26 -0.04 166.63 -0.02 171 0 C177.35 12.7 175.62 42.26 171.33 55.5 C168.88 61.96 165.41 67.9 161.85 73.8 C158.63 79.37 156.08 85.26 153.44 91.12 C152.37 93.43 151.3 95.73 150.23 98.04 C148 102.83 145.79 107.63 143.59 112.43 C143.04 113.63 142.49 114.83 141.92 116.06 C140.87 118.34 139.83 120.63 138.78 122.92 C138.31 123.94 137.85 124.95 137.36 126 C136.95 126.9 136.54 127.79 136.12 128.72 C133.64 133.76 133.64 133.76 131.19 134.68 C126.85 135.32 122.5 135.18 118.12 135.19 C117.14 135.2 116.16 135.21 115.15 135.22 C114.2 135.23 113.24 135.23 112.26 135.23 C110.96 135.24 110.96 135.24 109.64 135.24 C106.39 134.94 103.96 134.39 101 133 C99.39 130.48 99.39 130.48 98.18 127.32 C97.73 126.16 97.27 125.01 96.81 123.81 C96.35 122.6 95.9 121.38 95.44 120.12 C94.52 117.75 93.6 115.38 92.68 113.01 C92.24 111.85 91.8 110.69 91.35 109.49 C89.34 104.28 87.18 99.14 85 94 C84.63 94.96 84.25 95.93 83.87 96.92 C82.47 100.52 81.07 104.12 79.67 107.71 C79.06 109.27 78.46 110.82 77.86 112.37 C76.99 114.62 76.11 116.86 75.23 119.1 C74.97 119.78 74.71 120.47 74.44 121.18 C72.65 125.72 70.77 129.97 68 134 C65.57 134.92 65.57 134.92 63 135 C62.17 135.05 61.34 135.11 60.49 135.16 C57.66 135.21 54.83 135.24 52 135.25 C50.52 135.28 50.52 135.28 49.02 135.31 C45.17 135.33 41.81 135.25 38.12 134.11 C34.65 130.66 32.98 126.43 31 122 C30.03 119.9 29.06 117.81 28.09 115.71 C27.59 114.61 27.09 113.51 26.57 112.38 C24.48 107.89 22.31 103.44 20.14 99 C13.4 85.16 7 71.18 1 57 C0.63 56.21 0.26 55.42 -0.12 54.61 C-1.21 51.37 -1.24 48.64 -1.23 45.21 C-1.23 44.56 -1.23 43.91 -1.23 43.25 C-1.23 41.14 -1.21 39.04 -1.19 36.94 C-1.18 35.49 -1.17 34.05 -1.17 32.61 C-1.1 21.72 -0.69 10.87 0 0 Z " fill="#000100" transform="translate(270,31)"/>
<path d="M0 0 C2.3 1.91 2.3 1.91 4.31 4.62 C5.08 5.64 5.84 6.65 6.63 7.7 C7.42 8.8 8.21 9.9 9 11 C9.76 12.05 10.52 13.1 11.3 14.18 C12.95 16.47 14.59 18.77 16.21 21.08 C21.09 27.97 26.14 34.72 31.16 41.5 C33.02 44.03 34.87 46.56 36.73 49.09 C45.44 63.13 45.44 63.13 57 74 C56.96 73.06 56.96 73.06 56.92 72.1 C56.66 65.5 56.4 58.89 56.15 52.29 C56.05 49.84 55.95 47.38 55.85 44.93 C54.91 21.41 54.91 21.41 54.81 10.9 C54.8 9.6 54.78 8.29 54.77 6.95 C55 4 55 4 57 2 C59.8 1.82 62.49 1.77 65.29 1.8 C66.52 1.81 66.52 1.81 67.77 1.81 C70.39 1.82 73.01 1.85 75.62 1.88 C77.4 1.89 79.17 1.89 80.95 1.9 C85.3 1.92 89.65 1.96 94 2 C94.9 5.77 95.06 9.12 94.9 12.99 C94.85 14.21 94.8 15.43 94.76 16.68 C94.73 17.34 94.7 18 94.68 18.68 C94.08 33.69 93.85 48.7 93.72 63.71 C93.7 65.25 93.7 65.25 93.69 66.82 C93.6 76.38 93.52 85.94 93.45 95.5 C93.41 100.8 93.36 106.09 93.31 111.39 C93.28 114.36 93.26 117.32 93.24 120.29 C93.22 122.08 93.21 123.87 93.19 125.67 C93.19 126.49 93.18 127.31 93.18 128.15 C93.11 133.77 93.11 133.77 92 136 C86.5 136.38 81 136.69 75.48 136.9 C73.95 136.96 72.42 137.04 70.89 137.14 C65.31 137.5 60.89 137.51 56.41 133.93 C54.2 131.36 52.25 128.78 50.36 125.98 C48.33 123.02 46.17 120.16 44.03 117.28 C42.23 114.84 40.44 112.4 38.66 109.96 C34.52 104.32 30.23 98.81 25.91 93.3 C21.93 88.2 18.01 83.07 14.16 77.87 C12.25 75.33 10.32 72.82 8.36 70.32 C7.73 69.51 7.1 68.7 6.46 67.87 C5.98 67.25 5.49 66.64 5 66 C5 66.86 5 67.72 5.01 68.61 C5.03 76.72 5.04 84.83 5.05 92.94 C5.06 97.11 5.06 101.28 5.08 105.44 C5.09 109.46 5.09 113.48 5.09 117.5 C5.1 119.04 5.1 120.58 5.11 122.12 C5.11 124.26 5.11 126.41 5.11 128.55 C5.12 129.78 5.12 131 5.12 132.26 C5 135 5 135 4 136 C1.27 136.1 -1.43 136.14 -4.16 136.13 C-5.38 136.13 -5.38 136.13 -6.63 136.14 C-8.37 136.14 -10.1 136.13 -11.83 136.13 C-14.49 136.13 -17.15 136.13 -19.81 136.14 C-21.49 136.14 -23.17 136.13 -24.84 136.13 C-25.64 136.13 -26.45 136.14 -27.27 136.14 C-32.89 136.11 -32.89 136.11 -34 135 C-34.1 132.98 -34.13 130.95 -34.13 128.93 C-34.13 127.65 -34.14 126.37 -34.14 125.06 C-34.13 123.66 -34.13 122.27 -34.12 120.88 C-34.12 120.17 -34.12 119.47 -34.12 118.75 C-34.11 109.8 -33.95 100.88 -33.5 91.94 C-32.68 75.45 -32.95 59.07 -33.64 42.58 C-34.17 29.39 -34.09 16.2 -34 3 C-30.26 1.75 -26.65 1.68 -22.75 1.5 C-18.59 1.3 -14.51 1.08 -10.39 0.47 C-6.78 -0.03 -3.63 -0.38 0 0 Z " fill="#000100" transform="translate(490,29)"/>
<path d="M0 0 C2.75 2.4 4.73 5.25 6.79 8.25 C8.13 10.19 9.51 12.1 10.9 14 C13.11 17.04 15.31 20.09 17.5 23.14 C34.55 51.55 34.55 51.55 57 74 C56.97 73.45 56.95 72.9 56.92 72.33 C56.66 66.45 56.4 60.58 56.15 54.7 C56.05 52.52 55.95 50.35 55.85 48.17 C55.33 36.63 54.9 25.09 54.81 13.54 C54.8 12.6 54.79 11.67 54.77 10.71 C54.77 9.85 54.77 9 54.77 8.12 C54.77 7.37 54.76 6.62 54.76 5.84 C55 4 55 4 57 2 C59.8 1.82 62.49 1.77 65.29 1.8 C66.52 1.81 66.52 1.81 67.77 1.81 C70.39 1.82 73.01 1.85 75.62 1.88 C77.4 1.89 79.17 1.89 80.95 1.9 C85.3 1.92 89.65 1.96 94 2 C94.03 6.03 94.04 10.05 94.05 14.08 C94.06 16.08 94.07 18.08 94.09 20.08 C94.12 29.15 93.87 38.19 93.53 47.25 C93.1 58.68 92.86 70.11 92.72 81.55 C92.71 82.33 92.7 83.12 92.69 83.93 C92.6 91.2 92.52 98.48 92.45 105.76 C92.41 109.8 92.36 113.84 92.31 117.88 C92.28 120.14 92.26 122.39 92.24 124.65 C92.22 126.01 92.21 127.38 92.19 128.74 C92.17 130.52 92.17 130.52 92.15 132.34 C92 135 92 135 91 136 C85.01 136.59 79.01 136.82 73 137 C72.3 137.02 71.61 137.05 70.89 137.07 C61.03 137.31 61.03 137.31 57 134.71 C55.07 132.61 53.58 130.39 52 128 C50.65 126.18 49.28 124.38 47.91 122.58 C46.33 120.51 44.78 118.42 43.23 116.33 C40.1 112.13 36.93 107.97 33.75 103.81 C32.67 102.4 31.59 100.99 30.51 99.59 C29.95 98.85 29.39 98.12 28.81 97.37 C25.39 92.9 21.98 88.42 18.56 83.94 C17.9 83.07 17.24 82.2 16.56 81.31 C12.68 76.22 8.83 71.12 5 66 C4.19 68.82 3.9 71.25 3.98 74.18 C4 74.99 4.02 75.81 4.04 76.65 C4.07 77.53 4.09 78.41 4.12 79.31 C4.14 80.24 4.17 81.16 4.19 82.11 C4.27 85.07 4.35 88.04 4.44 91 C4.75 102.44 5.05 113.87 5.1 125.31 C5.1 126.16 5.11 127.01 5.12 127.88 C5.12 133.76 5.12 133.76 4 136 C-8.54 136 -21.08 136 -34 136 C-34.71 131.77 -35.1 128.95 -34.88 124.86 C-34.83 123.83 -34.78 122.81 -34.74 121.75 C-34.65 120.04 -34.65 120.04 -34.57 118.3 C-33.99 104.44 -33.9 90.6 -33.9 76.73 C-33.9 75.66 -33.9 74.59 -33.9 73.48 C-33.91 66.85 -33.92 60.21 -33.93 53.58 C-33.94 47.86 -33.95 42.14 -33.95 36.42 C-33.96 25.28 -33.98 14.14 -34 3 C-30.67 1.34 -26.92 1.66 -23.25 1.5 C-16.11 1.19 -6.67 -2.05 0 0 Z " fill="#000100" transform="translate(1177,29)"/>
<path d="M0 0 C13.92 12.03 23.74 29.01 25.2 47.57 C26 68.49 21.38 87.17 7 103 C6.02 104.12 6.02 104.12 5.02 105.26 C-7.13 118.32 -24.25 125.88 -42 127 C-62.07 127.39 -79.89 121.39 -95 108 C-95.61 107.48 -96.23 106.96 -96.86 106.43 C-109.56 94.86 -117.33 76.9 -118.25 59.94 C-118.96 40.15 -113.35 21.98 -100 7 C-99.43 6.34 -98.86 5.67 -98.27 4.99 C-72.19 -23.32 -29.03 -22.86 0 0 Z M-71 16 C-73.88 21.73 -73.76 27.74 -73 34 C-71.47 37.76 -69.71 41.14 -66 43 C-60.1 43.65 -60.1 43.65 -55.12 40.81 C-50.42 34.59 -50.34 28.58 -51 21 C-52.6 16.29 -54.73 13.58 -59 11 C-64.6 9.93 -67.14 12.06 -71 16 Z M-39 15 C-42.43 20.8 -42.74 26.35 -42 33 C-40.49 37.15 -38.64 40.44 -35 43 C-30.5 43.57 -28.21 43.62 -24.19 41.56 C-19.96 36.6 -18.66 31.27 -19.06 24.81 C-19.84 19.39 -22.02 15.98 -25.88 12.12 C-31.19 9.31 -35.06 10.85 -39 15 Z M-10 37 C-14.42 42.77 -15.49 46.78 -15 54 C-14.07 57.41 -12.95 60.24 -10.12 62.5 C-7.27 63.17 -5.77 63.01 -3 62 C2.48 57.28 4.31 53.29 4.97 46.25 C5.03 41.75 3.44 38.66 1 35 C-3.74 33.53 -6.16 33.87 -10 37 Z M-95.5 36.75 C-98.27 42.76 -97.92 49.3 -95.81 55.5 C-93.19 59.12 -90.66 61.34 -86.5 63 C-83.81 63.22 -83.81 63.22 -81.25 61.25 C-78.1 58.1 -77.83 55.54 -77.75 51.25 C-77.82 45.27 -79.26 41.51 -82.69 36.56 C-85.6 34.59 -87.62 34.35 -91.09 34.57 C-93.23 34.92 -93.23 34.92 -95.5 36.75 Z M-63.94 61.25 C-64.98 62.24 -66.02 63.23 -67.06 64.22 C-67.56 64.7 -68.06 65.18 -68.57 65.67 C-70.48 67.45 -72.49 69.09 -74.5 70.75 C-78.47 74.23 -81.36 77.61 -82.38 82.97 C-82.71 88.35 -81.19 91.72 -78 96 C-72.53 99.77 -67.58 99.47 -61.2 98.31 C-59.89 98.02 -58.57 97.73 -57.25 97.44 C-48.46 95.65 -41.13 96.37 -32.38 98.12 C-26.07 99.31 -20.64 99.63 -15.06 96.19 C-11.78 92.71 -10.7 89.9 -10.62 85.12 C-10.6 84.3 -10.57 83.48 -10.54 82.63 C-11.76 75.63 -17.83 71.02 -22.81 66.44 C-23.5 65.79 -24.19 65.14 -24.89 64.48 C-33.98 55.81 -33.98 55.81 -45.75 52.75 C-46.98 52.71 -46.98 52.71 -48.23 52.67 C-54.81 53.45 -59.34 56.74 -63.94 61.25 Z " fill="#000100" transform="translate(1109,41)"/>
<path d="M0 0 C0.67 -0 1.35 -0.01 2.04 -0.02 C4.28 -0.03 6.51 -0.04 8.75 -0.04 C10.31 -0.05 11.87 -0.05 13.43 -0.06 C16.71 -0.07 19.99 -0.08 23.27 -0.08 C27.45 -0.08 31.62 -0.11 35.79 -0.14 C39.02 -0.16 42.25 -0.16 45.48 -0.16 C47.02 -0.17 48.55 -0.17 50.09 -0.19 C67.27 -0.32 81.61 2.92 94.45 15.04 C104.72 25.94 107.81 39.67 107.66 54.31 C106.87 68.71 102.69 81.61 92.65 92.19 C82.94 100.87 71.48 104.35 58.64 104.26 C57.92 104.26 57.19 104.26 56.45 104.25 C54.16 104.25 51.86 104.24 49.57 104.22 C48.01 104.22 46.45 104.21 44.88 104.21 C41.07 104.2 37.26 104.18 33.45 104.16 C33.45 105.06 33.46 105.97 33.46 106.9 C33.48 110.24 33.49 113.58 33.5 116.92 C33.51 118.37 33.51 119.82 33.52 121.27 C33.53 123.35 33.54 125.42 33.54 127.5 C33.55 128.75 33.55 130 33.56 131.29 C33.45 134.16 33.45 134.16 32.45 135.16 C31 135.26 29.55 135.29 28.1 135.29 C27.19 135.3 26.28 135.3 25.34 135.3 C24.37 135.3 23.39 135.29 22.38 135.29 C21.39 135.28 20.41 135.28 19.39 135.28 C-4.59 135.12 -4.59 135.12 -6.55 133.16 C-6.67 130.09 -6.73 127.04 -6.74 123.97 C-6.75 123 -6.76 122.04 -6.77 121.04 C-6.79 118.93 -6.8 116.82 -6.81 114.72 C-6.84 111.36 -6.86 108.01 -6.89 104.66 C-6.95 97.51 -7 90.37 -7.05 83.22 C-7.11 75 -7.18 66.78 -7.25 58.55 C-7.27 55.28 -7.29 52 -7.31 48.73 C-7.39 38.11 -7.65 27.54 -8.34 16.95 C-8.64 11.68 -8.65 6.43 -8.55 1.16 C-5.68 -0.27 -3.21 0.02 0 0 Z M32.45 31.16 C30.21 34.74 30.2 37.7 30.22 41.87 C30.22 43.18 30.22 44.49 30.22 45.83 C30.23 46.52 30.23 47.2 30.24 47.9 C30.26 49.96 30.26 52.02 30.26 54.08 C30.29 60.22 30.47 66.08 31.45 72.16 C40.92 73.96 52.76 75.17 61.45 70.16 C65.7 66.69 67.47 62.49 68.45 57.16 C69.07 50.49 68.63 44.17 65.45 38.16 C61.91 34 57.31 31.41 51.86 30.93 C50.96 30.94 50.07 30.96 49.15 30.97 C48.17 30.97 47.19 30.98 46.19 30.99 C44.67 31.01 44.67 31.01 43.13 31.04 C41.59 31.05 41.59 31.05 40.02 31.06 C37.5 31.09 34.97 31.12 32.45 31.16 Z " fill="#000100" transform="translate(16.55419921875,30.8388671875)"/>
<path d="M0 0 C1.09 -0.01 1.09 -0.01 2.19 -0.02 C3.73 -0.03 5.26 -0.03 6.8 -0.04 C9.15 -0.05 11.5 -0.08 13.84 -0.11 C15.33 -0.12 16.82 -0.12 18.31 -0.12 C19.02 -0.14 19.72 -0.15 20.44 -0.16 C25.3 -0.14 25.3 -0.14 27.65 1.51 C29.71 4.57 31.06 7.94 32.48 11.33 C32.86 12.23 33.24 13.12 33.63 14.05 C46.15 44.03 57.48 74.54 68.93 104.94 C69.75 107.09 70.56 109.24 71.38 111.39 C72.72 114.92 74.04 118.47 75.35 122.02 C75.73 123 76.1 123.99 76.49 125.01 C76.82 125.91 77.14 126.8 77.48 127.72 C77.76 128.48 78.04 129.23 78.33 130.01 C78.89 132.67 78.47 134.59 77.79 137.2 C74.29 138.37 71.1 138.38 67.45 138.41 C66.74 138.41 66.02 138.42 65.28 138.42 C63.77 138.43 62.25 138.44 60.74 138.44 C58.43 138.45 56.12 138.48 53.81 138.52 C52.34 138.52 50.86 138.53 49.39 138.53 C48.7 138.54 48.02 138.56 47.31 138.57 C42.49 138.55 41.23 137.87 36.79 135.2 C35.14 129.92 33.49 124.64 31.79 119.2 C17.93 119.2 4.07 119.2 -10.21 119.2 C-12.63 124.04 -14.02 127.82 -15.27 132.93 C-16.47 135.84 -17.49 136.63 -20.21 138.2 C-23.43 138.58 -23.43 138.58 -27.21 138.57 C-28.21 138.57 -28.21 138.57 -29.24 138.57 C-30.65 138.57 -32.07 138.56 -33.48 138.54 C-35.64 138.52 -37.79 138.52 -39.95 138.53 C-51.45 138.48 -51.45 138.48 -56.21 136.2 C-54.59 127.61 -51.69 119.54 -48.77 111.33 C-48.36 110.15 -48.36 110.15 -47.93 108.95 C-40.79 88.73 -33.24 68.66 -25.71 48.58 C-23.09 41.57 -20.49 34.56 -17.92 27.54 C-17.59 26.63 -17.26 25.73 -16.92 24.81 C-15.38 20.61 -13.84 16.41 -12.31 12.21 C-11.77 10.75 -11.24 9.28 -10.7 7.82 C-10.46 7.16 -10.22 6.49 -9.97 5.81 C-7.72 -0.34 -6.24 0.04 0 0 Z M9.79 49.2 C8.36 53.38 6.93 57.56 5.52 61.75 C5.03 63.17 4.55 64.59 4.06 66.01 C3.36 68.05 2.67 70.1 1.98 72.15 C1.56 73.38 1.14 74.61 0.71 75.88 C-0.12 78.87 -0.41 81.14 -0.21 84.2 C3.51 85.44 6.98 85.35 10.85 85.33 C11.58 85.33 12.32 85.34 13.07 85.34 C17.06 85.41 17.06 85.41 20.79 84.2 C20.43 76.02 18.33 68.81 15.73 61.08 C15.35 59.93 14.97 58.78 14.58 57.6 C13.66 54.8 12.73 52 11.79 49.2 C11.13 49.2 10.47 49.2 9.79 49.2 Z " fill="#000100" transform="translate(184.2109375,27.796875)"/>
<path d="M0 0 C1.27 0 1.27 0 2.56 0 C3.44 -0 4.33 -0.01 5.24 -0.01 C8.18 -0.02 11.12 -0.02 14.06 -0.02 C16.09 -0.02 18.12 -0.03 20.16 -0.03 C24.43 -0.04 28.7 -0.04 32.97 -0.04 C38.45 -0.04 43.93 -0.05 49.42 -0.07 C53.62 -0.08 57.82 -0.08 62.02 -0.08 C64.05 -0.08 66.07 -0.09 68.09 -0.1 C70.91 -0.11 73.74 -0.1 76.56 -0.1 C77.4 -0.1 78.24 -0.11 79.11 -0.11 C84.89 -0.08 84.89 -0.08 87.12 2.15 C87.61 4.57 87.97 6.89 88.25 9.33 C88.33 10.04 88.42 10.74 88.51 11.47 C89.31 18.7 89.31 25.87 89.12 33.15 C81.94 33.25 74.85 33.18 67.69 32.65 C60.7 32.17 53.75 32.03 46.75 32.02 C45.22 32.01 45.22 32.01 43.66 32.01 C42.24 32.01 42.24 32.01 40.79 32.01 C39.51 32.02 39.51 32.02 38.21 32.02 C36.06 32.01 36.06 32.01 34.12 33.15 C34.07 35.06 34.03 36.98 34 38.9 C33.97 39.96 33.95 41.03 33.93 42.13 C34.12 45.13 34.72 46.57 36.12 49.15 C41.1 49.18 46.08 49.2 51.06 49.21 C52.16 49.21 52.16 49.21 53.28 49.22 C63.01 49.25 72.64 49.05 82.33 48.07 C83.25 48.1 84.17 48.12 85.12 48.15 C87.6 51.86 87.13 54.22 86.66 58.44 C86.54 59.73 86.41 61.02 86.28 62.35 C86.1 64 85.93 65.64 85.75 67.33 C85.21 72.55 84.68 77.77 84.12 83.15 C67.62 83.15 51.12 83.15 34.12 83.15 C33.44 94.62 33.44 94.62 35.12 99.15 C39.06 101.31 42.57 101.39 47.01 101.38 C47.66 101.38 48.32 101.38 48.99 101.38 C50.37 101.37 51.76 101.36 53.14 101.35 C55.22 101.33 57.3 101.33 59.38 101.33 C66.22 101.31 72.98 101.12 79.77 100.37 C83.58 100.01 87.3 100.02 91.12 100.15 C92.88 101.9 92.34 104.26 92.37 106.65 C92.33 112.26 91.75 117.63 90.81 123.15 C90.69 123.86 90.58 124.58 90.45 125.32 C89.68 129.54 88.41 132.55 86.12 136.15 C85.47 136.12 84.81 136.1 84.14 136.07 C68.98 135.51 53.84 135.12 38.67 134.89 C38 134.88 37.32 134.87 36.63 134.86 C29.74 134.76 22.85 134.65 15.96 134.57 C12.71 134.52 9.47 134.48 6.22 134.43 C5.01 134.41 3.81 134.4 2.57 134.39 C1.47 134.37 0.37 134.35 -0.76 134.34 C-1.73 134.32 -2.7 134.31 -3.69 134.3 C-5.88 134.15 -5.88 134.15 -6.88 133.15 C-7.52 120.36 -6.42 107.46 -5.73 94.7 C-4.47 71.08 -5.14 47.73 -6.1 24.1 C-6.25 20.35 -6.39 16.59 -6.54 12.83 C-6.59 11.67 -6.64 10.51 -6.69 9.31 C-6.73 8.25 -6.77 7.19 -6.81 6.1 C-6.84 5.16 -6.88 4.23 -6.92 3.27 C-6.83 -1.17 -3.68 0.02 0 0 Z " fill="#000100" transform="translate(607.8771820068359,30.853363037109375)"/>
<path d="M0 0 C1.1 0.01 2.2 0.02 3.33 0.03 C21.3 0.37 35.38 5.91 48.62 18.38 C50.62 21.38 50.62 21.38 50.52 23.54 C49.26 27.54 47.36 31.07 45.38 34.75 C44.99 35.48 44.61 36.21 44.21 36.96 C41.68 41.72 38.84 46.05 35.62 50.38 C30.93 49.88 28.44 47.93 24.81 45 C15.07 37.49 6.8 36.1 -5.38 37.38 C-12.33 39.38 -17.5 43.28 -21.38 49.38 C-27.1 60.09 -28.33 71.96 -24.81 83.69 C-22.04 90.97 -18.2 97.23 -11.12 100.88 C-2.84 104.46 6.63 104.92 15.12 101.62 C20.23 99.25 24.57 96.32 28.75 92.56 C31.62 90.38 31.62 90.38 33.62 90.5 C36.2 91.63 37.01 92.88 38.54 95.23 C39.31 96.41 39.31 96.41 40.1 97.62 C40.62 98.44 41.15 99.27 41.69 100.12 C42.22 100.94 42.75 101.75 43.29 102.59 C44.31 104.15 45.32 105.73 46.31 107.31 C47.35 108.95 48.45 110.55 49.56 112.14 C50.62 114.38 50.62 114.38 50.57 116.89 C46.79 126.81 34.75 133.1 25.62 137.38 C21.99 138.7 18.42 139.65 14.62 140.38 C13.51 140.6 12.4 140.83 11.25 141.06 C-7.59 142.69 -25.59 139.31 -40.78 127.59 C-54.39 115.97 -63.1 100.18 -65.38 82.38 C-66.66 60.68 -64.07 39.26 -49.24 22.3 C-47.03 19.9 -44.73 17.63 -42.38 15.38 C-41.77 14.76 -41.16 14.15 -40.54 13.52 C-29.6 3.16 -14.58 -0.19 0 0 Z " fill="#000100" transform="translate(774.375,27.625)"/>
<path d="M0 0 C0.33 10.89 0.66 21.78 1 33 C-15.1 33 -15.1 33 -22.38 32.5 C-23.12 32.45 -23.87 32.4 -24.64 32.36 C-26.43 32.24 -28.21 32.12 -30 32 C-29.89 39.32 -29.78 46.64 -29.66 53.97 C-29.61 57.37 -29.55 60.77 -29.5 64.18 C-29.27 79.85 -28.95 95.5 -28.33 111.16 C-27.49 132.98 -27.49 132.98 -29 136 C-34.91 137.71 -41.25 137.22 -47.35 137.24 C-49.49 137.25 -51.64 137.28 -53.79 137.31 C-55.16 137.32 -56.53 137.32 -57.91 137.33 C-59.15 137.34 -60.39 137.35 -61.67 137.36 C-65.23 136.98 -67.12 136.07 -70 134 C-69.97 133.15 -69.95 132.3 -69.92 131.42 C-69.25 107.97 -68.8 84.52 -68.44 61.06 C-68.43 60.34 -68.42 59.62 -68.4 58.88 C-68.27 49.92 -68.13 40.96 -68 32 C-69.13 32.14 -70.26 32.29 -71.42 32.43 C-86.21 34.27 -86.21 34.27 -93.56 34.12 C-94.8 34.11 -96.04 34.09 -97.32 34.07 C-98.64 34.04 -98.64 34.04 -100 34 C-100.12 26.69 -100.12 26.69 -99.12 23.06 C-97.85 17.87 -97.28 12.63 -96.7 7.32 C-96.1 2.1 -96.1 2.1 -95 1 C-93.63 0.98 -92.25 1.04 -90.88 1.12 C-89.98 1.17 -89.09 1.22 -88.16 1.27 C-87.16 1.32 -86.16 1.38 -85.12 1.44 C-60.68 2.6 -36.32 2.55 -11.94 0.18 C-7.97 -0.06 -3.98 0 0 0 Z " fill="#000100" transform="translate(927,29)"/>
<path d="M0 0 C0.82 0.01 1.64 0.01 2.48 0.02 C3.32 0.02 4.15 0.02 5.02 0.02 C6.79 0.03 8.56 0.03 10.34 0.05 C13.06 0.06 15.78 0.07 18.51 0.07 C20.23 0.07 21.95 0.08 23.67 0.08 C24.49 0.09 25.31 0.09 26.15 0.09 C31.89 0.14 31.89 0.14 33.01 1.25 C33.11 3.26 33.14 5.28 33.14 7.29 C33.14 9.22 33.14 9.22 33.14 11.19 C33.14 11.87 33.14 12.55 33.14 13.25 C33.13 15.23 33.14 17.2 33.14 19.17 C33.14 26.1 32.99 32.99 32.64 39.91 C31.74 58.11 31.89 76.31 31.94 94.52 C31.95 99.13 31.95 103.74 31.96 108.34 C31.97 117.31 31.98 126.28 32.01 135.25 C28.35 136.47 24.97 136.41 21.16 136.42 C20.4 136.42 19.63 136.43 18.84 136.43 C17.22 136.44 15.61 136.44 13.99 136.44 C11.51 136.44 9.04 136.46 6.56 136.48 C4.99 136.48 3.42 136.48 1.85 136.48 C1.11 136.49 0.37 136.5 -0.4 136.5 C-4.15 136.49 -5.79 136.39 -8.99 134.25 C-9.26 131.53 -9.26 131.53 -9.1 128.04 C-9.05 126.75 -9 125.45 -8.95 124.12 C-8.88 122.71 -8.81 121.29 -8.74 119.88 C-8.68 118.42 -8.63 116.97 -8.57 115.52 C-8.45 112.54 -8.32 109.57 -8.19 106.59 C-7.03 80.97 -6.8 55.53 -7.64 29.9 C-7.78 25.68 -7.89 21.47 -7.99 17.25 C-8.01 16.54 -8.03 15.82 -8.05 15.08 C-8.09 12.99 -8.13 10.9 -8.15 8.81 C-8.17 7.6 -8.19 6.38 -8.21 5.13 C-7.8 -0.4 -4.83 0.02 0 0 Z " fill="#000100" transform="translate(945.9946441650391,29.747756958007813)"/>
</svg>
