<?xml version="1.0" encoding="UTF-8"?>
<svg version="1.1" xmlns="http://www.w3.org/2000/svg" width="2613" height="419">
<path d="M0 0 C2.78840637 -0.39440918 2.78840637 -0.39440918 6.38989258 -0.41992188 C7.04539597 -0.42839142 7.70089935 -0.43686096 8.37626648 -0.44558716 C10.5492174 -0.46903752 12.7214632 -0.46997723 14.89453125 -0.46875 C16.40427434 -0.4758488 17.91401472 -0.48354738 19.42375183 -0.49182129 C22.59222909 -0.50528594 25.76045717 -0.506827 28.92895508 -0.50097656 C32.98467128 -0.49509033 37.03918626 -0.52561608 41.0946703 -0.56609344 C44.21488356 -0.59198247 47.3348085 -0.59484663 50.45511436 -0.59120178 C51.94982602 -0.59289316 53.44455097 -0.60253764 54.93915749 -0.62034607 C57.03422099 -0.64255366 59.12686663 -0.63282849 61.22192383 -0.61523438 C63.00823967 -0.61831604 63.00823967 -0.61831604 64.8306427 -0.62145996 C68.95413101 0.18708974 70.37800119 1.78256626 73 5 C74.22518921 6.98600769 74.22518921 6.98600769 75.08349609 8.93823242 C75.418461 9.68808914 75.7534259 10.43794586 76.09854126 11.21052551 C76.44500702 12.02148178 76.79147278 12.83243805 77.1484375 13.66796875 C77.52946625 14.53777878 77.910495 15.40758881 78.30307007 16.30375671 C83.32176972 27.87169899 87.97077892 39.59457349 92.625 51.3125 C93.60475328 53.77102177 94.58457189 56.22951751 95.56445312 58.68798828 C102.4872748 76.08218949 109.27366774 93.52482436 115.94551086 111.01655579 C118.71622989 118.27382818 121.51440531 125.52038064 124.31640625 132.765625 C124.78459778 133.97626114 125.25278931 135.18689728 125.73516846 136.43421936 C126.45416306 138.29333551 127.17315777 140.15245161 127.89217377 142.01155949 C134.78631551 159.83899843 141.67557523 177.66859426 148.46286011 195.53704834 C149.06603936 197.12441738 149.67029015 198.7113797 150.27566528 200.2979126 C151.09081276 202.43562255 151.90163147 204.57491675 152.7109375 206.71484375 C153.15743652 207.89167725 153.60393555 209.06851074 154.06396484 210.28100586 C155 213 155 213 155 215 C181.73 215 208.46 215 236 215 C232.0090625 206.8634375 232.0090625 206.8634375 227.9375 198.5625 C216.82670849 175.78310372 206.2818432 152.77432968 196.25 129.5 C195.76031738 128.3668335 195.27063477 127.23366699 194.76611328 126.06616211 C194.31220215 125.00276611 193.85829102 123.93937012 193.390625 122.84375 C192.99907227 121.92787109 192.60751953 121.01199219 192.20410156 120.06835938 C191.80674805 119.05580078 191.40939453 118.04324219 191 117 C190.73367767 116.38541428 190.46735535 115.77082855 190.19296265 115.13761902 C187.41545245 108.06125422 187.63272728 101.19090032 187.7578125 93.67578125 C187.7710185 92.26826353 187.7832117 90.86073599 187.79446411 89.45320129 C187.8373403 84.96826848 187.91549109 80.48431617 188 76 C188.0133287 75.2602166 188.02665741 74.5204332 188.04039001 73.75823212 C188.21649643 64.06969498 188.45900157 54.38388682 188.74462891 44.69799805 C188.85740752 40.86112346 188.95677509 37.02401177 189.05343437 33.18670177 C189.13103763 30.18659278 189.21721306 27.18677598 189.3058815 24.18697548 C189.34643076 22.7688778 189.38390308 21.35068847 189.41814804 19.93242455 C189.46618918 17.97969043 189.5274428 16.02729471 189.58935547 14.07495117 C189.63598831 12.41770271 189.63598831 12.41770271 189.68356323 10.72697449 C190 8 190 8 192 5 C195.06811523 4.64355469 195.06811523 4.64355469 199.05859375 4.671875 C199.78286057 4.67329498 200.50712738 4.67471497 201.25334167 4.67617798 C203.6484331 4.68540273 206.04262638 4.71701994 208.4375 4.75 C210.09488333 4.76330163 211.75227307 4.77582529 213.40966797 4.78759766 C218.606934 4.83202354 223.80329114 4.91340234 229 5 C229.85140564 5.01309204 230.70281128 5.02618408 231.58001709 5.03967285 C236.49222669 5.11561607 241.40375315 5.20667554 246.31521606 5.32141113 C247.85167892 5.35705832 249.38820221 5.39019133 250.92477417 5.42077637 C253.06744193 5.46571132 255.20933588 5.52371109 257.3515625 5.5859375 C258.56666504 5.6173584 259.78176758 5.6487793 261.03369141 5.68115234 C264 6 264 6 267 8 C267.37231445 10.27929688 267.37231445 10.27929688 267.36328125 13.21875 C267.36392578 14.35417236 267.36457031 15.48959473 267.36523438 16.65942383 C267.34783203 17.92681396 267.33042969 19.1942041 267.3125 20.5 C267.30372595 21.84464319 267.2952727 23.18928851 267.28710938 24.53393555 C267.1416263 40.09962825 266.41715119 55.65855992 265.7121582 71.20703125 C265.44512608 77.1370699 265.2071599 83.06756894 265 89 C264.96820648 89.86975464 264.93641296 90.73950928 264.90365601 91.63562012 C264.60809357 100.65731668 264.55514346 108.72872238 268.3125 117.125 C268.84556763 118.41494873 268.84556763 118.41494873 269.3894043 119.73095703 C270.55355311 122.50629577 271.76919562 125.2536244 273 128 C273.4228125 128.95712891 273.845625 129.91425781 274.28125 130.90039062 C277.42191885 137.98091638 280.69378269 144.99558543 284 152 C284.73500732 153.57056152 284.73500732 153.57056152 285.48486328 155.17285156 C286.94155031 158.28510379 288.40646627 161.39332229 289.875 164.5 C290.53495972 165.90548096 290.53495972 165.90548096 291.20825195 167.33935547 C293.81868547 172.81238075 296.68801177 177.91924386 300 183 C302.14707126 180.85292874 302.68512727 179.55873238 303.70703125 176.7421875 C304.04017334 175.82566406 304.37331543 174.90914062 304.71655273 173.96484375 C305.25904663 172.43537109 305.25904663 172.43537109 305.8125 170.875 C306.19414307 169.80636719 306.57578613 168.73773438 306.96899414 167.63671875 C310.78858312 156.81242256 314.37477328 145.91106012 317.9375 135 C318.22412506 134.12583435 318.51075012 133.2516687 318.80606079 132.35101318 C319.63475642 129.81891569 320.45710724 127.28484879 321.27734375 124.75 C321.64558762 123.62611374 321.64558762 123.62611374 322.02127075 122.47952271 C324.75014912 113.98454513 326.30291977 106.17543952 326.1953125 97.22924805 C326.1909317 95.83240028 326.1909317 95.83240028 326.1864624 94.40733337 C326.17889883 92.40216099 326.16671765 90.39700162 326.15032959 88.39188194 C326.12465083 85.21856889 326.11173414 82.04542426 326.10205078 78.87202454 C326.07928224 72.14377357 326.04075713 65.41566287 326 58.6875 C325.9527858 50.87118853 325.91204412 43.05495532 325.88812256 35.23853493 C325.87515641 32.11193384 325.85015 28.98557542 325.82470703 25.85905457 C325.81744381 23.94729829 325.81074012 22.03553979 325.8046875 20.1237793 C325.79435486 19.25462891 325.78402222 18.38547852 325.77337646 17.48999023 C325.77323547 16.68973923 325.77309448 15.88948822 325.77294922 15.06498718 C325.768508 14.37242671 325.76406677 13.67986624 325.75949097 12.96631908 C326.0491759 10.59795473 326.73257228 9.01535409 328 7 C331.5564632 5.83453002 335.10411529 5.86882272 338.82495117 5.85473633 C339.97352097 5.84835648 341.12209076 5.84197662 342.3054657 5.83540344 C343.53884171 5.83429062 344.77221771 5.8331778 346.04296875 5.83203125 C347.32174393 5.82870285 348.6005191 5.82537445 349.91804504 5.82194519 C352.62383874 5.81596818 355.32960057 5.81410368 358.03540039 5.81469727 C361.47695694 5.81479849 364.91830532 5.80118144 368.35981274 5.78392506 C371.67086721 5.77002381 374.98188557 5.77071328 378.29296875 5.76953125 C380.12785103 5.75875298 380.12785103 5.75875298 381.99980164 5.74775696 C399.79477844 5.79477844 399.79477844 5.79477844 404 10 C404.24291992 12.48901367 404.24291992 12.48901367 404.23046875 15.66796875 C404.22917969 16.85495361 404.22789062 18.04193848 404.2265625 19.26489258 C404.21367188 20.55935303 404.20078125 21.85381348 404.1875 23.1875 C404.18060528 24.54516412 404.17410136 25.90283027 404.16796875 27.26049805 C404.10841785 36.61717657 403.83647218 45.96170329 403.5 55.3125 C403.32203504 60.54134347 403.15484612 65.77042434 403 71 C402.96815613 72.04688995 402.96815613 72.04688995 402.93566895 73.1149292 C402.03151694 97.03799858 402.03151694 97.03799858 407.03222656 120.26123047 C407.98663015 122.96216374 408.88822634 125.67778444 409.78027344 128.39985657 C414.31123948 142.20769878 419.19316673 155.8698021 424.5625 169.375 C424.97975342 170.4263916 425.39700684 171.4777832 425.8269043 172.56103516 C427.760659 177.69620692 427.760659 177.69620692 431 182 C454.5378997 141.47187079 454.5378997 141.47187079 463.9140625 97.0078125 C463.88267937 95.84744476 463.88267937 95.84744476 463.85066223 94.66363525 C463.78102903 92.15056248 463.70308846 89.637823 463.625 87.125 C463.57523844 85.3784283 463.52584269 83.63184613 463.47680664 81.88525391 C463.22195863 73.04278625 462.89064725 64.2096869 462.4375 55.375 C461.98189642 45.98110249 461.83099262 36.58492515 461.76882935 27.18121338 C461.75633509 25.52650474 461.73886517 23.87182576 461.71627808 22.21722412 C461.68651368 19.8985335 461.67650893 17.58057847 461.671875 15.26171875 C461.65957352 14.5576741 461.64727203 13.85362946 461.63459778 13.12825012 C461.64355469 11.16674805 461.64355469 11.16674805 462 8 C465.58269869 5.61153421 467.31275987 5.69740175 471.578125 5.5859375 C472.24569321 5.56652603 472.91326141 5.54711456 473.60105896 5.52711487 C475.817241 5.46619441 478.03344424 5.4201357 480.25 5.375 C481.79533524 5.33693149 483.34066395 5.29859694 484.88598633 5.26000977 C502.92091652 4.84081744 520.96166081 4.90536024 539 5 C540.22027534 7.44055068 540.19601637 9.1553118 540.29711914 11.88476562 C540.33699951 12.91182114 540.37687988 13.93887665 540.41796875 14.99705505 C540.47597656 16.68460655 540.47597656 16.68460655 540.53515625 18.40625 C540.60077759 20.1625045 540.60077759 20.1625045 540.66772461 21.95423889 C541.05114163 32.47705489 541.35378642 43.0024959 541.64161682 53.52830505 C541.83724242 60.43995751 542.10266086 67.33779008 542.49940491 74.24075317 C543.84319784 98.18220426 540.7135057 114.94917004 529.1640625 135.97265625 C525.80915705 142.12531858 522.92817951 148.50467268 519.99084473 154.86383057 C518.68000745 157.68987429 517.34660492 160.50500245 516.01348877 163.32058716 C510.84052602 174.25424146 505.84060498 185.26563644 500.87109375 196.29296875 C500.57325989 196.95255585 500.27542603 197.61214294 499.96856689 198.29171753 C499.1699283 200.06115275 498.37344952 201.83156237 497.57714844 203.60205078 C495.79638602 207.43868411 493.8916062 211.2167876 492 215 C518.07 215 544.14 215 571 215 C571.33 205.5125 571.66 196.025 572 186.25 C572.10441406 183.2996582 572.20882812 180.34931641 572.31640625 177.30957031 C573.13690284 153.61813645 572.94143036 130.15011468 572.13116455 106.45965576 C572.0177076 103.11837368 571.90856668 99.77695314 571.79882812 96.43554688 C571.45996669 86.19797415 571.12046414 75.96060633 570.71704102 65.7253418 C570.2254984 53.23672749 569.81337472 40.76424933 569.81469727 28.26489258 C569.81241396 25.84636053 569.79382655 23.42822338 569.77539062 21.00976562 C569.77247126 19.45312651 569.77047677 17.89648531 569.76953125 16.33984375 C569.76234573 15.62553696 569.75516022 14.91123016 569.74775696 14.17527771 C569.77104498 9.22895502 569.77104498 9.22895502 572 7 C577.38708028 5.68939911 582.92337731 5.78420405 588.4375 5.625 C596.71354425 5.33900136 604.80410521 4.61195552 613 3.4375 C619.53613267 2.52543019 626.02119688 1.66060156 632.625 1.5 C633.75164063 1.4690625 634.87828125 1.438125 636.0390625 1.40625 C642.52920715 2.70770381 646.37580412 9.88673261 650.1875 14.9375 C651.04613647 16.06792725 651.04613647 16.06792725 651.92211914 17.22119141 C655.74342313 22.27467532 659.47101183 27.38683267 663.12866211 32.55957031 C666.61053571 37.47923252 670.17025149 42.33867512 673.75 47.1875 C674.34216309 47.98969971 674.93432617 48.79189941 675.54443359 49.6184082 C677.36223463 52.07947261 679.18099457 54.53982567 681 57 C687.8763071 66.30268538 694.7395971 75.61260387 701.5 85 C712.8358962 100.73018667 724.41085498 116.26403756 736.20800781 131.65136719 C737.82570401 133.77156302 739.42834883 135.90183807 741.0234375 138.0390625 C741.69391113 138.93069092 741.69391113 138.93069092 742.37792969 139.84033203 C743.51917244 141.35915902 744.65442756 142.88248033 745.7890625 144.40625 C748.30806847 147.36140894 750.95824199 149.59448364 754 152 C756.24784128 146.57775191 756.30481459 141.75931996 756.25 135.9921875 C756.24468262 134.93055389 756.23936523 133.86892029 756.23388672 132.77511597 C756.02493451 113.54771031 754.90825364 94.32878341 754 75.125 C753.66474204 68.0094727 753.33352457 60.89377993 753.00872803 53.77776718 C752.87950074 50.98024495 752.74490909 48.18301911 752.60986328 45.38577271 C752.20353245 36.74090713 751.89861855 28.09940452 751.8203125 19.44482422 C751.80684784 18.65246431 751.79338318 17.86010441 751.7795105 17.0437336 C751.76167922 9.92037448 751.76167922 9.92037448 754 7 C757.36543801 5.87818733 760.06517108 5.79119824 763.61328125 5.68359375 C764.28349304 5.66263138 764.95370483 5.64166901 765.64422607 5.62007141 C767.86685829 5.55315274 770.08958939 5.49438626 772.3125 5.4375 C773.07311737 5.41731812 773.83373474 5.39713623 774.61740112 5.37634277 C786.58238547 5.06531707 798.55029415 4.84596885 810.51913452 4.76882935 C812.21402316 4.75628154 813.90888235 4.7387683 815.60366821 4.71627808 C817.97684822 4.68665528 820.34931333 4.67653357 822.72265625 4.671875 C823.43250671 4.65957352 824.14235718 4.64727203 824.87371826 4.63459778 C826.84008789 4.64355469 826.84008789 4.64355469 830 5 C832.05701525 8.08552288 832.25206318 8.69265179 832.24584961 12.171875 C832.24748863 13.47705078 832.24748863 13.47705078 832.24916077 14.80859375 C832.23217384 16.26458984 832.23217384 16.26458984 832.21484375 17.75 C832.2083934 18.79800781 832.20194305 19.84601563 832.19529724 20.92578125 C832.05027356 34.90171613 831.42720429 48.86753837 830.87972164 62.83209133 C829.45074499 99.36521941 828.63079101 135.87780662 828.3125 172.4375 C828.30311024 173.51257813 828.29372047 174.58765625 828.28404617 175.6953125 C828.17116135 188.79680205 828.08272389 201.89824767 828 215 C841.53 215 855.06 215 869 215 C869 210.05 869 205.1 869 200 C869.12052181 195.96508376 869.25952507 191.93821806 869.4375 187.90625 C869.50408813 186.29345154 869.50408813 186.29345154 869.57202148 184.64807129 C869.75861748 180.1309068 869.95236206 175.61405636 870.14550781 171.09716797 C870.28702729 167.76279575 870.42482606 164.42828288 870.5625 161.09375 C870.60624756 160.10266235 870.64999512 159.11157471 870.69506836 158.0904541 C871.22600422 145.20858274 871.01972442 132.34393776 870.6328125 119.4609375 C870.59329409 118.10212518 870.55388887 116.74330957 870.5145874 115.38449097 C870.40974287 111.7884584 870.30154583 108.19253469 870.19228363 104.59663391 C870.12454007 102.35981359 870.05779427 100.12296534 869.99127197 97.8861084 C869.37484301 77.22193194 868.64211047 56.56774597 867.60986328 35.91943359 C867.23898024 28.42245935 866.9059669 20.92829434 866.8203125 13.421875 C866.80500488 12.2265918 866.78969727 11.03130859 866.77392578 9.79980469 C867 7 867 7 869 5 C871.39737659 4.80055602 873.67962037 4.72626022 876.07832336 4.73930359 C877.18427936 4.73356527 877.18427936 4.73356527 878.3125779 4.72771102 C880.79610319 4.71734921 883.27939865 4.72137916 885.76293945 4.7253418 C887.53835261 4.720997 889.31376389 4.71581463 891.08917236 4.70985413 C895.92190116 4.69642586 900.75455194 4.69588984 905.58729577 4.69841743 C909.61813369 4.69948485 913.64895568 4.69460949 917.6797902 4.689812 C927.18912673 4.67870294 936.69842378 4.67828684 946.20776367 4.68432617 C956.02344524 4.6903642 965.8389834 4.67806249 975.6546405 4.6567561 C984.07508075 4.63914913 992.49547532 4.63313743 1000.91593331 4.63639385 C1005.94800122 4.63820876 1010.97996692 4.63555004 1016.0120182 4.62167931 C1020.7455502 4.60912079 1025.4788586 4.61102634 1030.21238708 4.62409019 C1031.95023867 4.62646008 1033.68810589 4.62370656 1035.42593956 4.61546707 C1037.79779562 4.60503227 1040.16889698 4.6130736 1042.54072571 4.6257782 C1043.2290589 4.61840391 1043.9173921 4.61102963 1044.62658387 4.60343188 C1048.91917016 4.65182661 1051.56518674 5.41872045 1055 8 C1058.44143592 12.22584181 1058.70474278 16.58446288 1059.16796875 21.82421875 C1059.25250809 22.68449173 1059.33704742 23.54476471 1059.42414856 24.43110657 C1059.60052134 26.25534121 1059.77076638 28.08017729 1059.93530273 29.90551758 C1060.18271666 32.63473507 1060.45195438 35.36109308 1060.72460938 38.08789062 C1061.56650733 46.81857774 1062.16015712 55.49511925 1062.17578125 64.26953125 C1062.17732712 65.03738449 1062.17887299 65.80523773 1062.1804657 66.59635925 C1062.13295743 71.86704257 1062.13295743 71.86704257 1061 73 C1049.71978308 73.59011581 1038.47699705 72.6024526 1027.24069214 71.71661377 C1009.47101928 70.3434807 991.75953541 69.67075396 973.9375 69.625 C972.90873749 69.61750732 971.87997498 69.61001465 970.82003784 69.60229492 C967.90965724 69.58475952 965.00023269 69.58898627 962.08984375 69.6015625 C960.79294617 69.59263474 960.79294617 69.59263474 959.46984863 69.58352661 C955.95293736 69.6247175 953.61917012 69.67059934 950.47875977 71.34130859 C948.1581722 73.94425922 948.13572718 76.65993102 948 80 C947.96003906 80.91523438 947.92007812 81.83046875 947.87890625 82.7734375 C947.53600495 95.25304879 947.53600495 95.25304879 953 106 C955.82450206 106.94150069 957.54997843 107.12646665 960.47363281 107.12939453 C961.38018616 107.13254669 962.2867395 107.13569885 963.22076416 107.13894653 C964.20494324 107.1369223 965.18912231 107.13489807 966.203125 107.1328125 C967.23193787 107.13376923 968.26075073 107.13472595 969.32073975 107.13571167 C971.51314352 107.13639358 973.7055493 107.13453854 975.89794922 107.13037109 C979.16769301 107.12513188 982.43729239 107.1302578 985.70703125 107.13671875 C996.28820478 107.14053345 1006.84962385 107.00774057 1017.421875 106.5546875 C1018.32713928 106.51594513 1019.23240356 106.47720276 1020.1651001 106.43728638 C1025.63581188 106.17716555 1031.07521032 105.75156865 1036.52580261 105.21565247 C1040.20671628 104.89482192 1043.86950881 104.8160959 1047.5625 104.8125 C1048.60760742 104.79413086 1048.60760742 104.79413086 1049.67382812 104.77539062 C1051.45078922 104.77023004 1053.22732688 104.87651982 1055 105 C1055.66 105.66 1056.32 106.32 1057 107 C1056.90276638 109.89637746 1056.68212201 112.66630397 1056.35546875 115.5390625 C1056.2665889 116.40461258 1056.17770905 117.27016266 1056.08613586 118.16194153 C1055.79565563 120.98398571 1055.49152647 123.80438609 1055.1875 126.625 C1054.78675222 130.4613725 1054.39577001 134.29863996 1054.01171875 138.13671875 C1053.91724457 139.07985428 1053.82277039 140.02298981 1053.72543335 140.9947052 C1052.90669075 149.43448842 1052.49104623 157.84940621 1052.50463867 166.33251953 C1052.49279541 167.19087402 1052.48095215 168.04922852 1052.46875 168.93359375 C1052.47326172 169.65603271 1052.47777344 170.37847168 1052.48242188 171.12280273 C1052 173 1052 173 1050.57763672 174.80249023 C1046.47033158 176.71064819 1042.69137245 175.79065255 1038.2890625 175.2265625 C1025.97785244 173.87877102 1013.75019487 173.56039618 1001.375 173.375 C999.28384145 173.33662415 997.19269537 173.29756292 995.1015625 173.2578125 C989.06792576 173.14779633 983.03428855 173.06450403 977 173 C976.04420044 172.98972778 975.08840088 172.97945557 974.1036377 172.96887207 C971.37376786 172.94334828 968.64401951 172.92671225 965.9140625 172.9140625 C964.71201675 172.9035939 964.71201675 172.9035939 963.48568726 172.89291382 C958.91259279 172.88539821 954.48560683 173.0026432 950 174 C947.51673408 177.72489888 947.69543024 180.62695974 947.75 184.9375 C947.75676758 185.69442139 947.76353516 186.45134277 947.77050781 187.23120117 C947.60884026 198.36584071 947.60884026 198.36584071 951.75390625 208.21875 C954.25019169 210.19841289 956.10872174 210.91891611 959.1875 211.6875 C960.06792969 211.91824219 960.94835938 212.14898437 961.85546875 212.38671875 C970.09084512 213.9928729 978.25053983 214.19283216 986.625 214.1875 C988.42892212 214.18737915 988.42892212 214.18737915 990.26928711 214.18725586 C1006.41639255 214.08862698 1022.58019167 213.05186636 1038.64453125 211.44140625 C1044.47435527 210.89756135 1050.27338297 210.85237777 1056.125 210.875 C1057.16398437 210.87113281 1058.20296875 210.86726562 1059.2734375 210.86328125 C1060.25828125 210.86457031 1061.243125 210.86585938 1062.2578125 210.8671875 C1063.1461377 210.86831543 1064.03446289 210.86944336 1064.94970703 210.87060547 C1067 211 1067 211 1068 212 C1069.05706123 224.66963393 1067.54246075 237.05207563 1065.6875 249.5625 C1065.58080994 250.29338837 1065.47411987 251.02427673 1065.36419678 251.77731323 C1061.60538597 277.21863629 1061.60538597 277.21863629 1056 282 C1053.50390625 282.5234375 1053.50390625 282.5234375 1050.5625 282.375 C1048.87259949 282.29331322 1048.87259949 282.29331322 1047.14855957 282.2099762 C1044.3910162 282.07430482 1041.635356 281.91980897 1038.8795166 281.75328064 C1023.37248319 280.86288751 1007.86515059 280.81964511 992.33830261 280.77020454 C987.43729356 280.75448991 982.53634397 280.73055725 977.63537598 280.70530701 C963.71805583 280.63475113 949.8007068 280.57403266 935.88330078 280.52319336 C928.15624846 280.49489619 920.42926052 280.45954913 912.70227575 280.41653961 C907.83226607 280.38984523 902.96232866 280.37189593 898.09226036 280.36050236 C895.07319064 280.35137764 892.05421 280.33402131 889.03519249 280.31432343 C887.63758938 280.30685519 886.23996346 280.3027673 884.84234047 280.30232811 C882.93372578 280.30124389 881.0251326 280.28682055 879.11657715 280.27174377 C878.04968407 280.26751184 876.98279099 280.2632799 875.88356781 280.25891972 C872.63378315 279.96711686 869.38929749 279.38929749 867 277 C866.89842859 274.50632604 866.86049606 272.04102721 866.8671875 269.546875 C866.86582291 268.78291412 866.86445831 268.01895325 866.86305237 267.23184204 C866.86101874 264.73785121 866.86734976 262.24397877 866.875 259.75 C866.87621857 258.90930969 866.87743713 258.06861938 866.87869263 257.20245361 C866.89573387 247.25394563 866.96515874 237.31422723 867.4375 227.375 C867.47665527 226.54323242 867.51581055 225.71146484 867.55615234 224.85449219 C867.73353865 221.69687995 867.99492062 219.01523814 869 216 C855.47 216 841.94 216 828 216 C828.02320313 220.38023437 828.04640625 224.76046875 828.0703125 229.2734375 C828.08316956 232.76057826 828.09401688 236.24771235 828.10350037 239.73486328 C828.11407267 243.41899349 828.1282064 247.10303207 828.15087891 250.78710938 C828.17256991 254.33379655 828.18456067 257.88039472 828.18975449 261.4271431 C828.193457 262.78197252 828.20068689 264.13679694 828.21146011 265.49158859 C828.22592448 267.38545757 828.22681649 269.27941564 828.22705078 271.17333984 C828.231492 272.25255707 828.23593323 273.33177429 828.24050903 274.44369507 C828 277 828 277 826 279 C816.60581764 280.54710354 806.8063154 280.16375084 797.3125 280.125 C796.61433167 280.12311676 795.91616333 280.12123352 795.19683838 280.11929321 C763.00258132 280.01753796 763.00258132 280.01753796 757 276 C754.50771035 273.34719379 752.35163654 270.48561005 750.1875 267.5625 C749.56858887 266.74628174 748.94967773 265.93006348 748.31201172 265.08911133 C746.53003627 262.73430822 744.76321041 260.36886923 743 258 C742.22527344 256.97132813 741.45054688 255.94265625 740.65234375 254.8828125 C739.28074479 253.05929943 737.9136767 251.23237097 736.55078125 249.40234375 C732.3318086 243.75399239 728.03638118 238.16293017 723.75830078 232.55932617 C723.10200684 231.69927979 722.44571289 230.8392334 721.76953125 229.953125 C721.18792236 229.19161133 720.60631348 228.43009766 720.00708008 227.64550781 C718 225 718 225 716.94232178 222.94567871 C715.49593829 220.44108657 714.27154299 218.80805531 712 217 C707.16550142 215.81860943 702.36006115 215.92686777 697.4140625 216 C695.98771964 215.99247519 694.56139139 215.98143567 693.13510132 215.96704102 C689.39615382 215.93868718 685.65892506 215.95784131 681.92004395 215.98712158 C678.09892733 216.00856341 674.27811652 215.98476097 670.45703125 215.96484375 C662.97092608 215.93245187 655.4860581 215.95027972 648 216 C648.10501831 217.45140381 648.10501831 217.45140381 648.2121582 218.93212891 C648.97222742 230.12081139 649.18626109 241.27649648 649.18530273 252.48925781 C649.18753431 255.4200604 649.20590357 258.35051138 649.22460938 261.28125 C649.22753633 263.15364456 649.22952579 265.02604089 649.23046875 266.8984375 C649.23765427 267.77019623 649.24483978 268.64195496 649.25224304 269.54013062 C649.24916641 270.3459256 649.24608978 271.15172058 649.24291992 271.98193359 C649.24434494 272.68788666 649.24576996 273.39383972 649.24723816 274.1211853 C649 276 649 276 647 279 C644.51574117 279.28672361 642.28139108 279.3786773 639.79638672 279.34057617 C639.0548233 279.34101425 638.31325989 279.34145233 637.54922485 279.34190369 C635.09244669 279.33980979 632.63634678 279.31645125 630.1796875 279.29296875 C628.47861097 279.28737491 626.77752962 279.28310381 625.07644653 279.28010559 C620.5948151 279.26864004 616.11347441 279.23915835 611.63195801 279.20599365 C607.06066827 279.17532948 602.48933165 279.16160809 597.91796875 279.14648438 C588.94518461 279.11429013 579.97261646 279.06307329 571 279 C569.58750233 275.80665472 568.75123678 273.32512962 568.84887695 269.83081055 C568.86582108 269.04195969 568.8827652 268.25310883 568.90022278 267.44035339 C568.94381172 266.17630424 568.94381172 266.17630424 568.98828125 264.88671875 C569.02226265 263.55590019 569.02226265 263.55590019 569.05693054 262.19819641 C569.13221756 259.36092468 569.22248378 256.52433833 569.3125 253.6875 C569.36223678 251.82228963 569.41107339 249.95705503 569.45898438 248.09179688 C569.50958125 246.25258099 569.56099 244.41338724 569.61328125 242.57421875 C569.63626785 241.75378586 569.65925446 240.93335297 569.68293762 240.08805847 C569.94100426 232.03808233 570.49675269 224.05195699 571 216 C544.6 216.33 518.2 216.66 491 217 C486.71 226.24 482.42 235.48 478 245 C475.45267745 250.34213932 472.90063231 255.67809604 470.3125 261 C469.71399076 262.23557928 469.11568501 263.47125715 468.51757812 264.70703125 C467.01562445 267.80662622 465.51246128 270.90551949 464 274 C463.71535889 274.73734375 463.43071777 275.4746875 463.13745117 276.234375 C461.51528197 278.75241056 459.81607706 279.07527037 457 280 C454.43374634 280.26069641 454.43374634 280.26069641 451.67822266 280.2746582 C450.6400943 280.28419022 449.60196594 280.29372223 448.53237915 280.30354309 C447.42083466 280.30263168 446.30929016 280.30172028 445.1640625 280.30078125 C443.43499161 280.30720894 443.43499161 280.30720894 441.67098999 280.31376648 C439.23509375 280.31950379 436.79918038 280.32001446 434.36328125 280.31567383 C430.64553428 280.31251743 426.92858593 280.33596933 423.2109375 280.36132812 C420.84114683 280.36360159 418.47135404 280.3643044 416.1015625 280.36328125 C414.44031845 280.37709587 414.44031845 280.37709587 412.74551392 280.39118958 C406.75305075 280.35545171 402.21636364 280.07748631 397 277 C395.6171875 275.35058594 395.6171875 275.35058594 394.875 273.484375 C394.56812256 272.74598389 394.26124512 272.00759277 393.94506836 271.24682617 C393.6331958 270.42287354 393.32132324 269.5989209 393 268.75 C392.64752197 267.87770752 392.29504395 267.00541504 391.93188477 266.10668945 C390.85808934 263.42075433 389.81256001 260.7253462 388.77764893 258.02423096 C387.90171634 255.74416627 387.01750508 253.46740798 386.13232422 251.19091797 C381.70944237 239.81108189 377.34139005 228.41116358 373 217 C367.06 216.67 361.12 216.34 355 216 C354.64550781 217.12019531 354.29101562 218.24039063 353.92578125 219.39453125 C351.57162693 226.45147772 348.82460287 233.36193797 346.12182617 240.29077148 C345.1969557 242.6632443 344.27695783 245.03756471 343.35742188 247.41210938 C341.59518247 251.9508918 339.80668839 256.47873897 338 261 C337.58672455 262.03909515 337.58672455 262.03909515 337.1651001 263.09918213 C336.38901854 265.0361448 335.59800585 266.9661896 334.80078125 268.89453125 C334.35516846 269.9822583 333.90955566 271.06998535 333.45043945 272.19067383 C331.70088863 275.57934263 329.94864421 278.35666099 326.19781494 279.59498596 C323.68053544 280.05887103 321.32041428 280.14207995 318.76000977 280.16113281 C317.71535049 280.17074036 316.67069122 280.1803479 315.59437561 280.19024658 C313.90990578 280.1966214 313.90990578 280.1966214 312.19140625 280.203125 C311.03253403 280.20882507 309.8736618 280.21452515 308.67967224 280.22039795 C306.22940991 280.22984047 303.77913492 280.23637896 301.32885742 280.24023438 C297.58034192 280.24995374 293.83237155 280.2809906 290.08398438 280.3125 C287.70312826 280.3190289 285.32226822 280.32427982 282.94140625 280.328125 C281.82045059 280.3404718 280.69949493 280.3528186 279.54457092 280.36553955 C278.49675949 280.36253845 277.44894806 280.35953735 276.36938477 280.35644531 C275.45101334 280.36009094 274.53264191 280.36373657 273.58644104 280.36749268 C270.42181957 279.91784964 268.57001796 278.87737498 266 277 C264.59930391 274.72571577 263.47464238 272.62199281 262.375 270.2109375 C261.68255506 268.76126739 260.98983081 267.31173067 260.296875 265.86230469 C259.74483398 264.68855286 259.74483398 264.68855286 259.18164062 263.49108887 C257.50091527 259.94784895 255.75859339 256.43596785 254.01928711 252.92120361 C252.1442935 249.12943861 250.28448514 245.33030429 248.42431641 241.53125 C247.46209285 239.56787852 246.49818226 237.60533307 245.53271484 235.64355469 C244.12221324 232.77721899 242.71678291 229.90844894 241.3125 227.0390625 C240.87824707 226.15900543 240.44399414 225.27894836 239.99658203 224.3722229 C239.60196777 223.56312469 239.20735352 222.75402649 238.80078125 221.92041016 C238.45184814 221.20922028 238.10291504 220.4980304 237.7434082 219.76528931 C237 218 237 218 237 216 C210.27 216 183.54 216 156 216 C160.70814787 228.4895946 160.70814787 228.4895946 165.42260742 240.97680664 C168.3581517 248.76599795 171.27289662 256.5644806 173.98828125 264.43359375 C174.38184814 265.56724365 174.77541504 266.70089355 175.1809082 267.86889648 C176.02395941 271.09158851 176.30742166 273.68601243 176 277 C169.74949097 282.66452381 158.5308913 281.16013981 150.64453125 281.16796875 C149.46590012 281.17129715 148.28726898 281.17462555 147.07292175 281.17805481 C144.58597196 281.18310142 142.09901545 281.18546384 139.61206055 281.18530273 C135.84216921 281.18748284 132.0725738 281.20564566 128.30273438 281.22460938 C125.87500099 281.22754518 123.44726623 281.22952872 121.01953125 281.23046875 C119.35323418 281.24124702 119.35323418 281.24124702 117.65327454 281.25224304 C97.59982872 281.19481509 97.59982872 281.19481509 92.68891907 277.0489502 C90.96335415 274.95554227 90.17712959 273.43702591 89.40625 270.85546875 C89.04853516 269.67476807 89.04853516 269.67476807 88.68359375 268.47021484 C87.33955235 263.61342523 86.09394084 258.73616181 84.89453125 253.84179688 C84.69214844 253.04451172 84.48976563 252.24722656 84.28125 251.42578125 C84.01924805 250.36484253 84.01924805 250.36484253 83.75195312 249.2824707 C82.79015872 246.36304996 81.39159292 243.73658214 80 241 C69.26451606 240.95365275 58.52905594 240.9181186 47.79349232 240.89637566 C42.80849994 240.88593997 37.82357602 240.87178461 32.83862305 240.84912109 C28.02757278 240.82738517 23.21658836 240.81542975 18.40549278 240.81024551 C16.5702886 240.80655112 14.73508802 240.79933691 12.89991188 240.78853989 C10.32878464 240.77401506 7.75792927 240.77202248 5.18676758 240.77294922 C4.0495652 240.76216339 4.0495652 240.76216339 2.88938904 240.75115967 C-1.16264599 240.76695606 -4.41627804 241.02953306 -8 243 C-9.5601236 245.54343011 -9.5601236 245.54343011 -10.5625 248.6875 C-10.97628906 249.85023438 -11.39007813 251.01296875 -11.81640625 252.2109375 C-13.01686485 256.05398977 -14.02971898 259.90730313 -15 263.8125 C-16.51523996 269.76874815 -18.28349703 274.10986452 -22 279 C-28.69105785 282.34552892 -38.43671613 281.16006734 -45.74609375 281.16796875 C-46.83785416 281.17129715 -47.92961456 281.17462555 -49.05445862 281.17805481 C-51.34953392 281.18308807 -53.64461645 281.18546426 -55.93969727 281.18530273 C-59.42411474 281.18749159 -62.90821637 281.20569265 -66.39257812 281.22460938 C-68.6354156 281.2275437 -70.87825456 281.22952823 -73.12109375 281.23046875 C-74.66222084 281.24124702 -74.66222084 281.24124702 -76.23448181 281.25224304 C-92.69854285 281.20097143 -92.69854285 281.20097143 -99 277 C-98.60902589 269.54882311 -96.9960046 263.13478533 -94.47265625 256.13671875 C-93.94918861 254.64420341 -93.94918861 254.64420341 -93.41514587 253.12153625 C-92.30798992 249.97307552 -91.18541851 246.83036864 -90.0625 243.6875 C-89.31215204 241.5595968 -88.56279383 239.43134431 -87.81445312 237.30273438 C-86.44217287 233.41023938 -85.06694462 229.51886397 -83.67993164 225.6315918 C-83.26476036 224.46771187 -83.26476036 224.46771187 -82.84120178 223.28031921 C-81.93892606 220.83444152 -80.97833772 218.41634655 -80 216 C-81.22486618 216.01252808 -82.44973236 216.02505615 -83.7117157 216.03796387 C-96.83605049 216.17169495 -109.96042844 216.300613 -123.08483887 216.42669678 C-128.1381512 216.47524315 -133.19145379 216.52467022 -138.24475098 216.57476807 C-187.89959681 217.06430691 -187.89959681 217.06430691 -212.59765625 216.9609375 C-214.25302625 216.95495507 -215.90839632 216.9489935 -217.56376648 216.9430542 C-224.30122806 216.91668787 -231.03820312 216.88045806 -237.77533627 216.80768394 C-241.04286575 216.77552713 -244.3104939 216.7607122 -247.578125 216.7421875 C-249.30283775 216.71419571 -249.30283775 216.71419571 -251.06239319 216.68563843 C-252.60787086 216.68051743 -252.60787086 216.68051743 -254.18457031 216.67529297 C-255.07412415 216.66561493 -255.96367798 216.65593689 -256.88018799 216.64596558 C-257.57972595 216.76279694 -258.27926392 216.8796283 -259 217 C-264.20367556 224.80551334 -260.63423824 239.30444209 -259.71630859 248.27124023 C-258.70433715 258.84041589 -258.80898115 269.39404596 -259 280 C-261.31604438 281.15802219 -262.61619693 281.12905051 -265.1953125 281.1328125 C-266.11610596 281.13490723 -267.03689941 281.13700195 -267.9855957 281.13916016 C-269.02159912 281.1344873 -270.05760254 281.12981445 -271.125 281.125 C-272.21707764 281.12161621 -273.30915527 281.11823242 -274.43432617 281.11474609 C-285.96737634 281.04892604 -297.5000298 280.88142686 -309.03143311 280.68060303 C-311.21680822 280.64356828 -313.40223723 280.60958637 -315.58770752 280.57867432 C-318.70064906 280.53329065 -321.81311573 280.47527812 -324.92578125 280.4140625 C-325.86753708 280.40250122 -326.80929291 280.39093994 -327.77958679 280.37902832 C-336.1494683 280.18960385 -336.1494683 280.18960385 -340 278 C-341.43636537 275.12726926 -341.12986366 272.68793969 -341.1328125 269.47265625 C-341.13413177 268.7700618 -341.13545105 268.06746735 -341.1368103 267.34358215 C-341.13878552 264.91651536 -341.13219936 262.48955607 -341.125 260.0625 C-341.12411377 259.20730774 -341.12322754 258.35211548 -341.12231445 257.4710083 C-341.09574183 234.87354839 -340.73447974 212.27687605 -340.39173031 189.6823864 C-339.98724348 162.97728425 -339.66838668 136.26682759 -340.3125 109.5625 C-340.3316748 108.72843628 -340.35084961 107.89437256 -340.37060547 107.03503418 C-340.84670636 87.09877085 -341.958905 67.19452215 -343.0905304 47.28651428 C-343.33802177 42.92031814 -343.57979054 38.55381403 -343.82080078 34.18725586 C-343.94174307 32.03616387 -344.06650792 29.88528386 -344.19482422 27.73461914 C-344.37889556 24.64123699 -344.55014055 21.54738285 -344.71875 18.453125 C-344.77744263 17.5234491 -344.83613525 16.59377319 -344.89660645 15.63592529 C-344.94039429 14.78830627 -344.98418213 13.94068726 -345.02929688 13.06738281 C-345.07211792 12.32643372 -345.11493896 11.58548462 -345.15905762 10.82208252 C-345 9 -345 9 -343 7 C-329.02136867 3.82956553 -314.15116864 4.6903313 -299.92578125 4.69921875 C-297.30852695 4.6953219 -294.69127327 4.69098523 -292.07402039 4.68623352 C-286.60833095 4.67807028 -281.14269332 4.67889424 -275.67700195 4.68432617 C-269.41836371 4.69035197 -263.15995108 4.67807262 -256.90135127 4.6567561 C-250.81129194 4.63679991 -244.72133559 4.6339918 -238.63124657 4.63749123 C-236.07242491 4.63698348 -233.51359923 4.63185061 -230.95479774 4.62167931 C-198.81640111 4.50959881 -168.73629956 8.15606409 -143 29 C-142.23429688 29.60199219 -141.46859375 30.20398438 -140.6796875 30.82421875 C-122.18256066 46.1955245 -111.71026787 69.43600434 -109 93 C-108.67984192 98.64870528 -108.60996301 104.28078106 -108.625 109.9375 C-108.62554382 110.70768463 -108.62608765 111.47786926 -108.62664795 112.27139282 C-108.7216801 141.60325486 -116.08641829 167.80540802 -136 190 C-136.58523437 190.65613281 -137.17046875 191.31226563 -137.7734375 191.98828125 C-144.48442485 199.09310588 -152.53417858 203.93449166 -161.1875 208.3125 C-161.85257568 208.65015381 -162.51765137 208.98780762 -163.20288086 209.33569336 C-163.85135986 209.65417236 -164.49983887 209.97265137 -165.16796875 210.30078125 C-165.73797607 210.58091064 -166.3079834 210.86104004 -166.89526367 211.1496582 C-169.84386835 212.34093417 -172.94220146 213.12634327 -176 214 C-143.99 214.33 -111.98 214.66 -79 215 C-77.515 210.05 -77.515 210.05 -76 205 C-75.39992588 203.21755232 -74.78422469 201.44013827 -74.14086914 199.67285156 C-73.63622383 198.28049789 -73.63622383 198.28049789 -73.12138367 196.86001587 C-72.5837011 195.39016739 -72.5837011 195.39016739 -72.03515625 193.890625 C-71.65007401 192.8313681 -71.26499176 191.77211121 -70.86824036 190.68075562 C-69.60268001 187.2027286 -68.33276074 183.72631281 -67.0625 180.25 C-66.16610593 177.79087927 -65.26978559 175.33173167 -64.37353516 172.87255859 C-57.02695161 152.72895169 -49.58482285 132.6208816 -42.12489319 112.51901245 C-36.97683928 98.64612625 -31.85284303 84.76457894 -26.75 70.875 C-26.38420837 69.87992432 -26.01841675 68.88484863 -25.64154053 67.85961914 C-21.52976715 56.67172286 -17.44208512 45.47551101 -13.390625 34.265625 C-12.83214874 32.72220932 -12.83214874 32.72220932 -12.26239014 31.14761353 C-10.48592827 26.23807359 -8.71320266 21.32726091 -6.94824219 16.41357422 C-6.31982876 14.6740932 -5.69125722 12.93466928 -5.0625 11.1953125 C-4.78005432 10.40408997 -4.49760864 9.61286743 -4.206604 8.79766846 C-3.03916248 5.5793089 -1.90852246 2.86278369 0 0 Z M-264 71 C-265.00957517 77.96340018 -265.14627753 84.81280619 -265.1328125 91.83984375 C-265.13376923 92.96080948 -265.13472595 94.08177521 -265.13571167 95.23670959 C-265.13638946 97.60254981 -265.13456327 99.96839192 -265.13037109 102.33422852 C-265.12506277 105.89538934 -265.13030625 109.45642141 -265.13671875 113.01757812 C-265.14152069 123.20239392 -265.10754458 133.38924033 -264.6796875 143.56640625 C-264.65770294 144.3041478 -264.63571838 145.04188934 -264.61306763 145.80198669 C-264.53220915 148.02243388 -264.53220915 148.02243388 -264 151 C-258.70941451 154.52705699 -252.86498933 154.16789036 -246.671875 154.203125 C-245.48830414 154.21167511 -245.48830414 154.21167511 -244.28082275 154.22039795 C-242.61675337 154.22980597 -240.9526657 154.23636514 -239.28857422 154.24023438 C-236.77147079 154.2499174 -234.25519277 154.28097087 -231.73828125 154.3125 C-218.94384497 154.39716831 -207.92145076 153.25728004 -198.08984375 144.25 C-189.00521957 134.68317708 -187.09796044 122.45862482 -186.96484375 109.60546875 C-187.52412715 98.32431335 -190.06359841 87.35712649 -198 79 C-198.52464844 78.44699219 -199.04929687 77.89398438 -199.58984375 77.32421875 C-207.5136187 69.81061568 -217.53451395 67.8479523 -228.1171875 67.83203125 C-228.89256866 67.82870285 -229.66794983 67.82537445 -230.46682739 67.82194519 C-232.10239064 67.81689773 -233.73796413 67.81453619 -235.37353516 67.81469727 C-237.85987532 67.81251329 -240.3457696 67.79434154 -242.83203125 67.77539062 C-244.42708183 67.77245564 -246.0221345 67.77047155 -247.6171875 67.76953125 C-248.35282928 67.76234573 -249.08847107 67.75516022 -249.84640503 67.74775696 C-257.46833509 67.72418318 -257.46833509 67.72418318 -264 71 Z M36 99 C30.12377173 113.86762126 24.94648091 128.92804018 20 144.125 C19.70928619 145.01356689 19.41857239 145.90213379 19.11904907 146.81762695 C18.2824127 149.37934376 17.4524369 151.94311123 16.625 154.5078125 C16.2489991 155.65970566 16.2489991 155.65970566 15.86540222 156.83486938 C14.57316542 160.87546047 13.57408139 164.78033492 13 169 C19.22656457 174.96712438 30.62555499 173.18318065 38.625 173.1875 C40.42710937 173.20586914 40.42710937 173.20586914 42.265625 173.22460938 C43.42835938 173.22654297 44.59109375 173.22847656 45.7890625 173.23046875 C47.36228271 173.23663208 47.36228271 173.23663208 48.96728516 173.24291992 C52.2452428 172.9803561 54.93276178 172.1574538 58 171 C58.38099363 163.94738455 56.99942215 157.85908972 55.1875 151.0625 C54.88561768 149.91257568 54.58373535 148.76265137 54.27270508 147.57788086 C51.58532731 137.6257818 48.45468027 127.83708944 45.1875 118.0625 C44.9453476 117.33741241 44.70319519 116.61232483 44.45370483 115.86526489 C41.70147392 107.23741232 41.70147392 107.23741232 38 99 C37.34 99 36.68 99 36 99 Z M647 133 C645.96021459 136.11935624 645.90591143 138.17297807 645.96240234 141.43920898 C645.97927094 142.55565292 645.99613953 143.67209686 646.01351929 144.82237244 C646.0374173 146.03470047 646.06131531 147.2470285 646.0859375 148.49609375 C646.10717682 149.75398209 646.12841614 151.01187042 646.15029907 152.30787659 C646.19664775 154.98373282 646.24502696 157.659459 646.296875 160.33520508 C646.34916023 163.03958045 646.39783107 165.74397245 646.44238281 168.44848633 C646.50723669 172.38109951 646.57697963 176.31359545 646.6484375 180.24609375 C646.66828705 181.42400986 646.6881366 182.60192596 646.70858765 183.8155365 C646.9149594 194.23551621 647.47870352 204.57407049 648 215 C668.79 215 689.58 215 711 215 C706.94884031 208.92326046 702.88918188 203.13882 698.375 197.4375 C693.84949171 191.67297834 689.3753789 185.8793232 685 180 C679.63263057 172.80024143 674.14172397 165.70244239 668.609375 158.62890625 C666.10150653 155.4212793 663.6148908 152.19845748 661.140625 148.96484375 C660.5101123 148.14419434 659.87959961 147.32354492 659.22998047 146.47802734 C658.02175198 144.90469059 656.81744272 143.32833385 655.61767578 141.74853516 C655.07095215 141.03874512 654.52422852 140.32895508 653.9609375 139.59765625 C653.48446777 138.97383057 653.00799805 138.35000488 652.51708984 137.70727539 C650.84756661 135.82845725 649.05217961 134.44182595 647 133 Z M363 195 C361.8278551 197.95619219 360.66322524 200.91528789 359.5 203.875 C358.99919922 205.13763672 358.99919922 205.13763672 358.48828125 206.42578125 C358.17246094 207.23144531 357.85664062 208.03710938 357.53125 208.8671875 C357.23798828 209.61081543 356.94472656 210.35444336 356.64257812 211.12060547 C355.89216009 212.98437213 355.89216009 212.98437213 356 215 C361.28 215 366.56 215 372 215 C371.33533318 211.67666588 370.82159397 209.24432568 369.58984375 206.23046875 C369.32236328 205.56982422 369.05488281 204.90917969 368.77929688 204.22851562 C368.50150391 203.55498047 368.22371094 202.88144531 367.9375 202.1875 C367.65583984 201.49462891 367.37417969 200.80175781 367.08398438 200.08789062 C366.39325027 198.39032376 365.69716272 196.69493688 365 195 C364.34 195 363.68 195 363 195 Z " fill="#232750" transform="translate(361,58)"/>
<path d="M0 0 C1.12664063 -0.0309375 2.25328125 -0.061875 3.4140625 -0.09375 C9.90420715 1.20770381 13.75080412 8.38673261 17.5625 13.4375 C18.13492432 14.19111816 18.70734863 14.94473633 19.29711914 15.72119141 C23.11842313 20.77467532 26.84601183 25.88683267 30.50366211 31.05957031 C33.98553571 35.97923252 37.54525149 40.83867512 41.125 45.6875 C41.71716309 46.48969971 42.30932617 47.29189941 42.91943359 48.1184082 C44.73723463 50.57947261 46.55599457 53.03982567 48.375 55.5 C55.2513071 64.80268538 62.1145971 74.11260387 68.875 83.5 C80.2108962 99.23018667 91.78585498 114.76403756 103.58300781 130.15136719 C105.20070401 132.27156302 106.80334883 134.40183807 108.3984375 136.5390625 C108.84541992 137.13348145 109.29240234 137.72790039 109.75292969 138.34033203 C110.89417244 139.85915902 112.02942756 141.38248033 113.1640625 142.90625 C115.68306847 145.86140894 118.33324199 148.09448364 121.375 150.5 C123.62284128 145.07775191 123.67981459 140.25931996 123.625 134.4921875 C123.61968262 133.43055389 123.61436523 132.36892029 123.60888672 131.27511597 C123.39993451 112.04771031 122.28325364 92.82878341 121.375 73.625 C121.03974204 66.5094727 120.70852457 59.39377993 120.38372803 52.27776718 C120.25450074 49.48024495 120.11990909 46.68301911 119.98486328 43.88577271 C119.57853245 35.24090713 119.27361855 26.59940452 119.1953125 17.94482422 C119.17511551 16.75628436 119.17511551 16.75628436 119.1545105 15.5437336 C119.13667922 8.42037448 119.13667922 8.42037448 121.375 5.5 C124.74043801 4.37818733 127.44017108 4.29119824 130.98828125 4.18359375 C131.65849304 4.16263138 132.32870483 4.14166901 133.01922607 4.12007141 C135.24185829 4.05315274 137.46458939 3.99438626 139.6875 3.9375 C140.82842606 3.90722717 140.82842606 3.90722717 141.99240112 3.87634277 C153.95738547 3.56531707 165.92529415 3.34596885 177.89413452 3.26882935 C179.58902316 3.25628154 181.28388235 3.2387683 182.97866821 3.21627808 C185.35184822 3.18665528 187.72431333 3.17653357 190.09765625 3.171875 C191.16243195 3.15342278 191.16243195 3.15342278 192.24871826 3.13459778 C194.21508789 3.14355469 194.21508789 3.14355469 197.375 3.5 C199.45295461 6.61693192 199.62695599 7.27518357 199.62084961 10.80810547 C199.62248863 12.14278366 199.62248863 12.14278366 199.62416077 13.50442505 C199.61283615 14.49038666 199.60151154 15.47634827 199.58984375 16.4921875 C199.58016823 18.0833992 199.58016823 18.0833992 199.57029724 19.70675659 C199.47794146 28.58501463 199.13708987 37.4508574 198.75390625 46.3203125 C197.15015478 83.64532494 196.24402903 120.93516819 196.0234375 158.29296875 C196.01811563 159.18389851 196.01279377 160.07482826 196.00731063 160.99275589 C195.89991788 179.1607843 195.82051672 197.32887874 195.77523494 215.49716848 C195.75778269 222.4645706 195.73467858 229.43193971 195.7078917 236.39931208 C195.68978613 241.28824697 195.68108881 246.17708126 195.67965394 251.06604815 C195.67684618 254.06128838 195.66596566 257.05645881 195.65282714 260.05166984 C195.64847765 261.43702158 195.64759567 262.82238908 195.65038693 264.20774484 C195.6537677 266.08738013 195.64391354 267.96702562 195.63328552 269.84663391 C195.63165122 270.89693944 195.63001692 271.94724497 195.62833309 273.02937794 C195.375 275.5 195.375 275.5 193.375 277.5 C183.98081764 279.04710354 174.1813154 278.66375084 164.6875 278.625 C163.98933167 278.62311676 163.29116333 278.62123352 162.57183838 278.61929321 C130.37758132 278.51753796 130.37758132 278.51753796 124.375 274.5 C121.88271035 271.84719379 119.72663654 268.98561005 117.5625 266.0625 C116.94358887 265.24628174 116.32467773 264.43006348 115.68701172 263.58911133 C113.90503627 261.23430822 112.13821041 258.86886923 110.375 256.5 C109.60027344 255.47132813 108.82554687 254.44265625 108.02734375 253.3828125 C106.65183131 251.55409653 105.28088123 249.72194166 103.9140625 247.88671875 C100.43650076 243.23099062 96.90032985 238.61957867 93.375 234 C88.50308196 227.61416822 83.6511455 221.21576398 78.84375 214.78125 C74.68009137 209.22970516 70.45405089 203.72504596 66.24487305 198.20800781 C62.70728066 193.56884234 59.17967442 188.92344599 55.6875 184.25 C36.69472236 157.37978959 36.69472236 157.37978959 15.375 132.5 C14.10920673 135.03158655 14.2856706 136.70771858 14.33740234 139.54003906 C14.35430618 140.59991028 14.37121002 141.65978149 14.3886261 142.75177002 C14.42442024 144.49112823 14.42442024 144.49112823 14.4609375 146.265625 C14.48185959 147.4691864 14.50278168 148.6727478 14.52433777 149.91278076 C14.58239848 153.1800404 14.64518509 156.44716694 14.71019363 159.71429443 C14.76335898 162.43318077 14.81230757 165.15213632 14.86125278 167.87110138 C15.12255358 182.34970876 15.44236317 196.82562047 15.87246704 211.30026245 C16.27600656 224.94997258 16.50320409 238.59529826 16.55123901 252.2512207 C16.5586871 254.19329309 16.56931644 256.13535613 16.58328247 258.07739258 C16.60100929 260.76392588 16.60530876 263.45013419 16.60546875 266.13671875 C16.61260895 266.94098801 16.61974915 267.74525726 16.62710571 268.57389832 C16.61135459 272.4170928 16.5583712 274.22494321 14.375 277.5 C11.89074117 277.78672361 9.65639108 277.8786773 7.17138672 277.84057617 C6.4298233 277.84101425 5.68825989 277.84145233 4.92422485 277.84190369 C2.46744669 277.83980979 0.01134678 277.81645125 -2.4453125 277.79296875 C-4.14638903 277.78737491 -5.84747038 277.78310381 -7.54855347 277.78010559 C-12.0301849 277.76864004 -16.51152559 277.73915835 -20.99304199 277.70599365 C-25.56433173 277.67532948 -30.13566835 277.66160809 -34.70703125 277.64648438 C-43.67981539 277.61429013 -52.65238354 277.56307329 -61.625 277.5 C-63.58990851 272.99621106 -63.83917171 269.26144046 -63.671875 264.40625 C-63.6523175 263.60367767 -63.63276001 262.80110535 -63.61260986 261.97421265 C-63.5443629 259.31571765 -63.46005809 256.65800638 -63.375 254 C-63.3224279 252.12387431 -63.27035357 250.24773461 -63.21875 248.37158203 C-62.77123937 232.79988792 -62.08392002 217.2389112 -61.36083984 201.67797852 C-60.83849324 190.43287787 -60.36028354 179.18902922 -60 167.9375 C-59.96003906 166.7520459 -59.92007813 165.5665918 -59.87890625 164.34521484 C-59.27728702 144.52798889 -59.81632174 124.76872408 -60.49383545 104.95965576 C-60.6072924 101.61837368 -60.71643332 98.27695314 -60.82617188 94.93554688 C-61.16503331 84.69797415 -61.50453586 74.46060633 -61.90795898 64.2253418 C-62.3995016 51.73672749 -62.81162528 39.26424933 -62.81030273 26.76489258 C-62.81258604 24.34636053 -62.83117345 21.92822338 -62.84960938 19.50976562 C-62.85252874 17.95312651 -62.85452323 16.39648531 -62.85546875 14.83984375 C-62.86265427 14.12553696 -62.86983978 13.41123016 -62.87724304 12.67527771 C-62.85395502 7.72895502 -62.85395502 7.72895502 -60.625 5.5 C-55.23791972 4.18939911 -49.70162269 4.28420405 -44.1875 4.125 C-35.91145575 3.83900136 -27.82089479 3.11195552 -19.625 1.9375 C-13.08886733 1.02543019 -6.60380312 0.16060156 0 0 Z " fill="#242851" transform="translate(2395.625,59.5)"/>
<path d="M0 0 C0 0.66 0 1.32 0 2 C0.58394531 2.26683594 1.16789062 2.53367188 1.76953125 2.80859375 C10.47897752 7.46074981 19.40946063 16.97879134 25 25 C25 25.66 25 26.32 25 27 C25.66 27 26.32 27 27 27 C30 31.38461538 30 31.38461538 30 34 C30.66 34 31.32 34 32 34 C34.02602351 36.64474926 35.59392738 39.61310356 37.25 42.5 C37.74508057 43.36133545 38.24016113 44.2226709 38.75024414 45.11010742 C45.4774599 57.09768583 49.54478013 69.71326079 53 83 C53.32291016 84.22976562 53.32291016 84.22976562 53.65234375 85.484375 C58.08324531 103.72545881 57.8492595 125.69195949 54 144 C53.690625 145.57974609 53.690625 145.57974609 53.375 147.19140625 C49.5648716 165.18127388 42.3910756 180.75294057 33.125 196.5 C32.74375977 197.15355469 32.36251953 197.80710937 31.96972656 198.48046875 C31.03822009 200.02377328 30.0262993 201.51804085 29 203 C28.34 203 27.68 203 27 203 C26.34 204.65 25.68 206.3 25 208 C24.34 208 23.68 208 23 208 C22.77828125 208.53753906 22.5565625 209.07507813 22.328125 209.62890625 C20.55698206 212.79091732 18.20437515 215.30217226 15.75 217.9375 C15.28464844 218.44990234 14.81929687 218.96230469 14.33984375 219.49023438 C11.11657548 222.98432822 7.77548563 226.1043945 4 229 C3.34 229 2.68 229 2 229 C2 229.66 2 230.32 2 231 C0.35 231.66 -1.3 232.32 -3 233 C-3 233.66 -3 234.32 -3 235 C-5.40640128 236.70591809 -7.80019266 238.27640512 -10.3125 239.8125 C-11.41356079 240.49070801 -11.41356079 240.49070801 -12.53686523 241.18261719 C-18.18387109 244.60954373 -23.87224416 247.52192542 -30 250 C-31.19496094 250.50273437 -32.38992187 251.00546875 -33.62109375 251.5234375 C-51.93121722 259.14104341 -69.66724724 262.191232 -89.4375 262.125 C-90.58798828 262.12886719 -91.73847656 262.13273437 -92.92382812 262.13671875 C-120.12364547 262.10589743 -150.03771349 254.95147356 -172 238 C-172 237.34 -172 236.68 -172 236 C-173.175625 235.5359375 -173.175625 235.5359375 -174.375 235.0625 C-177 234 -177 234 -179 233 C-179 232.34 -179 231.68 -179 231 C-179.7734375 230.6596875 -179.7734375 230.6596875 -180.5625 230.3125 C-183.89547005 228.51782382 -187.14703671 226.50034985 -190 224 C-190 223.34 -190 222.68 -190 222 C-190.66 222 -191.32 222 -192 222 C-193.625 220.625 -193.625 220.625 -195 219 C-195 218.34 -195 217.68 -195 217 C-195.66 217 -196.32 217 -197 217 C-198.75879957 215.01829701 -200.38765768 213.03437612 -202 210.9375 C-202.73041504 209.9928186 -202.73041504 209.9928186 -203.47558594 209.02905273 C-212.16630166 197.65659026 -219.47310893 186.22299323 -225 173 C-225.26796387 172.3807666 -225.53592773 171.7615332 -225.81201172 171.12353516 C-230.69338464 159.74937653 -233.00674567 148.17665057 -235 136 C-235.1757959 135.03723145 -235.3515918 134.07446289 -235.53271484 133.08251953 C-240.11515326 102.85374865 -232.17177743 70.70834977 -218 44 C-217.34 44 -216.68 44 -216 44 C-215.87625 43.236875 -215.7525 42.47375 -215.625 41.6875 C-215 39 -215 39 -213 36 C-212.34 36 -211.68 36 -211 36 C-210.814375 35.195625 -210.62875 34.39125 -210.4375 33.5625 C-207.63125665 26.60789691 -202.38080356 21.12457482 -197 16 C-196.36578125 15.34515625 -195.7315625 14.6903125 -195.078125 14.015625 C-188.17245034 6.91404467 -180.77386663 -0.25494968 -172 -5 C-171.34 -5 -170.68 -5 -170 -5 C-170 -5.66 -170 -6.32 -170 -7 C-167.09451118 -9.04169485 -165.59857954 -10 -162 -10 C-162 -10.66 -162 -11.32 -162 -12 C-159.44364189 -13.17905497 -156.88283356 -14.34688346 -154.31640625 -15.50390625 C-152.1101837 -16.49917508 -149.90956686 -17.50696713 -147.71484375 -18.52734375 C-138.98570233 -22.46598047 -130.32450478 -25.0352171 -121 -27 C-120.33081543 -27.15098145 -119.66163086 -27.30196289 -118.97216797 -27.45751953 C-77.93719173 -36.56875857 -33.20730262 -25.41117193 0 0 Z M-137 34 C-144.72450206 45.46216435 -146.23032807 55.40622853 -145 69 C-144.15672858 72.71495247 -142.89305555 75.71042807 -141 79 C-140.63777344 79.72445312 -140.27554688 80.44890625 -139.90234375 81.1953125 C-137.04257075 86.44953951 -133.53839738 89.68321977 -128 92 C-121.89125662 93.69278431 -117.61718409 93.13266036 -112 90 C-104.29801526 84.62652228 -100.40926378 77.45808037 -98.35546875 68.34765625 C-96.61509337 56.85352877 -98.20831085 44.69731994 -105 35 C-105.66 35 -106.32 35 -107 35 C-107.25652344 34.39671875 -107.51304687 33.7934375 -107.77734375 33.171875 C-109.87946886 29.4377486 -113.12975622 27.66718194 -117 26 C-125.43186679 24.46434804 -131.53129779 27.5742749 -137 34 Z M-76.78125 37.83984375 C-82.19976913 47.44382157 -82.85626545 60.3353654 -80.56054688 71.05126953 C-78.8055569 77.13869444 -76.27172967 82.30109737 -72 87 C-71.34 87 -70.68 87 -70 87 C-70 87.66 -70 88.32 -70 89 C-65.77741169 92.40531315 -61.27513877 92.9906303 -56 93 C-50.23667588 91.84733518 -45.25319388 88.78157088 -41.55078125 84.2109375 C-38.39487566 79.45338613 -36.51855346 74.47953555 -35 69 C-34.773125 68.195625 -34.54625 67.39125 -34.3125 66.5625 C-32.85893594 54.64327469 -35.29180271 45.43597901 -41 35 C-41.66 35 -42.32 35 -43 35 C-43.38671875 34.09507813 -43.38671875 34.09507813 -43.78125 33.171875 C-45.89414223 29.4065927 -49.09391474 27.66285767 -53 26 C-63.30745987 23.76644128 -71.18588187 29.524505 -76.78125 37.83984375 Z M-187 77 C-187 77.66 -187 78.32 -187 79 C-187.66 79 -188.32 79 -189 79 C-194.95677278 87.43876144 -194.8268559 96.49038901 -193.5703125 106.3828125 C-192.12002271 113.95654807 -189.51647514 120.4479347 -184 126 C-181.88328715 126.81171237 -181.88328715 126.81171237 -180 127 C-180 127.66 -180 128.32 -180 129 C-173.99085195 132.26584133 -169.67522647 132.11477625 -163 131 C-163 130.34 -163 129.68 -163 129 C-162.4225 128.814375 -161.845 128.62875 -161.25 128.4375 C-158.0282606 126.3791665 -156.41068727 123.47042314 -155 120 C-152.50631489 108.21167038 -152.96158563 95.6431275 -159.1875 85.1875 C-162.83784862 79.87721919 -166.03736565 76.01146402 -172.41796875 74.3828125 C-178.18589973 73.52765783 -181.90330286 74.2300559 -187 77 Z M-17.25 81.9375 C-18.19468786 83.27226964 -19.11069451 84.62770962 -20 86 C-20.51691406 86.77859375 -21.03382813 87.5571875 -21.56640625 88.359375 C-27.29569073 98.91249846 -26.69168705 110.16056774 -23.8515625 121.36328125 C-23.0714787 124.18759817 -23.0714787 124.18759817 -21 127 C-20.34 127 -19.68 127 -19 127 C-19 127.66 -19 128.32 -19 129 C-14.10344335 131.39831346 -10.56790831 132.69598854 -5 132 C2.52628976 128.69899572 7.69018682 122.93718818 11.11328125 115.484375 C14.98953173 104.62404325 16.36254811 94.19393492 11.91796875 83.36328125 C9.72825246 79.04641199 7.76668377 75.58889459 3 74 C-6.00552412 72.80335455 -11.71133753 74.756244 -17.25 81.9375 Z M-113 118 C-113 118.66 -113 119.32 -113 120 C-113.72832031 120.23589844 -114.45664063 120.47179687 -115.20703125 120.71484375 C-118.44632707 122.20537287 -120.24569346 123.97974028 -122.6875 126.5625 C-126.83206107 130.91603053 -126.83206107 130.91603053 -129 132 C-129 132.66 -129 133.32 -129 134 C-129.66 134 -130.32 134 -131 134 C-132.66666667 135.33333333 -132.66666667 135.33333333 -134 137 C-134 137.66 -134 138.32 -134 139 C-134.66 139 -135.32 139 -136 139 C-136 139.66 -136 140.32 -136 141 C-136.56976562 141.24105469 -137.13953125 141.48210937 -137.7265625 141.73046875 C-140.44283334 143.24728666 -142.22445137 145.06762907 -144.375 147.3125 C-147.00640255 150.01784279 -149.6055296 152.59158999 -152.5625 154.9375 C-153.7690625 155.9584375 -153.7690625 155.9584375 -155 157 C-155 157.66 -155 158.32 -155 159 C-155.66 159 -156.32 159 -157 159 C-162.37711625 166.67876011 -163.98338645 174.43472475 -162.58984375 183.73828125 C-160.80616627 190.60597359 -157.58670195 197.30675965 -151.8203125 201.63671875 C-141.23978605 207.85322335 -130.19476209 206.2885762 -118.625 204.125 C-117.17867187 203.86396484 -117.17867187 203.86396484 -115.703125 203.59765625 C-111.81709388 202.89442006 -107.9337745 202.18020346 -104.05615234 201.43188477 C-88.98581975 198.56788028 -75.06131529 200.50633156 -60.3125 204.125 C-49.54860065 206.5912915 -38.57983939 207.34863631 -28.75 201.8125 C-22.60767409 197.63620684 -18.50881785 191.29846776 -17 184 C-16.25141736 175.14006305 -16.1245886 167.73403548 -21.95703125 160.609375 C-24.24355468 158.0073347 -26.59704582 155.49460915 -29 153 C-29.68449219 152.27554688 -30.36898437 151.55109375 -31.07421875 150.8046875 C-33.45336956 148.31249885 -33.45336956 148.31249885 -36 146 C-36.66 146 -37.32 146 -38 146 C-38 145.34 -38 144.68 -38 144 C-39.33333333 142.33333333 -39.33333333 142.33333333 -41 141 C-41.66 141 -42.32 141 -43 141 C-43 140.34 -43 139.68 -43 139 C-44.34595571 137.59937273 -44.34595571 137.59937273 -46.1875 136.125 C-48.88862074 133.84458479 -51.52215512 131.52687194 -54.07421875 129.08203125 C-70.23652133 113.61938497 -92.10768228 103.57435205 -113 118 Z " fill="#242851" transform="translate(2259,80)"/>
<path d="M0 0 C2.44854069 0.00314225 4.89584743 -0.02031933 7.34423828 -0.0456543 C42.64311605 -0.18748361 73.47627249 12.00341758 99.42236328 35.77270508 C102.84493857 39.36062216 104.66568587 41.70333506 105.23095703 46.69848633 C104.80495903 50.72373278 103.61303748 53.6847922 101.72314453 57.19067383 C101.37767578 57.85413818 101.03220703 58.51760254 100.67626953 59.20117188 C99.42123976 61.58450116 98.13697143 63.95044935 96.84814453 66.31567383 C96.3122168 67.30680176 95.77628906 68.29792969 95.22412109 69.3190918 C93.44530499 72.59619922 91.65019938 75.86379183 89.84814453 79.12817383 C89.27950684 80.16506348 88.71086914 81.20195312 88.125 82.27026367 C85.2080956 87.48513377 82.14305022 92.57053824 78.78564453 97.51489258 C78.17591797 98.41425537 77.56619141 99.31361816 76.93798828 100.24023438 C74.28050786 102.87939805 72.5478979 103.18818149 68.84814453 103.31567383 C66.20751953 101.72583008 66.20751953 101.72583008 63.59814453 99.37817383 C62.64552734 98.54801758 61.69291016 97.71786133 60.71142578 96.86254883 C59.29410156 95.6018457 59.29410156 95.6018457 57.84814453 94.31567383 C38.91125616 78.38691447 20.40939005 72.71432774 -4.15185547 74.31567383 C-16.81970411 76.05895575 -28.95740575 83.75344752 -36.99169922 93.56176758 C-51.36516416 113.21913211 -54.58895424 134.91913128 -51.87060547 158.78491211 C-48.98032819 177.20632426 -38.95251527 193.20343242 -24.15185547 204.31567383 C-10.42397753 213.29243611 7.22526121 214.43816889 23.10205078 211.70239258 C36.79054686 208.40728271 48.27695079 201.43627495 58.84814453 192.31567383 C60.44071328 190.96850893 62.04456525 189.63454313 63.66064453 188.31567383 C64.34771484 187.73817383 65.03478516 187.16067383 65.74267578 186.56567383 C68.52520239 184.91370998 69.66769021 184.55502706 72.84814453 185.31567383 C78.08997291 189.85009931 81.76045338 196.39172743 85.53564453 202.12817383 C86.13924805 203.04091064 86.74285156 203.95364746 87.36474609 204.89404297 C91.35615267 210.96365031 95.27648538 217.0752454 99.09814453 223.25317383 C99.5514917 223.97931885 100.00483887 224.70546387 100.47192383 225.45361328 C105.07229378 232.99559578 105.07229378 232.99559578 105.84814453 237.31567383 C103.48368522 243.83660371 98.52889344 248.36458464 93.84814453 253.31567383 C93.25259766 253.98727539 92.65705078 254.65887695 92.04345703 255.35083008 C74.9295759 273.87185255 46.87785163 285.92623689 21.84103394 287.43676758 C17.26871396 287.61706338 12.69895274 287.64393285 8.12353516 287.63134766 C5.74740851 287.62820591 3.37255426 287.65166809 0.99658203 287.67700195 C-13.63734058 287.73915561 -27.97276024 285.99480864 -41.83935547 281.12817383 C-42.71599854 280.8262915 -43.5926416 280.52440918 -44.49584961 280.21337891 C-52.52235145 277.35206266 -59.91857179 273.80820505 -67.15185547 269.31567383 C-68.27333984 268.62344727 -69.39482422 267.9312207 -70.55029297 267.21801758 C-86.02939246 257.12700171 -99.36104185 242.92263185 -109.15185547 227.31567383 C-109.85439453 226.21223633 -110.55693359 225.10879883 -111.28076172 223.97192383 C-132.48985422 188.87832106 -136.38141273 143.10609958 -126.86279297 103.69458008 C-117.51206289 67.99120946 -95.7250327 35.1641975 -63.55419922 16.19067383 C-54.80819903 11.37083446 -46.04839319 7.36564386 -36.46435547 4.50317383 C-35.81241211 4.30828369 -35.16046875 4.11339355 -34.48876953 3.91259766 C-23.03011486 0.69640673 -11.83027753 -0.03159421 0 0 Z " fill="#242851" transform="translate(1578.15185546875,56.684326171875)"/>
<path d="M0 0 C1.14792778 -0.0012085 1.14792778 -0.0012085 2.31904602 -0.00244141 C7.54043027 0.05214902 7.54043027 0.05214902 8.67578125 1.1875 C8.73993923 3.78886688 8.7417661 6.36438818 8.703125 8.96484375 C8.69044021 10.61132573 8.67808229 12.25781025 8.66601562 13.90429688 C8.64158002 16.48600326 8.61404219 19.06757392 8.57983398 21.64916992 C8.4562915 31.59968988 8.66853044 41.31481346 9.96751404 51.19261169 C11.46608085 62.6069008 11.46608085 62.6069008 9.67578125 66.1875 C-5.71900328 66.42810135 -20.97178144 66.15549663 -36.33203125 65.1796875 C-37.8965417 65.08351083 -39.4610762 64.9877247 -41.02563477 64.89233398 C-44.79212035 64.66186365 -48.55824646 64.42620505 -52.32421875 64.1875 C-53.11052954 101.51556298 -53.72647144 138.80216143 -52.44921875 176.125 C-52.41511272 177.1227457 -52.41511272 177.1227457 -52.38031769 178.14064789 C-52.0996248 186.2739878 -51.78714403 194.40600266 -51.46707153 202.53787231 C-50.79107079 219.80845651 -50.13722645 237.06931458 -50.13891602 254.35522461 C-50.13663304 256.97328907 -50.11804765 259.59098857 -50.09960938 262.20898438 C-50.09668999 263.89322777 -50.09469551 265.57747309 -50.09375 267.26171875 C-50.08297173 268.42219978 -50.08297173 268.42219978 -50.07197571 269.60612488 C-50.09526517 274.95854642 -50.09526517 274.95854642 -52.32421875 277.1875 C-64.58069541 279.90633271 -77.3878029 279.46544857 -89.86206055 279.39331055 C-93.1483532 279.37493494 -96.43436413 279.37280245 -99.72070312 279.37304688 C-101.84505448 279.36813373 -103.96940396 279.3623063 -106.09375 279.35546875 C-107.05859818 279.35435593 -108.02344635 279.3532431 -109.01753235 279.35209656 C-113.75788373 279.31952645 -118.48320228 279.17988311 -123.21362305 278.86450195 C-124.50601143 278.77976372 -124.50601143 278.77976372 -125.82450867 278.6933136 C-129.04793851 278.0410561 -130.84363861 277.39102052 -133.32421875 275.1875 C-133.80437209 272.2740866 -133.94324453 269.94923395 -133.86523438 267.03735352 C-133.86232895 266.20759695 -133.85942352 265.37784039 -133.85643005 264.52293968 C-133.83953449 261.76572995 -133.78560231 259.01059717 -133.73046875 256.25390625 C-133.70893846 254.31150441 -133.68898508 252.36908451 -133.67053223 250.426651 C-133.44189105 230.57064659 -132.72111196 210.72447279 -131.93353271 190.88409424 C-130.49060538 155.54768687 -130.49060538 155.54768687 -130.32421875 120.1875 C-130.3399292 119.03623627 -130.35563965 117.88497253 -130.37182617 116.69882202 C-130.49360735 108.15277053 -130.65458953 99.6077141 -130.82421875 91.0625 C-130.87262168 88.53125431 -130.92079969 86.00000431 -130.96875 83.46875 C-131.08466236 77.37494815 -131.20329147 71.28120429 -131.32421875 65.1875 C-132.62564819 65.32381836 -132.62564819 65.32381836 -133.95336914 65.46289062 C-154.81967035 67.60007334 -175.34848918 68.6205158 -196.32421875 68.1875 C-196.61016657 61.59524347 -195.51651147 55.89884494 -194.01171875 49.5 C-191.57695275 38.66075712 -190.28038457 27.87871609 -189.40112305 16.80981445 C-189.300979 15.64281006 -189.20083496 14.47580566 -189.09765625 13.2734375 C-189.01950684 12.2426709 -188.94135742 11.2119043 -188.86083984 10.14990234 C-188.24624145 6.75702842 -186.98844174 4.19071438 -185.32421875 1.1875 C-184.28418701 1.27052368 -184.28418701 1.27052368 -183.22314453 1.35522461 C-179.96533924 1.61400713 -176.70728314 1.86950107 -173.44921875 2.125 C-171.81533203 2.25551758 -171.81533203 2.25551758 -170.1484375 2.38867188 C-154.80588435 3.58592313 -139.50319614 4.35198798 -124.11328125 4.42578125 C-123.33049364 4.43052145 -122.54770603 4.43526165 -121.74119759 4.44014549 C-115.81054491 4.47533822 -109.87996112 4.49046836 -103.94921875 4.5 C-102.64208105 4.50305145 -102.64208105 4.50305145 -101.30853653 4.50616455 C-73.3603393 4.56719444 -45.83776275 3.49481465 -18.00469971 0.80387878 C-11.99736723 0.2545585 -6.03224755 0.00603447 0 0 Z " fill="#242851" transform="translate(1884.32421875,59.8125)"/>
<path d="M0 0 C0.74664413 -0.00350464 1.49328827 -0.00700928 2.26255798 -0.01062012 C4.73177373 -0.01942602 7.20070319 -0.01359238 9.66992188 -0.00683594 C11.38480688 -0.00818292 13.0996915 -0.01012373 14.8145752 -0.01263428 C18.40913528 -0.01558399 22.00359599 -0.01129281 25.59814453 -0.00195312 C30.20852824 0.00944134 34.8186791 0.00288105 39.42905426 -0.00909805 C42.97033446 -0.01632078 46.51155934 -0.01402683 50.05284119 -0.00884247 C51.75292488 -0.00750711 53.45301358 -0.0091497 55.15309143 -0.01380157 C57.52797779 -0.01887359 59.90248563 -0.01114724 62.27734375 0 C63.33410561 -0.00607269 63.33410561 -0.00607269 64.41221619 -0.01226807 C68.05181207 0.01942365 69.51953665 0.17936558 72.63867188 2.25878906 C73.02685547 4.69897461 73.02685547 4.69897461 73.03710938 7.89550781 C73.04291016 9.13953369 73.04871094 10.38355957 73.0546875 11.6652832 C73.04216124 13.09229567 73.02843242 14.51929796 73.01367188 15.94628906 C73.00968384 17.07041702 73.00968384 17.07041702 73.00561523 18.21725464 C72.96204836 29.06777991 72.54802873 39.88597633 71.95898438 50.71972656 C71.89381622 51.91959198 71.82864807 53.1194574 71.76150513 54.35568237 C71.69438324 55.58779449 71.62726135 56.81990662 71.55810547 58.08935547 C70.02425199 86.26812684 69.33420296 114.3488194 69.38867188 142.57128906 C69.39038391 143.4595702 69.39209595 144.34785133 69.39385986 145.26305008 C69.44234848 166.81290393 69.64446288 188.35325239 70.2734375 209.89477539 C70.64298384 222.69841412 70.81442662 235.50016782 70.87084961 248.30908203 C70.88263712 250.59069111 70.89964183 252.87227979 70.92211914 255.15380859 C70.95174539 258.3035224 70.96199393 261.45270262 70.96679688 264.60253906 C70.97910339 265.55229614 70.99140991 266.50205322 71.00408936 267.48059082 C70.99964813 268.78135559 70.99964813 268.78135559 70.99511719 270.10839844 C71.00058563 271.24408264 71.00058563 271.24408264 71.00616455 272.40270996 C70.88489197 273.01521606 70.76361938 273.62772217 70.63867188 274.25878906 C63.5787458 278.96540645 52.67804484 277.41965487 44.47851562 277.42675781 C43.12048814 277.42997905 41.762461 277.43334374 40.4044342 277.43684387 C37.57291865 277.44279608 34.74143346 277.44468764 31.90991211 277.4440918 C28.30012799 277.44398997 24.69053965 277.45768064 21.08080196 277.47486401 C18.28136822 277.48603145 15.48198127 277.48800961 12.68252754 277.48748207 C10.71069503 277.48921847 8.73887711 277.50002024 6.76707458 277.5110321 C0.41644438 277.49490632 -5.35091905 277.42940279 -11.36132812 275.25878906 C-14.05229935 271.22233222 -13.44225174 267.84408434 -13.18945312 263.18847656 C-13.14765427 262.26069901 -13.10585541 261.33292145 -13.06278992 260.37702942 C-12.92189845 257.29541995 -12.76637912 254.21471578 -12.61132812 251.13378906 C-12.5106266 248.97214094 -12.41111678 246.810437 -12.31274414 244.64868164 C-12.10621329 240.12836621 -11.8949033 235.60831216 -11.68017578 231.08837891 C-11.17520008 220.37623716 -10.73524216 209.66140765 -10.29882812 198.94628906 C-10.25699402 197.92480774 -10.21515991 196.90332642 -10.17205811 195.85089111 C-9.62988763 182.57205909 -9.12966911 169.29291003 -8.73632812 156.00878906 C-8.69628662 154.70385498 -8.65624512 153.3989209 -8.61499023 152.05444336 C-8.05162327 131.64905656 -8.5311739 111.29318328 -9.14506817 90.8960495 C-10.56584235 43.60090802 -10.56584235 43.60090802 -10.66088867 21.98858643 C-10.66946652 20.17894411 -10.68308067 18.36931816 -10.7019043 16.55975342 C-10.72505455 14.12582497 -10.728579 11.69280325 -10.72460938 9.25878906 C-10.73373856 8.56355133 -10.74286774 7.8683136 -10.75227356 7.15200806 C-10.73364258 5.25878906 -10.73364258 5.25878906 -10.36132812 2.25878906 C-6.75780257 -0.14356131 -4.16081706 -0.02391018 0 0 Z " fill="#242851" transform="translate(1926.361328125,61.7412109375)"/>
</svg>
