<svg width="150" height="150" viewBox="0 0 150 150" fill="none" xmlns="http://www.w3.org/2000/svg">
<g filter="url(#filter0_d_323_737)">
<circle cx="75" cy="63" r="50" fill="url(#paint0_linear_323_737)"/>
</g>
<path fill-rule="evenodd" clip-rule="evenodd" d="M90.2201 47.7844L94.6601 52.2238C95.1101 52.6838 95.1101 53.4237 94.6601 53.8836C94.4301 54.1136 94.1301 54.2236 93.8301 54.2236C93.5301 54.2236 93.2301 54.1136 93.0001 53.8836L89.3901 50.2641L86.6101 53.0437L88.0001 54.4336C89.6801 56.1234 89.6801 58.853 88.0001 60.5328L85.7901 62.7425L82.6301 65.9121L79.1401 62.4226C78.6801 61.9626 77.9401 61.9626 77.4801 62.4226C77.0201 62.8825 77.0201 63.6224 77.4801 64.0824L80.9701 67.5719L78.8901 69.6517L73.6201 64.3823C73.1601 63.9224 72.4201 63.9224 71.9601 64.3823C71.5001 64.8423 71.5001 65.5822 71.9601 66.0421L77.2301 71.3115L75.1501 73.3912L71.6601 69.9016C71.2001 69.4417 70.4601 69.4417 70.0001 69.9016C69.5401 70.3616 69.5401 71.1015 70.0001 71.5614L73.4901 75.051L72.5401 76.0009C71.7301 76.8108 70.6501 77.2607 69.4901 77.2607C68.3301 77.2607 67.2501 76.8108 66.4401 76.0009L65.0501 74.611L57.0001 82.66C56.7701 82.89 56.4701 83 56.1701 83C55.8701 83 55.5701 82.89 55.3401 82.66C54.8801 82.2001 54.8801 81.4602 55.3401 81.0002L63.3901 72.9612L62.0001 71.5714C61.1901 70.7615 60.7401 69.6717 60.7401 68.5218C60.7401 67.362 61.1901 66.2821 62.0001 65.4722L75.2401 52.2238L77.4601 50.0041C78.2701 49.1942 79.3601 48.7443 80.5101 48.7443C81.6701 48.7443 82.7501 49.1942 83.5601 50.0041L84.9501 51.394L87.7301 48.6143L84.1201 45.0047C83.6601 44.5448 83.6601 43.8049 84.1201 43.345C84.5801 42.885 85.3201 42.885 85.7801 43.345L90.2201 47.7844ZM84.9501 60.2728L86.3401 58.883C87.1101 58.1131 87.1101 56.8633 86.3401 56.1034L81.9001 51.6639C81.5301 51.294 81.0401 51.094 80.5101 51.094C79.9801 51.094 79.4901 51.294 79.1201 51.6639L77.7301 53.0537L84.9501 60.2728ZM86.5698 70.1018C86.7898 69.8818 86.9098 69.5818 86.9098 69.2718C86.9098 68.9618 86.7798 68.6618 86.5698 68.4418C86.3498 68.2218 86.0498 68.1018 85.7398 68.1018C85.4298 68.1018 85.1298 68.2318 84.9098 68.4418C84.6898 68.6618 84.5698 68.9618 84.5698 69.2718C84.5698 69.5818 84.6998 69.8818 84.9098 70.1018C85.1298 70.3218 85.4298 70.4418 85.7398 70.4418C86.0498 70.4418 86.3498 70.3218 86.5698 70.1018ZM83.4899 71.0917C83.4899 71.4017 83.3699 71.7017 83.1499 71.9217C82.9299 72.1417 82.6299 72.2617 82.3199 72.2617C82.0099 72.2617 81.7099 72.1417 81.4899 71.9217C81.2799 71.7017 81.1499 71.4017 81.1499 71.0917C81.1499 70.7817 81.2699 70.4717 81.4899 70.2617C81.7099 70.0517 82.0099 69.9217 82.3199 69.9217C82.6299 69.9217 82.9299 70.0417 83.1499 70.2617C83.3599 70.4817 83.4899 70.7817 83.4899 71.0917ZM81.1099 79.7804C81.1099 76.2308 83.9999 73.3412 87.5499 73.3412C91.0999 73.3412 93.9899 76.2308 93.9899 79.7804C93.9899 80.4103 93.8099 81.0202 93.4699 81.5401C92.8699 82.45 91.8599 83 90.7699 83C89.9799 83 89.3699 82.82 88.8299 82.66L88.7996 82.6513L88.7996 82.6513C88.3632 82.5251 87.9995 82.42 87.5499 82.42C87.0899 82.42 86.7099 82.53 86.2699 82.66C85.7299 82.82 85.1199 83 84.3299 83C83.2399 83 82.2299 82.45 81.6299 81.5401C81.2899 81.0202 81.1099 80.4103 81.1099 79.7804ZM90.5299 69.2718C90.5299 69.5818 90.4099 69.8818 90.1899 70.1018C89.9799 70.3218 89.6699 70.4518 89.3599 70.4418C89.0499 70.4418 88.7499 70.3218 88.5299 70.1018C88.3199 69.8818 88.1899 69.5818 88.1899 69.2718C88.1899 68.9618 88.3099 68.6618 88.5299 68.4418C88.7499 68.2318 89.0499 68.1018 89.3599 68.1018C89.6699 68.1018 89.9699 68.2218 90.1899 68.4418C90.4099 68.6618 90.5299 68.9618 90.5299 69.2718ZM93.6099 71.9217C93.8299 71.7017 93.9499 71.4017 93.9499 71.0917C93.9499 70.7817 93.8199 70.4817 93.6099 70.2617C93.3899 70.0417 93.0899 69.9217 92.7799 69.9217C92.4699 69.9217 92.1699 70.0517 91.9499 70.2617C91.7299 70.4717 91.6099 70.7817 91.6099 71.0917C91.6099 71.4017 91.7399 71.7017 91.9499 71.9217C92.1699 72.1417 92.4699 72.2617 92.7799 72.2617C93.0899 72.2617 93.3899 72.1417 93.6099 71.9217Z" fill="url(#paint1_linear_323_737)"/>
<defs>
<filter id="filter0_d_323_737" x="0" y="0" width="150" height="150" filterUnits="userSpaceOnUse" color-interpolation-filters="sRGB">
<feFlood flood-opacity="0" result="BackgroundImageFix"/>
<feColorMatrix in="SourceAlpha" type="matrix" values="0 0 0 0 0 0 0 0 0 0 0 0 0 0 0 0 0 0 127 0" result="hardAlpha"/>
<feOffset dy="12"/>
<feGaussianBlur stdDeviation="12.5"/>
<feComposite in2="hardAlpha" operator="out"/>
<feColorMatrix type="matrix" values="0 0 0 0 0.0672917 0 0 0 0 0.780646 0 0 0 0 0.85 0 0 0 0.3 0"/>
<feBlend mode="normal" in2="BackgroundImageFix" result="effect1_dropShadow_323_737"/>
<feBlend mode="normal" in="SourceGraphic" in2="effect1_dropShadow_323_737" result="shape"/>
</filter>
<linearGradient id="paint0_linear_323_737" x1="75" y1="13" x2="75" y2="113" gradientUnits="userSpaceOnUse">
<stop stop-color="#AFE6EB"/>
<stop offset="1" stop-color="#36BECB"/>
</linearGradient>
<linearGradient id="paint1_linear_323_737" x1="74.9964" y1="43" x2="74.9964" y2="67" gradientUnits="userSpaceOnUse">
<stop stop-color="white" stop-opacity="0.6"/>
<stop offset="1" stop-color="white"/>
</linearGradient>
</defs>
</svg>
